<svg version="1.1" viewBox="0.0 0.0 512.0 512.0" fill="none" stroke="none" stroke-linecap="square" stroke-miterlimit="10" xmlns:xlink="http://www.w3.org/1999/xlink" xmlns="http://www.w3.org/2000/svg"><clipPath id="p.0"><path d="m0 0l512.0 0l0 512.0l-512.0 0l0 -512.0z" clip-rule="nonzero"/></clipPath><g clip-path="url(#p.0)"><path fill="#000000" fill-opacity="0.0" d="m0 0l512.0 0l0 512.0l-512.0 0z" fill-rule="evenodd"/><path fill="#ffffff" d="m-566.81104 12.409449l511.68506 0l0 511.68503l-511.68506 0z" fill-rule="evenodd"/><path fill="#4ec1f5" d="m124.655304 344.886l0 0c0 -83.454895 59.45732 -151.10844 132.80164 -151.10844l0 0c35.22119 0 68.99982 15.920303 93.90497 44.258636c24.90512 28.338333 38.896698 66.77336 38.896698 106.84981l0 0c0 83.454895 -59.457336 151.10846 -132.80167 151.10846l0 0c-73.344315 0 -132.80164 -67.653564 -132.80164 -151.10846z" fill-rule="evenodd"/><path fill="#4ec1f5" d="m236.49078 39.883343l0 0c0 -13.187344 9.386871 -23.877796 20.966156 -23.877796l0 0c5.5605774 0 10.893402 2.515688 14.825348 6.993643c3.9319153 4.477957 6.1408386 10.551367 6.1408386 16.884153l0 0c0 13.18734 -9.386871 23.877792 -20.966187 23.877792l0 0c-11.579285 0 -20.966156 -10.690453 -20.966156 -23.877792z" fill-rule="evenodd"/><path fill="#4ec1f5" d="m140.38391 274.90778l97.659195 -244.36752l38.430313 0l-97.659195 244.36752z" fill-rule="evenodd"/><path fill="#4ec1f5" d="m374.41364 274.90778l-97.65918 -244.36752l-38.43033 0l97.65921 244.36752z" fill-rule="evenodd"/><path fill="#4ec1f5" d="m199.8992 210.42868l56.58484 -136.6461l56.58484 136.6461z" fill-rule="evenodd"/><path fill="#b3e2fb" d="m219.82605 366.69943l0 0c-20.07956 4.1660156 -39.64267 -13.205963 -43.69542 -38.80139c-4.0527496 -25.595459 8.939545 -49.721863 29.019089 -53.887848l0 0c-1.381073 31.677063 3.6707306 63.582092 14.676331 92.68924z" fill-rule="evenodd"/><path fill="#b3e2fb" d="m174.75969 387.4884l0 0c0 -16.484161 11.733597 -29.847229 26.207718 -29.847229l0 0c6.950714 0 13.616745 3.1446228 18.531647 8.742065c4.9149017 5.5974426 7.676071 13.189209 7.676071 21.105164l0 0c0 16.484192 -11.733597 29.84726 -26.207718 29.84726l0 0c-14.474121 0 -26.207718 -13.363068 -26.207718 -29.84726z" fill-rule="evenodd"/><path fill="#b3e2fb" d="m188.40062 269.64703l0 0c0 -5.574646 3.9680786 -10.0937805 8.862961 -10.0937805l0 0c2.3506165 0 4.60495 1.063446 6.2670746 2.9563904c1.6621246 1.8929749 2.5959015 4.4603577 2.5959015 7.13739l0 0c0 5.574646 -3.9680786 10.093811 -8.862976 10.093811l0 0c-4.894882 0 -8.862961 -4.519165 -8.862961 -10.093811z" fill-rule="evenodd"/><path fill="#b3e2fb" d="m181.24194 407.76938l0 0c-17.09607 -16.491455 -25.88153 -41.417786 -24.232132 -68.75195c1.6493835 -27.334137 13.583496 -54.58777 32.916733 -75.17108l12.315933 14.3714905c-15.792831 16.68396 -25.727783 38.58908 -27.381012 60.371185c-1.6532135 21.782104 5.127289 41.43817 18.687302 54.1727z" fill-rule="evenodd"/><path fill="#b3e2fb" d="m168.79149 325.6255l30.925095 0l0 48.62387l-30.925095 0z" fill-rule="evenodd"/></g></svg>