<?xml version="1.0" encoding="UTF-8"?>
<svg xmlns="http://www.w3.org/2000/svg" xmlns:xlink="http://www.w3.org/1999/xlink" width="512px" height="512px" viewBox="0 0 512 512" version="1.1">
<g id="surface1">
<path style=" stroke:none;fill-rule:evenodd;fill:rgb(30.588235%,75.686275%,96.078431%);fill-opacity:1;" d="M 115.648438 349.496094 C 115.648438 261.714844 178.53125 190.550781 256.101562 190.550781 C 293.355469 190.550781 329.078125 207.296875 355.421875 237.105469 C 381.761719 266.914062 396.558594 307.34375 396.558594 349.496094 C 396.558594 437.28125 333.675781 508.445312 256.101562 508.445312 C 178.53125 508.445312 115.648438 437.28125 115.648438 349.496094 Z M 115.648438 349.496094 "/>
<path style=" stroke:none;fill-rule:evenodd;fill:rgb(30.588235%,75.686275%,96.078431%);fill-opacity:1;" d="M 233.929688 28.667969 C 233.929688 14.796875 243.855469 3.554688 256.101562 3.554688 C 261.984375 3.554688 267.625 6.199219 271.78125 10.910156 C 275.941406 15.621094 278.277344 22.007812 278.277344 28.667969 C 278.277344 42.542969 268.347656 53.785156 256.101562 53.785156 C 243.855469 53.785156 233.929688 42.542969 233.929688 28.667969 Z M 233.929688 28.667969 "/>
<path style=" stroke:none;fill-rule:evenodd;fill:rgb(30.588235%,75.686275%,96.078431%);fill-opacity:1;" d="M 132.28125 275.890625 L 235.570312 18.84375 L 276.214844 18.84375 L 172.925781 275.890625 Z M 132.28125 275.890625 "/>
<path style=" stroke:none;fill-rule:evenodd;fill:rgb(30.588235%,75.686275%,96.078431%);fill-opacity:1;" d="M 379.800781 275.890625 L 276.511719 18.84375 L 235.867188 18.84375 L 339.15625 275.890625 Z M 379.800781 275.890625 "/>
<path style=" stroke:none;fill-rule:evenodd;fill:rgb(30.588235%,75.686275%,96.078431%);fill-opacity:1;" d="M 195.226562 208.0625 L 255.074219 64.328125 L 314.917969 208.0625 Z M 195.226562 208.0625 "/>
<path style=" stroke:none;fill-rule:evenodd;fill:rgb(70.196078%,88.627451%,98.431373%);fill-opacity:1;" d="M 216.304688 372.441406 C 195.066406 376.824219 174.375 358.550781 170.089844 331.628906 C 165.800781 304.707031 179.542969 279.328125 200.78125 274.945312 C 199.320312 308.265625 204.664062 341.824219 216.304688 372.441406 Z M 216.304688 372.441406 "/>
<path style=" stroke:none;fill-rule:evenodd;fill:rgb(70.196078%,88.627451%,98.431373%);fill-opacity:1;" d="M 168.640625 394.3125 C 168.640625 376.972656 181.046875 362.914062 196.355469 362.914062 C 203.707031 362.914062 210.757812 366.222656 215.957031 372.109375 C 221.15625 378 224.074219 385.984375 224.074219 394.3125 C 224.074219 411.648438 211.664062 425.707031 196.355469 425.707031 C 181.046875 425.707031 168.640625 411.648438 168.640625 394.3125 Z M 168.640625 394.3125 "/>
<path style=" stroke:none;fill-rule:evenodd;fill:rgb(70.196078%,88.627451%,98.431373%);fill-opacity:1;" d="M 183.066406 270.355469 C 183.066406 264.492188 187.261719 259.738281 192.441406 259.738281 C 194.925781 259.738281 197.308594 260.855469 199.066406 262.847656 C 200.824219 264.839844 201.8125 267.539062 201.8125 270.355469 C 201.8125 276.21875 197.617188 280.972656 192.441406 280.972656 C 187.261719 280.972656 183.066406 276.21875 183.066406 270.355469 Z M 183.066406 270.355469 "/>
<path style=" stroke:none;fill-rule:evenodd;fill:rgb(70.196078%,88.627451%,98.431373%);fill-opacity:1;" d="M 175.503906 415.652344 C 157.417969 398.304688 148.121094 372.085938 149.867188 343.328125 C 151.609375 314.574219 164.234375 285.902344 184.683594 264.25 L 197.707031 279.367188 C 181 296.921875 170.484375 319.96875 168.734375 342.886719 C 166.984375 365.804688 174.160156 386.484375 188.507812 399.878906 Z M 175.503906 415.652344 "/>
<path style=" stroke:none;fill-rule:evenodd;fill:rgb(70.196078%,88.627451%,98.431373%);fill-opacity:1;" d="M 162.328125 329.238281 L 195.035156 329.238281 L 195.035156 380.386719 L 162.328125 380.386719 Z M 162.328125 329.238281 "/>
</g>
</svg>
