<?xml version="1.0" encoding="UTF-8"?>
<svg xmlns="http://www.w3.org/2000/svg" xmlns:xlink="http://www.w3.org/1999/xlink" width="512px" height="512px" viewBox="0 0 512 512" version="1.1">
<g id="surface1">
<path style=" stroke:none;fill-rule:evenodd;fill:rgb(30.588235%,75.686275%,96.078431%);fill-opacity:1;" d="M 165.164062 317.378906 C 165.164062 259.75 206.285156 213.03125 257.007812 213.03125 C 281.367188 213.03125 304.726562 224.027344 321.949219 243.59375 C 339.175781 263.164062 348.851562 289.703125 348.851562 317.378906 C 348.851562 375.007812 307.730469 421.726562 257.007812 421.726562 C 206.285156 421.726562 165.164062 375.007812 165.164062 317.378906 Z M 165.164062 317.378906 "/>
<path style=" stroke:none;fill-rule:evenodd;fill:rgb(30.588235%,75.686275%,96.078431%);fill-opacity:1;" d="M 242.507812 106.761719 C 242.507812 97.65625 249 90.273438 257.007812 90.273438 C 260.851562 90.273438 264.542969 92.011719 267.261719 95.105469 C 269.980469 98.195312 271.507812 102.390625 271.507812 106.761719 C 271.507812 115.871094 265.015625 123.25 257.007812 123.25 C 249 123.25 242.507812 115.871094 242.507812 106.761719 Z M 242.507812 106.761719 "/>
<path style=" stroke:none;fill-rule:evenodd;fill:rgb(30.588235%,75.686275%,96.078431%);fill-opacity:1;" d="M 176.042969 269.054688 L 243.582031 100.3125 L 270.160156 100.3125 L 202.621094 269.054688 Z M 176.042969 269.054688 "/>
<path style=" stroke:none;fill-rule:evenodd;fill:rgb(30.588235%,75.686275%,96.078431%);fill-opacity:1;" d="M 337.894531 269.054688 L 270.351562 100.3125 L 243.777344 100.3125 L 311.316406 269.054688 Z M 337.894531 269.054688 "/>
<path style=" stroke:none;fill-rule:evenodd;fill:rgb(30.588235%,75.686275%,96.078431%);fill-opacity:1;" d="M 217.203125 224.53125 L 256.335938 130.171875 L 295.46875 224.53125 Z M 217.203125 224.53125 "/>
<path style=" stroke:none;fill-rule:evenodd;fill:rgb(70.196078%,88.627451%,98.431373%);fill-opacity:1;" d="M 230.984375 332.441406 C 217.097656 335.320312 203.566406 323.324219 200.761719 305.648438 C 197.960938 287.972656 206.945312 271.3125 220.832031 268.4375 C 219.878906 290.3125 223.371094 312.34375 230.984375 332.441406 Z M 230.984375 332.441406 "/>
<path style=" stroke:none;fill-rule:evenodd;fill:rgb(70.196078%,88.627451%,98.431373%);fill-opacity:1;" d="M 199.816406 346.796875 C 199.816406 335.414062 207.929688 326.1875 217.941406 326.1875 C 222.746094 326.1875 227.355469 328.359375 230.757812 332.222656 C 234.15625 336.089844 236.066406 341.332031 236.066406 346.796875 C 236.066406 358.179688 227.949219 367.410156 217.941406 367.410156 C 207.929688 367.410156 199.816406 358.179688 199.816406 346.796875 Z M 199.816406 346.796875 "/>
<path style=" stroke:none;fill-rule:evenodd;fill:rgb(70.196078%,88.627451%,98.431373%);fill-opacity:1;" d="M 209.25 265.425781 C 209.25 261.574219 211.992188 258.453125 215.378906 258.453125 C 217.003906 258.453125 218.5625 259.1875 219.714844 260.496094 C 220.863281 261.800781 221.507812 263.574219 221.507812 265.425781 C 221.507812 269.273438 218.765625 272.394531 215.378906 272.394531 C 211.992188 272.394531 209.25 269.273438 209.25 265.425781 Z M 209.25 265.425781 "/>
<path style=" stroke:none;fill-rule:evenodd;fill:rgb(70.196078%,88.627451%,98.431373%);fill-opacity:1;" d="M 204.300781 360.804688 C 192.476562 349.417969 186.398438 332.203125 187.539062 313.328125 C 188.679688 294.453125 196.933594 275.632812 210.304688 261.417969 L 218.824219 271.339844 C 207.898438 282.863281 201.027344 297.992188 199.882812 313.035156 C 198.738281 328.074219 203.429688 341.648438 212.808594 350.441406 Z M 204.300781 360.804688 "/>
<path style=" stroke:none;fill-rule:evenodd;fill:rgb(70.196078%,88.627451%,98.431373%);fill-opacity:1;" d="M 195.6875 304.078125 L 217.074219 304.078125 L 217.074219 337.65625 L 195.6875 337.65625 Z M 195.6875 304.078125 "/>
</g>
</svg>
