<svg version="1.1" viewBox="0.0 0.0 96.0 96.0" fill="none" stroke="none" stroke-linecap="square" stroke-miterlimit="10" xmlns:xlink="http://www.w3.org/1999/xlink" xmlns="http://www.w3.org/2000/svg"><clipPath id="p.0"><path d="m0 0l96.0 0l0 96.0l-96.0 0l0 -96.0z" clip-rule="nonzero"/></clipPath><g clip-path="url(#p.0)"><path fill="#000000" fill-opacity="0.0" d="m0 0l96.0 0l0 96.0l-96.0 0z" fill-rule="evenodd"/><path fill="#009fdf" d="m7.929134E-4 48.000805l0 0c0 -26.50967 21.490332 -48.0 48.0 -48.0l0 0c12.730392 0 24.939377 5.0571284 33.941124 14.058875c9.001747 9.001746 14.058876 21.210735 14.058876 33.941128l0 0c0 26.509663 -21.490334 47.999996 -48.0 47.999996l0 0c-26.509668 0 -48.0 -21.490334 -48.0 -47.999996z" fill-rule="evenodd"/><path fill="#ffffff" d="m25.326265 34.63357l42.482872 -4.378809l2.8630676 27.283354l-42.482872 4.378807z" fill-rule="evenodd"/><path fill="#ffffff" d="m55.34095 59.045853l-4.610382 10.125999l-6.547161 -8.989193z" fill-rule="evenodd"/></g></svg>