<svg version="1.1" viewBox="0.0 0.0 249.6010498687664 384.0" fill="none" stroke="none" stroke-linecap="square" stroke-miterlimit="10" xmlns:xlink="http://www.w3.org/1999/xlink" xmlns="http://www.w3.org/2000/svg"><clipPath id="p.0"><path d="m0 0l249.60104 0l0 384.0l-249.60104 0l0 -384.0z" clip-rule="nonzero"/></clipPath><g clip-path="url(#p.0)"><path fill="#000000" fill-opacity="0.0" d="m0 0l249.60104 0l0 384.0l-249.60104 0z" fill-rule="evenodd"/><path fill="#ffffff" d="m243.00401 366.94528l-197.00708 0l0 0c-10.450153 0 -20.4723 -4.151306 -27.861677 -11.54068c-7.3893757 -7.3894043 -11.540684 -17.41153 -11.540684 -27.861694l0 -310.4882l236.40945 0z" fill-rule="evenodd"/><path stroke="#cccccc" stroke-width="8.0" stroke-linejoin="round" stroke-linecap="butt" d="m243.00401 366.94528l-197.00708 0l0 0c-10.450153 0 -20.4723 -4.151306 -27.861677 -11.54068c-7.3893757 -7.3894043 -11.540684 -17.41153 -11.540684 -27.861694l0 -310.4882l236.40945 0z" fill-rule="evenodd"/><path fill="#ffffff" d="m148.2796 251.80861l-52.220474 -60.29416l52.220474 -60.29416z" fill-rule="evenodd"/><path stroke="#666666" stroke-width="8.0" stroke-linejoin="round" stroke-linecap="butt" d="m148.2796 251.80861l-52.220474 -60.29416l52.220474 -60.29416z" fill-rule="evenodd"/><path fill="#ffffff" d="m132.23236 125.03722l40.629913 0l0 139.5432l-40.629913 0z" fill-rule="evenodd"/></g></svg>