<svg xmlns="http://www.w3.org/2000/svg" width="512" height="512"><rect id="backgroundrect" width="100%" height="100%" x="0" y="0" fill="none" stroke="none"/><!--! Font Awesome Pro 6.3.0 by @fontawesome - https://fontawesome.com License - https://fontawesome.com/license (Commercial License) Copyright 2023 Fonticons, Inc. --><g class="currentLayer" style=""><title>Layer 1</title><path d="M32 32C14.3 32 0 46.3 0 64S14.3 96 32 96H480c17.7 0 32-14.3 32-32s-14.3-32-32-32H32zm0 384c-17.7 0-32 14.3-32 32s14.3 32 32 32H96h64V352c0-53 43-96 96-96s96 43 96 96V480h64 64c17.7 0 32-14.3 32-32s-14.3-32-32-32V128H32V416z" id="svg_1" class="" fill-opacity="1" fill="#ffc107"/></g></svg>