<svg version="1.1" viewBox="0.0 0.0 96.0 96.0" fill="none" stroke="none" stroke-linecap="square" stroke-miterlimit="10" xmlns:xlink="http://www.w3.org/1999/xlink" xmlns="http://www.w3.org/2000/svg"><clipPath id="p.0"><path d="m0 0l96.0 0l0 96.0l-96.0 0l0 -96.0z" clip-rule="nonzero"/></clipPath><g clip-path="url(#p.0)"><path fill="#000000" fill-opacity="0.0" d="m0 0l96.0 0l0 96.0l-96.0 0z" fill-rule="evenodd"/><path fill="#3c78d8" d="m7.929134E-4 47.99929l0 0c0 -26.508833 21.489655 -47.998486 47.99849 -47.998486l0 0c12.729988 0 24.938591 5.056969 33.940056 14.058432c9.001465 9.001463 14.058434 21.210068 14.058434 33.940056l0 0c0 26.508835 -21.489655 47.99849 -47.99849 47.99849l0 0c-26.508835 0 -47.99849 -21.489655 -47.99849 -47.99849z" fill-rule="evenodd"/><path fill="#ffffff" d="m25.326265 34.734627l42.482872 -4.378811l2.8630676 27.283352l-42.482872 4.378811z" fill-rule="evenodd"/><path fill="#ffffff" d="m55.34095 59.045853l-4.610382 10.125999l-6.547161 -8.989193z" fill-rule="evenodd"/></g></svg>