<svg version="1.1" viewBox="0.0 0.0 480.0 480.0" fill="none" stroke="none" stroke-linecap="square" stroke-miterlimit="10" xmlns:xlink="http://www.w3.org/1999/xlink" xmlns="http://www.w3.org/2000/svg"><clipPath id="p.0"><path d="m0 0l480.0 0l0 480.0l-480.0 0l0 -480.0z" clip-rule="nonzero"/></clipPath><g clip-path="url(#p.0)"><path fill="#000000" fill-opacity="0.0" d="m0 0l480.0 0l0 480.0l-480.0 0z" fill-rule="evenodd"/><path fill="#efefef" d="m405.66797 149.41733l74.33072 0l0 311.27557l-74.33072 0z" fill-rule="evenodd"/><path fill="#ffffff" d="m364.10104 326.9793l0 0c0 -7.047943 5.713501 -12.761475 12.761475 -12.761475l86.351074 0c3.384552 0 6.630493 1.3445129 9.023712 3.7377625c2.3932495 2.3932495 3.7377625 5.63916 3.7377625 9.023712l0 86.351074c0 7.0479736 -5.713501 12.761475 -12.761475 12.761475l-86.351074 0c-7.0479736 0 -12.761475 -5.713501 -12.761475 -12.761475z" fill-rule="evenodd"/><path stroke="#cccccc" stroke-width="3.0" stroke-linejoin="round" stroke-linecap="butt" d="m364.10104 326.9793l0 0c0 -7.047943 5.713501 -12.761475 12.761475 -12.761475l86.351074 0c3.384552 0 6.630493 1.3445129 9.023712 3.7377625c2.3932495 2.3932495 3.7377625 5.63916 3.7377625 9.023712l0 86.351074c0 7.0479736 -5.713501 12.761475 -12.761475 12.761475l-86.351074 0c-7.0479736 0 -12.761475 -5.713501 -12.761475 -12.761475z" fill-rule="evenodd"/><path fill="#ffffff" d="m479.1404 149.41733l-98.50354 0l0 0c-5.225067 0 -10.236145 -2.075653 -13.930847 -5.77034c-3.6946716 -3.6947021 -5.7703247 -8.705765 -5.7703247 -13.930847l0 -129.71614l118.20471 0z" fill-rule="evenodd"/><path stroke="#cccccc" stroke-width="3.0" stroke-linejoin="round" stroke-linecap="butt" d="m479.1404 149.41733l-98.50354 0l0 0c-5.225067 0 -10.236145 -2.075653 -13.930847 -5.77034c-3.6946716 -3.6947021 -5.7703247 -8.705765 -5.7703247 -13.930847l0 -129.71614l118.20471 0z" fill-rule="evenodd"/><path fill="#ffffff" d="m364.10104 194.457l0 0c0 -7.0479584 5.713501 -12.761459 12.761475 -12.761459l86.351074 0c3.384552 0 6.630493 1.3444977 9.023712 3.7377472c2.3932495 2.3932343 3.7377625 5.63916 3.7377625 9.023712l0 86.351074c0 7.0479736 -5.713501 12.761475 -12.761475 12.761475l-86.351074 0c-7.0479736 0 -12.761475 -5.713501 -12.761475 -12.761475z" fill-rule="evenodd"/><path stroke="#cccccc" stroke-width="3.0" stroke-linejoin="round" stroke-linecap="butt" d="m364.10104 194.457l0 0c0 -7.0479584 5.713501 -12.761459 12.761475 -12.761459l86.351074 0c3.384552 0 6.630493 1.3444977 9.023712 3.7377472c2.3932495 2.3932343 3.7377625 5.63916 3.7377625 9.023712l0 86.351074c0 7.0479736 -5.713501 12.761475 -12.761475 12.761475l-86.351074 0c-7.0479736 0 -12.761475 -5.713501 -12.761475 -12.761475z" fill-rule="evenodd"/><path fill="#ffffff" d="m392.73834 237.63255l0 0c0 -11.193558 12.176453 -20.26773 27.196869 -20.26773l0 0c15.020386 0 27.196838 9.074173 27.196838 20.26773l0 0c0 11.1935425 -12.176453 20.267715 -27.196838 20.267715l0 0c-15.020416 0 -27.196869 -9.074173 -27.196869 -20.267715z" fill-rule="evenodd"/><path stroke="#666666" stroke-width="4.0" stroke-linejoin="round" stroke-linecap="butt" d="m392.73834 237.63255l0 0c0 -11.193558 12.176453 -20.26773 27.196869 -20.26773l0 0c15.020386 0 27.196838 9.074173 27.196838 20.26773l0 0c0 11.1935425 -12.176453 20.267715 -27.196838 20.267715l0 0c-15.020416 0 -27.196869 -9.074173 -27.196869 -20.267715z" fill-rule="evenodd"/><path fill="#666666" d="m414.25015 237.63255l0 0c0 -3.1397705 2.545288 -5.6850433 5.6850586 -5.6850433l0 0c1.5077515 0 2.9537659 0.59895325 4.019928 1.6651001c1.0661316 1.0661621 1.6651001 2.5121765 1.6651001 4.019943l0 0c0 3.1397552 -2.545288 5.685028 -5.685028 5.685028l0 0c-3.1397705 0 -5.6850586 -2.5452728 -5.6850586 -5.685028z" fill-rule="evenodd"/><path stroke="#666666" stroke-width="4.0" stroke-linejoin="round" stroke-linecap="butt" d="m414.25015 237.63255l0 0c0 -3.1397705 2.545288 -5.6850433 5.6850586 -5.6850433l0 0c1.5077515 0 2.9537659 0.59895325 4.019928 1.6651001c1.0661316 1.0661621 1.6651001 2.5121765 1.6651001 4.019943l0 0c0 3.1397552 -2.545288 5.685028 -5.685028 5.685028l0 0c-3.1397705 0 -5.6850586 -2.5452728 -5.6850586 -5.685028z" fill-rule="evenodd"/><path fill="#ffffff" d="m392.04068 348.76508l0 0c0 -3.2071533 2.5999146 -5.807068 5.8070984 -5.807068l44.543335 0c1.5401306 0 3.0171814 0.6118164 4.106201 1.7008362c1.0890503 1.0890503 1.7008667 2.566101 1.7008667 4.1062317l0 42.77957c0 3.2071533 -2.5999146 5.807068 -5.807068 5.807068l-44.543335 0c-3.2071838 0 -5.8070984 -2.5999146 -5.8070984 -5.807068z" fill-rule="evenodd"/><path stroke="#666666" stroke-width="4.0" stroke-linejoin="round" stroke-linecap="butt" d="m392.04068 348.76508l0 0c0 -3.2071533 2.5999146 -5.807068 5.8070984 -5.807068l44.543335 0c1.5401306 0 3.0171814 0.6118164 4.106201 1.7008362c1.0890503 1.0890503 1.7008667 2.566101 1.7008667 4.1062317l0 42.77957c0 3.2071533 -2.5999146 5.807068 -5.807068 5.807068l-44.543335 0c-3.2071838 0 -5.8070984 -2.5999146 -5.8070984 -5.807068z" fill-rule="evenodd"/><path fill="#ffffff" d="m417.54578 373.021l35.118103 0l0 27.46457l-35.118103 0z" fill-rule="evenodd"/><path fill="#ffffff" d="m417.5463 373.021l30.582703 0l-30.582703 24.314972z" fill-rule="evenodd"/><path stroke="#666666" stroke-width="4.0" stroke-linejoin="round" stroke-linecap="butt" d="m417.5463 373.021l30.582703 0l-30.582703 24.314972z" fill-rule="evenodd"/><path fill="#ffffff" d="m431.77823 100.249344l-26.11026 -25.748032l26.11026 -25.748032z" fill-rule="evenodd"/><path stroke="#666666" stroke-width="4.0" stroke-linejoin="round" stroke-linecap="butt" d="m431.77823 100.249344l-26.11026 -25.748032l26.11026 -25.748032z" fill-rule="evenodd"/><path fill="#ffffff" d="m423.7546 46.11286l20.314941 0l0 59.590553l-20.314941 0z" fill-rule="evenodd"/></g></svg>