<svg version="1.1" viewBox="0.0 0.0 120.0 480.0" fill="none" stroke="none" stroke-linecap="square" stroke-miterlimit="10" xmlns:xlink="http://www.w3.org/1999/xlink" xmlns="http://www.w3.org/2000/svg"><clipPath id="p.0"><path d="m0 0l120.0 0l0 480.0l-120.0 0l0 -480.0z" clip-rule="nonzero"/></clipPath><g clip-path="url(#p.0)"><path fill="#000000" fill-opacity="0.0" d="m0 0l120.0 0l0 480.0l-120.0 0z" fill-rule="evenodd"/><path fill="#efefef" d="m48.076115 145.57744l71.92239 0l0 334.41272l-71.92239 0z" fill-rule="evenodd"/><path fill="#ffffff" d="m7.856225 317.40274l0 0c0 -6.8196106 5.528387 -12.347992 12.347997 -12.347992l83.5533 0c3.2748947 0 6.415657 1.3009338 8.731354 3.6166382c2.3156967 2.3157043 3.6166458 5.4564514 3.6166458 8.731354l0 83.56448c0 6.8196106 -5.528389 12.347992 -12.348 12.347992l-83.5533 0c-6.8196096 0 -12.347997 -5.5283813 -12.347997 -12.347992z" fill-rule="evenodd"/><path stroke="#cccccc" stroke-width="3.0" stroke-linejoin="round" stroke-linecap="butt" d="m7.856225 317.40274l0 0c0 -6.8196106 5.528387 -12.347992 12.347997 -12.347992l83.5533 0c3.2748947 0 6.415657 1.3009338 8.731354 3.6166382c2.3156967 2.3157043 3.6166458 5.4564514 3.6166458 8.731354l0 83.56448c0 6.8196106 -5.528389 12.347992 -12.348 12.347992l-83.5533 0c-6.8196096 0 -12.347997 -5.5283813 -12.347997 -12.347992z" fill-rule="evenodd"/><path fill="#ffffff" d="m119.16832 145.57727l-95.31203 0l0 0c-5.055784 0 -9.904499 -2.0084076 -13.479479 -5.5833893c-3.5749807 -3.5749817 -5.5833836 -8.423691 -5.5833836 -13.479477l0 -125.528275l114.37489 0z" fill-rule="evenodd"/><path stroke="#cccccc" stroke-width="3.0" stroke-linejoin="round" stroke-linecap="butt" d="m119.16832 145.57727l-95.31203 0l0 0c-5.055784 0 -9.904499 -2.0084076 -13.479479 -5.5833893c-3.5749807 -3.5749817 -5.5833836 -8.423691 -5.5833836 -13.479477l0 -125.528275l114.37489 0z" fill-rule="evenodd"/><path fill="#ffffff" d="m7.856225 189.16089l0 0c0 -6.8196106 5.528387 -12.347992 12.347997 -12.347992l83.5533 0c3.2748947 0 6.415657 1.3009491 8.731354 3.6166534c2.3156967 2.315689 3.6166458 5.4564514 3.6166458 8.7313385l0 83.56448c0 6.8196106 -5.528389 12.348022 -12.348 12.348022l-83.5533 0c-6.8196096 0 -12.347997 -5.528412 -12.347997 -12.348022z" fill-rule="evenodd"/><path stroke="#cccccc" stroke-width="3.0" stroke-linejoin="round" stroke-linecap="butt" d="m7.856225 189.16089l0 0c0 -6.8196106 5.528387 -12.347992 12.347997 -12.347992l83.5533 0c3.2748947 0 6.415657 1.3009491 8.731354 3.6166534c2.3156967 2.315689 3.6166458 5.4564514 3.6166458 8.7313385l0 83.56448c0 6.8196106 -5.528389 12.348022 -12.348 12.348022l-83.5533 0c-6.8196096 0 -12.347997 -5.528412 -12.347997 -12.348022z" fill-rule="evenodd"/><path fill="#ffffff" d="m35.56568 230.94315l0 0c0 -10.832001 11.781925 -19.613068 26.31567 -19.613068l0 0c14.533749 0 26.31567 8.781067 26.31567 19.613068l0 0c0 10.832001 -11.781921 19.613068 -26.31567 19.613068l0 0c-14.533745 0 -26.31567 -8.781067 -26.31567 -19.613068z" fill-rule="evenodd"/><path stroke="#666666" stroke-width="4.0" stroke-linejoin="round" stroke-linecap="butt" d="m35.56568 230.94315l0 0c0 -10.832001 11.781925 -19.613068 26.31567 -19.613068l0 0c14.533749 0 26.31567 8.781067 26.31567 19.613068l0 0c0 10.832001 -11.781921 19.613068 -26.31567 19.613068l0 0c-14.533745 0 -26.31567 -8.781067 -26.31567 -19.613068z" fill-rule="evenodd"/><path fill="#666666" d="m56.38051 230.94315l0 0c0 -3.0383453 2.4628105 -5.501419 5.500843 -5.501419l0 0c1.4589157 0 2.8580742 0.57962036 3.8896828 1.6113281c1.0316086 1.0317078 1.6111603 2.431015 1.6111603 3.890091l0 0c0 3.0383453 -2.4628067 5.501404 -5.500843 5.501404l0 0c-3.0380325 0 -5.500843 -2.4630585 -5.500843 -5.501404z" fill-rule="evenodd"/><path stroke="#666666" stroke-width="4.0" stroke-linejoin="round" stroke-linecap="butt" d="m56.38051 230.94315l0 0c0 -3.0383453 2.4628105 -5.501419 5.500843 -5.501419l0 0c1.4589157 0 2.8580742 0.57962036 3.8896828 1.6113281c1.0316086 1.0317078 1.6111603 2.431015 1.6111603 3.890091l0 0c0 3.0383453 -2.4628067 5.501404 -5.500843 5.501404l0 0c-3.0380325 0 -5.500843 -2.4630585 -5.500843 -5.501404z" fill-rule="evenodd"/><path fill="#ffffff" d="m34.890625 338.48608l0 0c0 -3.1035461 2.5159378 -5.619507 5.619503 -5.619507l43.098972 0c1.490387 0 2.9197235 0.59207153 3.973587 1.645935c1.0538635 1.0538635 1.6459122 2.4831848 1.6459122 3.9735718l0 41.397797c0 3.1035461 -2.5159302 5.619507 -5.619499 5.619507l-43.098972 0c-3.1035652 0 -5.619503 -2.5159607 -5.619503 -5.619507z" fill-rule="evenodd"/><path stroke="#666666" stroke-width="4.0" stroke-linejoin="round" stroke-linecap="butt" d="m34.890625 338.48608l0 0c0 -3.1035461 2.5159378 -5.619507 5.619503 -5.619507l43.098972 0c1.490387 0 2.9197235 0.59207153 3.973587 1.645935c1.0538635 1.0538635 1.6459122 2.4831848 1.6459122 3.9735718l0 41.397797c0 3.1035461 -2.5159302 5.619507 -5.619499 5.619507l-43.098972 0c-3.1035652 0 -5.619503 -2.5159607 -5.619503 -5.619507z" fill-rule="evenodd"/><path fill="#ffffff" d="m59.569336 361.95856l33.980286 0l0 26.577454l-33.980286 0z" fill-rule="evenodd"/><path fill="#ffffff" d="m59.569855 361.95856l29.591797 0l-29.591797 23.529572z" fill-rule="evenodd"/><path stroke="#666666" stroke-width="4.0" stroke-linejoin="round" stroke-linecap="butt" d="m59.569855 361.95856l29.591797 0l-29.591797 23.529572z" fill-rule="evenodd"/><path fill="#ffffff" d="m73.34065 97.99741l-25.264267 -24.916367l25.264267 -24.91637z" fill-rule="evenodd"/><path stroke="#666666" stroke-width="4.0" stroke-linejoin="round" stroke-linecap="butt" d="m73.34065 97.99741l-25.264267 -24.916367l25.264267 -24.91637z" fill-rule="evenodd"/><path fill="#ffffff" d="m65.576996 45.609543l19.656754 0l0 57.66578l-19.656754 0z" fill-rule="evenodd"/></g></svg>