<svg version="1.1" viewBox="0.0 0.0 192.0 96.0" fill="none" stroke="none" stroke-linecap="square" stroke-miterlimit="10" xmlns:xlink="http://www.w3.org/1999/xlink" xmlns="http://www.w3.org/2000/svg"><clipPath id="p.0"><path d="m0 0l192.0 0l0 96.0l-192.0 0l0 -96.0z" clip-rule="nonzero"/></clipPath><g clip-path="url(#p.0)"><path fill="#000000" fill-opacity="0.0" d="m0 0l192.0 0l0 96.0l-192.0 0z" fill-rule="evenodd"/><path fill="#ffffff" d="m192.14436 96.19423l-192.18898 -0.12598419l0 -96.062996l192.18898 0.12598425z" fill-rule="evenodd"/><path fill="#000000" fill-opacity="0.0" d="m109.70889 56.14606l-4.7873993 8.346455l-4.7873993 -8.346455z" fill-rule="evenodd"/><path stroke="#1155cc" stroke-width="3.0" stroke-linejoin="round" stroke-linecap="butt" d="m109.70889 56.14606l-4.7873993 8.346455l-4.7873993 -8.346455z" fill-rule="evenodd"/><path fill="#000000" fill-opacity="0.0" d="m109.70379 39.85394l-4.7873993 -8.346457l-4.7873993 8.346457z" fill-rule="evenodd"/><path stroke="#1155cc" stroke-width="3.0" stroke-linejoin="round" stroke-linecap="butt" d="m109.70379 39.85394l-4.7873993 -8.346457l-4.7873993 8.346457z" fill-rule="evenodd"/><path fill="#000000" fill-opacity="0.0" d="m95.35316 47.816055l-4.7873993 8.330708l9.574806 0.01574707z" fill-rule="evenodd"/><path stroke="#1155cc" stroke-width="3.0" stroke-linejoin="round" stroke-linecap="butt" d="m95.35316 47.816055l-4.7873993 8.330708l9.574806 0.01574707z" fill-rule="evenodd"/><path fill="#000000" fill-opacity="0.0" d="m114.45139 47.816055l-4.7873993 8.330708l9.574806 0.01574707z" fill-rule="evenodd"/><path stroke="#1155cc" stroke-width="3.0" stroke-linejoin="round" stroke-linecap="butt" d="m114.45139 47.816055l-4.7873993 8.330708l9.574806 0.01574707z" fill-rule="evenodd"/><path fill="#000000" fill-opacity="0.0" d="m95.34913 48.10982l-4.8031464 -8.330708l9.5590515 -0.01574707z" fill-rule="evenodd"/><path stroke="#1155cc" stroke-width="3.0" stroke-linejoin="round" stroke-linecap="butt" d="m95.34913 48.10982l-4.8031464 -8.330708l9.5590515 -0.01574707z" fill-rule="evenodd"/><path fill="#000000" fill-opacity="0.0" d="m114.447365 48.10982l-4.8031464 -8.330708l9.5590515 -0.01574707z" fill-rule="evenodd"/><path stroke="#1155cc" stroke-width="3.0" stroke-linejoin="round" stroke-linecap="butt" d="m114.447365 48.10982l-4.8031464 -8.330708l9.5590515 -0.01574707z" fill-rule="evenodd"/><path fill="#1155cc" d="m-0.14698163 81.28471l0 -8.314957l193.35434 0.06298828l0 8.314964z" fill-rule="evenodd"/><path fill="#1155cc" d="m-0.39632547 22.956045l0 -8.31496l193.03938 0.062992096l0 8.31496z" fill-rule="evenodd"/></g></svg>