<svg version="1.1" viewBox="0.0 0.0 96.0 96.0" fill="none" stroke="none" stroke-linecap="square" stroke-miterlimit="10" xmlns:xlink="http://www.w3.org/1999/xlink" xmlns="http://www.w3.org/2000/svg"><clipPath id="p.0"><path d="m0 0l96.0 0l0 96.0l-96.0 0l0 -96.0z" clip-rule="nonzero"/></clipPath><g clip-path="url(#p.0)"><path fill="#000000" fill-opacity="0.0" d="m0 0l96.0 0l0 96.0l-96.0 0z" fill-rule="evenodd"/><path fill="#ffffff" d="m-0.97365016 9.650814l86.67716 86.77165l-31.748032 31.748032l-86.67717 -86.77165z" fill-rule="evenodd"/><path fill="#000000" fill-opacity="0.0" d="m28.95034 59.92823l9.28904 -2.5112114l-2.5112114 9.289036z" fill-rule="evenodd"/><path stroke="#1155cc" stroke-width="3.0" stroke-linejoin="round" stroke-linecap="butt" d="m28.95034 59.92823l9.28904 -2.5112114l-2.5112114 9.289036z" fill-rule="evenodd"/><path fill="#000000" fill-opacity="0.0" d="m17.428307 71.450264l-2.5112123 9.28904l9.289039 -2.5112152z" fill-rule="evenodd"/><path stroke="#1155cc" stroke-width="3.0" stroke-linejoin="round" stroke-linecap="butt" d="m17.428307 71.450264l-2.5112123 9.28904l9.289039 -2.5112152z" fill-rule="evenodd"/><path fill="#000000" fill-opacity="0.0" d="m33.201286 75.98231l9.28904 -2.5112152l-6.763527 -6.763527z" fill-rule="evenodd"/><path stroke="#1155cc" stroke-width="3.0" stroke-linejoin="round" stroke-linecap="butt" d="m33.201286 75.98231l9.28904 -2.5112152l-6.763527 -6.763527z" fill-rule="evenodd"/><path fill="#000000" fill-opacity="0.0" d="m19.695679 62.4767l9.28904 -2.5112114l-6.763527 -6.763527z" fill-rule="evenodd"/><path stroke="#1155cc" stroke-width="3.0" stroke-linejoin="round" stroke-linecap="butt" d="m19.695679 62.4767l9.28904 -2.5112114l-6.763527 -6.763527z" fill-rule="evenodd"/><path fill="#000000" fill-opacity="0.0" d="m33.431946 75.75559l-2.5112133 9.28904l-6.763527 -6.763527z" fill-rule="evenodd"/><path stroke="#1155cc" stroke-width="3.0" stroke-linejoin="round" stroke-linecap="butt" d="m33.431946 75.75559l-2.5112133 9.28904l-6.763527 -6.763527z" fill-rule="evenodd"/><path fill="#000000" fill-opacity="0.0" d="m19.926338 62.249985l-2.5112114 9.28904l-6.763528 -6.763527z" fill-rule="evenodd"/><path stroke="#1155cc" stroke-width="3.0" stroke-linejoin="round" stroke-linecap="butt" d="m19.926338 62.249985l-2.5112114 9.28904l-6.763528 -6.763527z" fill-rule="evenodd"/><path fill="#1155cc" d="m98.21873 98.582275l-5.889763 5.889763l-98.48819 -98.58268l5.889764 -5.889764z" fill-rule="evenodd"/><path fill="#1155cc" d="m26.924906 99.69513l-5.889763 5.8897705l-31.968504 -32.0315l5.889764 -5.889763z" fill-rule="evenodd"/></g></svg>