<svg version="1.1" viewBox="0.0 0.0 512.0 512.0" fill="none" stroke="none" stroke-linecap="square" stroke-miterlimit="10" xmlns:xlink="http://www.w3.org/1999/xlink" xmlns="http://www.w3.org/2000/svg"><clipPath id="p.0"><path d="m0 0l512.0 0l0 512.0l-512.0 0l0 -512.0z" clip-rule="nonzero"/></clipPath><g clip-path="url(#p.0)"><path fill="#000000" fill-opacity="0.0" d="m0 0l512.0 0l0 512.0l-512.0 0z" fill-rule="evenodd"/><path fill="#ffffff" d="m9.795276 451.76642l492.40942 0l0 48.0l-492.40942 0z" fill-rule="evenodd"/><path stroke="#000000" stroke-width="8.0" stroke-linejoin="round" stroke-linecap="butt" d="m9.795276 451.76642l492.40942 0l0 48.0l-492.40942 0z" fill-rule="evenodd"/><path fill="#ffff00" d="m114.06562 403.59842l-35.85827 35.858276l-35.85827 0l71.71654 -71.71655z" fill-rule="evenodd"/><path stroke="#000000" stroke-width="4.0" stroke-linejoin="round" stroke-linecap="butt" d="m114.06562 403.59842l-35.85827 35.858276l-35.85827 0l71.71654 -71.71655z" fill-rule="evenodd"/><path fill="#000000" d="m69.45954 385.0656l0 0c-6.163677 -6.1636963 -6.163677 -16.156982 0 -22.320648l354.62424 -354.62424c2.9599 -2.9599032 6.9743958 -4.6227593 11.160339 -4.6227593c4.185913 0 8.200409 1.6628561 11.160309 4.6227593l44.639984 44.639973c6.163666 6.163681 6.163666 16.156979 0 22.32066l-354.6242 354.62424c-6.163681 6.163666 -16.156982 6.163666 -22.320663 0z" fill-rule="evenodd"/><path stroke="#000000" stroke-width="8.0" stroke-linejoin="round" stroke-linecap="butt" d="m69.45954 385.0656l0 0c-6.163677 -6.1636963 -6.163677 -16.156982 0 -22.320648l354.62424 -354.62424c2.9599 -2.9599032 6.9743958 -4.6227593 11.160339 -4.6227593c4.185913 0 8.200409 1.6628561 11.160309 4.6227593l44.639984 44.639973c6.163666 6.163681 6.163666 16.156979 0 22.32066l-354.6242 354.62424c-6.163681 6.163666 -16.156982 6.163666 -22.320663 0z" fill-rule="evenodd"/><path fill="#ffff00" d="m254.3905 200.13075l0 0c-6.163681 -6.163681 -6.163681 -16.156967 0 -22.320648l169.67932 -169.67935c2.9599304 -2.9599032 6.9743958 -4.62276 11.160339 -4.62276c4.1859436 0 8.200439 1.6628563 11.160339 4.62276l44.639954 44.639973c6.1636963 6.163681 6.1636963 16.156975 0 22.320656l-169.67932 169.67935c-6.1636963 6.163666 -16.156982 6.163666 -22.320679 0z" fill-rule="evenodd"/><path stroke="#000000" stroke-width="8.0" stroke-linejoin="round" stroke-linecap="butt" d="m254.3905 200.13075l0 0c-6.163681 -6.163681 -6.163681 -16.156967 0 -22.320648l169.67932 -169.67935c2.9599304 -2.9599032 6.9743958 -4.62276 11.160339 -4.62276c4.1859436 0 8.200439 1.6628563 11.160339 4.62276l44.639954 44.639973c6.1636963 6.163681 6.1636963 16.156975 0 22.320656l-169.67932 169.67935c-6.1636963 6.163666 -16.156982 6.163666 -22.320679 0z" fill-rule="evenodd"/></g></svg>