<svg version="1.1" viewBox="0.0 0.0 875.0 541.0" fill="none" stroke="none" stroke-linecap="square" stroke-miterlimit="10" width="875" height="541" xmlns:xlink="http://www.w3.org/1999/xlink" xmlns="http://www.w3.org/2000/svg"><path fill="#ffffff" d="M0 0L875.0 0L875.0 541.0L0 541.0L0 0Z" fill-rule="nonzero"/><path stroke="gold333" stroke-width="1.0" stroke-linecap="butt" d="M124.5 59.5L124.5 493.5" fill-rule="nonzero"/><path stroke="#cccccc" stroke-width="1.0" stroke-linecap="butt" d="M305.5 59.5L305.5 493.5" fill-rule="nonzero"/><path stroke="#cccccc" stroke-width="1.0" stroke-linecap="butt" d="M486.5 59.5L486.5 493.5" fill-rule="nonzero"/><path stroke="#cccccc" stroke-width="1.0" stroke-linecap="butt" d="M666.5 59.5L666.5 493.5" fill-rule="nonzero"/><path stroke="#cccccc" stroke-width="1.0" stroke-linecap="butt" d="M847.5 59.5L847.5 493.5" fill-rule="nonzero"/><clipPath id="id_0"><path d="M124.05 59.083332L847.95 59.083332L847.95 493.95L124.05 493.95L124.05 59.083332Z" clip-rule="nonzero"/></clipPath><path stroke="#000000" stroke-width="2.0" stroke-linecap="butt" stroke-opacity="0.0" clip-path="url(#id_0)" d="M124.0 118.0L124.0 80.0L428.0 80.0L428.0 118.0Z" fill-rule="nonzero"/><path fill="#4285f4" clip-path="url(#id_0)" d="M124.0 118.0L124.0 80.0L428.0 80.0L428.0 118.0Z" fill-rule="nonzero"/><path stroke="#000000" stroke-width="2.0" stroke-linecap="butt" stroke-opacity="0.0" clip-path="url(#id_0)" d="M124.0 177.0L124.0 139.0L392.0 139.0L392.0 177.0Z" fill-rule="nonzero"/><path fill="#4285f4" clip-path="url(#id_0)" d="M124.0 177.0L124.0 139.0L392.0 139.0L392.0 177.0Z" fill-rule="nonzero"/><path stroke="#000000" stroke-width="2.0" stroke-linecap="butt" stroke-opacity="0.0" clip-path="url(#id_0)" d="M124.0 236.0L124.0 198.0L500.0 198.0L500.0 236.0Z" fill-rule="nonzero"/><path fill="#4285f4" clip-path="url(#id_0)" d="M124.0 236.0L124.0 198.0L500.0 198.0L500.0 236.0Z" fill-rule="nonzero"/><path stroke="#000000" stroke-width="2.0" stroke-linecap="butt" stroke-opacity="0.0" clip-path="url(#id_0)" d="M124.0 296.0L124.0 258.0L681.0 258.0L681.0 296.0Z" fill-rule="nonzero"/><path fill="#4285f4" clip-path="url(#id_0)" d="M124.0 296.0L124.0 258.0L681.0 258.0L681.0 296.0Z" fill-rule="nonzero"/><path stroke="#000000" stroke-width="2.0" stroke-linecap="butt" stroke-opacity="0.0" clip-path="url(#id_0)" d="M124.0 355.0L124.0 317.0L703.0 317.0L703.0 355.0Z" fill-rule="nonzero"/><path fill="#4285f4" clip-path="url(#id_0)" d="M124.0 355.0L124.0 317.0L703.0 317.0L703.0 355.0Z" fill-rule="nonzero"/><path stroke="#000000" stroke-width="2.0" stroke-linecap="butt" stroke-opacity="0.0" clip-path="url(#id_0)" d="M124.0 414.0L124.0 376.0L696.0 376.0L696.0 414.0Z" fill-rule="nonzero"/><path fill="#4285f4" clip-path="url(#id_0)" d="M124.0 414.0L124.0 376.0L696.0 376.0L696.0 414.0Z" fill-rule="nonzero"/><path stroke="#000000" stroke-width="2.0" stroke-linecap="butt" stroke-opacity="0.0" clip-path="url(#id_0)" d="M124.0 473.0L124.0 435.0L508.0 435.0L508.0 473.0Z" fill-rule="nonzero"/><path fill="#4285f4" clip-path="url(#id_0)" d="M124.0 473.0L124.0 435.0L508.0 435.0L508.0 473.0Z" fill-rule="nonzero"/><path stroke="#000000" stroke-width="2.0" stroke-linecap="butt" stroke-opacity="0.0" clip-path="url(#id_0)" d="M428.0 118.0L428.0 80.0L479.0 80.0L479.0 118.0Z" fill-rule="nonzero"/><path fill="#ea4335" clip-path="url(#id_0)" d="M428.0 118.0L428.0 80.0L479.0 80.0L479.0 118.0Z" fill-rule="nonzero"/><path stroke="#000000" stroke-width="2.0" stroke-linecap="butt" stroke-opacity="0.0" clip-path="url(#id_0)" d="M392.0 177.0L392.0 139.0L443.0 139.0L443.0 177.0Z" fill-rule="nonzero"/><path fill="#ea4335" clip-path="url(#id_0)" d="M392.0 177.0L392.0 139.0L443.0 139.0L443.0 177.0Z" fill-rule="nonzero"/><path stroke="#000000" stroke-width="2.0" stroke-linecap="butt" stroke-opacity="0.0" clip-path="url(#id_0)" d="M500.0 236.0L500.0 198.0L602.0 198.0L602.0 236.0Z" fill-rule="nonzero"/><path fill="#ea4335" clip-path="url(#id_0)" d="M500.0 236.0L500.0 198.0L602.0 198.0L602.0 236.0Z" fill-rule="nonzero"/><path stroke="#000000" stroke-width="2.0" stroke-linecap="butt" stroke-opacity="0.0" clip-path="url(#id_0)" d="M681.0 296.0L681.0 258.0L783.0 258.0L783.0 296.0Z" fill-rule="nonzero"/><path fill="#ea4335" clip-path="url(#id_0)" d="M681.0 296.0L681.0 258.0L783.0 258.0L783.0 296.0Z" fill-rule="nonzero"/><path stroke="#000000" stroke-width="2.0" stroke-linecap="butt" stroke-opacity="0.0" clip-path="url(#id_0)" d="M703.0 355.0L703.0 317.0L783.0 317.0L783.0 355.0Z" fill-rule="nonzero"/><path fill="#ea4335" clip-path="url(#id_0)" d="M703.0 355.0L703.0 317.0L783.0 317.0L783.0 355.0Z" fill-rule="nonzero"/><path stroke="#000000" stroke-width="2.0" stroke-linecap="butt" stroke-opacity="0.0" clip-path="url(#id_0)" d="M696.0 414.0L696.0 376.0L783.0 376.0L783.0 414.0Z" fill-rule="nonzero"/><path fill="#ea4335" clip-path="url(#id_0)" d="M696.0 414.0L696.0 376.0L783.0 376.0L783.0 414.0Z" fill-rule="nonzero"/><path stroke="#000000" stroke-width="2.0" stroke-linecap="butt" stroke-opacity="0.0" clip-path="url(#id_0)" d="M508.0 473.0L508.0 435.0L558.0 435.0L558.0 473.0Z" fill-rule="nonzero"/><path fill="#ea4335" clip-path="url(#id_0)" d="M508.0 473.0L508.0 435.0L558.0 435.0L558.0 473.0Z" fill-rule="nonzero"/><path stroke="#000000" stroke-width="2.0" stroke-linecap="butt" stroke-opacity="0.0" clip-path="url(#id_0)" d="M479.0 118.0L479.0 80.0L848.0 80.0L848.0 118.0Z" fill-rule="nonzero"/><path fill="#fbbc04" clip-path="url(#id_0)" d="M479.0 118.0L479.0 80.0L848.0 80.0L848.0 118.0Z" fill-rule="nonzero"/><path stroke="#000000" stroke-width="2.0" stroke-linecap="butt" stroke-opacity="0.0" clip-path="url(#id_0)" d="M443.0 177.0L443.0 139.0L848.0 139.0L848.0 177.0Z" fill-rule="nonzero"/><path fill="#fbbc04" clip-path="url(#id_0)" d="M443.0 177.0L443.0 139.0L848.0 139.0L848.0 177.0Z" fill-rule="nonzero"/><path stroke="#000000" stroke-width="2.0" stroke-linecap="butt" stroke-opacity="0.0" clip-path="url(#id_0)" d="M602.0 236.0L602.0 198.0L848.0 198.0L848.0 236.0Z" fill-rule="nonzero"/><path fill="#fbbc04" clip-path="url(#id_0)" d="M602.0 236.0L602.0 198.0L848.0 198.0L848.0 236.0Z" fill-rule="nonzero"/><path stroke="#000000" stroke-width="2.0" stroke-linecap="butt" stroke-opacity="0.0" clip-path="url(#id_0)" d="M783.0 296.0L783.0 258.0L848.0 258.0L848.0 296.0Z" fill-rule="nonzero"/><path fill="#fbbc04" clip-path="url(#id_0)" d="M783.0 296.0L783.0 258.0L848.0 258.0L848.0 296.0Z" fill-rule="nonzero"/><path stroke="#000000" stroke-width="2.0" stroke-linecap="butt" stroke-opacity="0.0" clip-path="url(#id_0)" d="M783.0 355.0L783.0 317.0L848.0 317.0L848.0 355.0Z" fill-rule="nonzero"/><path fill="#fbbc04" clip-path="url(#id_0)" d="M783.0 355.0L783.0 317.0L848.0 317.0L848.0 355.0Z" fill-rule="nonzero"/><path stroke="#000000" stroke-width="2.0" stroke-linecap="butt" stroke-opacity="0.0" clip-path="url(#id_0)" d="M783.0 414.0L783.0 376.0L848.0 376.0L848.0 414.0Z" fill-rule="nonzero"/><path fill="#fbbc04" clip-path="url(#id_0)" d="M783.0 414.0L783.0 376.0L848.0 376.0L848.0 414.0Z" fill-rule="nonzero"/><path stroke="#000000" stroke-width="2.0" stroke-linecap="butt" stroke-opacity="0.0" clip-path="url(#id_0)" d="M558.0 473.0L558.0 435.0L703.0 435.0L703.0 473.0Z" fill-rule="nonzero"/><path fill="#fbbc04" clip-path="url(#id_0)" d="M558.0 473.0L558.0 435.0L703.0 435.0L703.0 473.0Z" fill-rule="nonzero"/><path stroke="#000000" stroke-width="2.0" stroke-linecap="butt" stroke-opacity="0.0" clip-path="url(#id_0)" d="M848.0 118.0L848.0 80.0L848.0 80.0L848.0 118.0Z" fill-rule="nonzero"/><path fill="#34a853" clip-path="url(#id_0)" d="M848.0 118.0L848.0 80.0L848.0 80.0L848.0 118.0Z" fill-rule="nonzero"/><path stroke="#000000" stroke-width="2.0" stroke-linecap="butt" stroke-opacity="0.0" clip-path="url(#id_0)" d="M848.0 177.0L848.0 139.0L848.0 139.0L848.0 177.0Z" fill-rule="nonzero"/><path fill="#34a853" clip-path="url(#id_0)" d="M848.0 177.0L848.0 139.0L848.0 139.0L848.0 177.0Z" fill-rule="nonzero"/><path stroke="#000000" stroke-width="2.0" stroke-linecap="butt" stroke-opacity="0.0" clip-path="url(#id_0)" d="M848.0 236.0L848.0 198.0L848.0 198.0L848.0 236.0Z" fill-rule="nonzero"/><path fill="#34a853" clip-path="url(#id_0)" d="M848.0 236.0L848.0 198.0L848.0 198.0L848.0 236.0Z" fill-rule="nonzero"/><path stroke="#000000" stroke-width="2.0" stroke-linecap="butt" stroke-opacity="0.0" clip-path="url(#id_0)" d="M848.0 296.0L848.0 258.0L848.0 258.0L848.0 296.0Z" fill-rule="nonzero"/><path fill="#34a853" clip-path="url(#id_0)" d="M848.0 296.0L848.0 258.0L848.0 258.0L848.0 296.0Z" fill-rule="nonzero"/><path stroke="#000000" stroke-width="2.0" stroke-linecap="butt" stroke-opacity="0.0" clip-path="url(#id_0)" d="M848.0 355.0L848.0 317.0L848.0 317.0L848.0 355.0Z" fill-rule="nonzero"/><path fill="#34a853" clip-path="url(#id_0)" d="M848.0 355.0L848.0 317.0L848.0 317.0L848.0 355.0Z" fill-rule="nonzero"/><path stroke="#000000" stroke-width="2.0" stroke-linecap="butt" stroke-opacity="0.0" clip-path="url(#id_0)" d="M848.0 414.0L848.0 376.0L848.0 376.0L848.0 414.0Z" fill-rule="nonzero"/><path fill="#34a853" clip-path="url(#id_0)" d="M848.0 414.0L848.0 376.0L848.0 376.0L848.0 414.0Z" fill-rule="nonzero"/><path stroke="#000000" stroke-width="2.0" stroke-linecap="butt" stroke-opacity="0.0" clip-path="url(#id_0)" d="M703.0 473.0L703.0 435.0L846.0 435.0C847.10455 435.0 848.0 435.89542 848.0 437.0L848.0 471.0C848.0 472.10458 847.10455 473.0 846.0 473.0Z" fill-rule="nonzero"/><path fill="#34a853" clip-path="url(#id_0)" d="M703.0 473.0L703.0 435.0L846.0 435.0C847.10455 435.0 848.0 435.89542 848.0 437.0L848.0 471.0C848.0 472.10458 847.10455 473.0 846.0 473.0Z" fill-rule="nonzero"/><path fill="#000000" d="M34.034374 103.020065L37.33125 94.426315L38.55 94.426315L42.065624 103.020065L40.784374 103.020065L39.76875 100.41069L36.190624 100.41069L35.2375 103.020065L34.034374 103.020065ZM36.51875 99.488815L39.425 99.488815L38.534374 97.113815Q38.1125 96.03569 37.925 95.332565Q37.753124 96.16069 37.45625 96.97319L36.51875 99.488815ZM45.909374 100.738815L46.940624 100.87944Q46.76875 101.94194 46.065624 102.551315Q45.3625 103.16069 44.346874 103.16069Q43.065624 103.16069 42.284374 102.332565Q41.51875 101.488815 41.51875 99.926315Q41.51875 98.926315 41.846874 98.176315Q42.190624 97.41069 42.8625 97.03569Q43.55 96.66069 44.3625 96.66069Q45.3625 96.66069 46.003124 97.176315Q46.659374 97.676315 46.846874 98.62944L45.815624 98.78569Q45.675 98.16069 45.3 97.84819Q44.925 97.520065 44.39375 97.520065Q43.596874 97.520065 43.096874 98.09819Q42.596874 98.66069 42.596874 99.895065Q42.596874 101.16069 43.08125 101.72319Q43.565624 102.28569 44.33125 102.28569Q44.95625 102.28569 45.3625 101.91069Q45.784374 101.53569 45.909374 100.738815ZM43.45625 103.801315L43.76875 102.75444L44.55 102.75444L44.346874 103.395065Q44.846874 103.44194 45.096874 103.69194Q45.3625 103.94194 45.3625 104.25444Q45.3625 104.69194 44.940624 105.020065Q44.51875 105.363815 43.659374 105.363815Q43.175 105.363815 42.815624 105.28569L42.878124 104.613815Q43.253124 104.62944 43.440624 104.62944Q43.9875 104.62944 44.20625 104.47319Q44.378124 104.363815 44.378124 104.19194Q44.378124 104.082565 44.3 104.00444Q44.2375 103.926315 44.05 103.863815Q43.878124 103.801315 43.45625 103.801315ZM51.925 103.020065L51.925 102.09819Q51.190624 103.16069 49.940624 103.16069Q49.39375 103.16069 48.909374 102.957565Q48.440624 102.738815 48.20625 102.426315Q47.971874 102.09819 47.878124 101.62944Q47.815624 101.332565 47.815624 100.645065L47.815624 96.801315L48.878124 96.801315L48.878124 100.25444Q48.878124 101.06694 48.940624 101.363815Q49.034374 101.770065 49.346874 102.020065Q49.675 102.25444 50.159374 102.25444Q50.628124 102.25444 51.034374 102.020065Q51.45625 101.770065 51.628124 101.34819Q51.815624 100.926315 51.815624 100.12944L51.815624 96.801315L52.8625 96.801315L52.8625 103.020065L51.925 103.020065ZM49.70625 96.020065L50.4875 94.37944L51.878124 94.37944L50.58125 96.020065L49.70625 96.020065ZM58.909374 100.738815L59.940624 100.87944Q59.76875 101.94194 59.065624 102.551315Q58.3625 103.16069 57.346874 103.16069Q56.065624 103.16069 55.284374 102.332565Q54.51875 101.488815 54.51875 99.926315Q54.51875 98.926315 54.846874 98.176315Q55.190624 97.41069 55.8625 97.03569Q56.55 96.66069 57.3625 96.66069Q58.3625 96.66069 59.003124 97.176315Q59.659374 97.676315 59.846874 98.62944L58.815624 98.78569Q58.675 98.16069 58.3 97.84819Q57.925 97.520065 57.39375 97.520065Q56.596874 97.520065 56.096874 98.09819Q55.596874 98.66069 55.596874 99.895065Q55.596874 101.16069 56.08125 101.72319Q56.565624 102.28569 57.33125 102.28569Q57.95625 102.28569 58.3625 101.91069Q58.784374 101.53569 58.909374 100.738815ZM64.90938 102.25444Q64.31563 102.75444 63.76875 102.957565Q63.2375 103.16069 62.6125 103.16069Q61.58125 103.16069 61.034374 102.66069Q60.4875 102.16069 60.4875 101.37944Q60.4875 100.926315 60.690624 100.551315Q60.89375 100.16069 61.2375 99.94194Q61.58125 99.707565 62.003124 99.59819Q62.3 99.50444 62.940624 99.426315Q64.20625 99.28569 64.81563 99.06694Q64.81563 98.84819 64.81563 98.801315Q64.81563 98.145065 64.51875 97.87944Q64.1125 97.53569 63.315624 97.53569Q62.58125 97.53569 62.221874 97.801315Q61.8625 98.051315 61.690624 98.707565L60.659374 98.56694Q60.8 97.91069 61.128124 97.50444Q61.45625 97.09819 62.065624 96.87944Q62.675 96.66069 63.471874 96.66069Q64.26875 96.66069 64.76875 96.84819Q65.26875 97.03569 65.50313 97.31694Q65.7375 97.59819 65.83125 98.03569Q65.87813 98.301315 65.87813 99.00444L65.87813 100.41069Q65.87813 101.87944 65.94063 102.270065Q66.01875 102.66069 66.22188 103.020065L65.1125 103.020065Q64.95625 102.69194 64.90938 102.25444ZM64.81563 99.895065Q64.2375 100.12944 63.096874 100.301315Q62.440624 100.395065 62.175 100.520065Q61.909374 100.62944 61.753124 100.84819Q61.6125 101.06694 61.6125 101.34819Q61.6125 101.770065 61.925 102.051315Q62.253124 102.332565 62.8625 102.332565Q63.471874 102.332565 63.940624 102.06694Q64.425 101.801315 64.64375 101.332565Q64.81563 100.97319 64.81563 100.28569L64.81563 99.895065ZM67.83125 103.020065L67.83125 96.801315L68.78438 96.801315L68.78438 97.738815Q69.14375 97.082565 69.44063 96.87944Q69.75313 96.66069 70.12813 96.66069Q70.65938 96.66069 71.20625 96.988815L70.84688 97.97319Q70.45625 97.738815 70.08125 97.738815Q69.72188 97.738815 69.44063 97.957565Q69.175 98.16069 69.06563 98.53569Q68.87813 99.09819 68.87813 99.75444L68.87813 103.020065L67.83125 103.020065ZM78.87813 103.020065L78.87813 102.238815Q78.28438 103.16069 77.14375 103.16069Q76.39375 103.16069 75.76875 102.75444Q75.14375 102.332565 74.8 101.59819Q74.45625 100.863815 74.45625 99.91069Q74.45625 98.988815 74.76875 98.22319Q75.08125 97.457565 75.70625 97.06694Q76.33125 96.66069 77.09688 96.66069Q77.65938 96.66069 78.09688 96.895065Q78.53438 97.12944 78.81563 97.50444L78.81563 94.426315L79.8625 94.426315L79.8625 103.020065L78.87813 103.020065ZM75.55 99.91069Q75.55 101.113815 76.05 101.707565Q76.55 102.28569 77.2375 102.28569Q77.925 102.28569 78.40938 101.72319Q78.89375 101.16069 78.89375 100.00444Q78.89375 98.72319 78.39375 98.12944Q77.90938 97.53569 77.19063 97.53569Q76.4875 97.53569 76.01875 98.113815Q75.55 98.676315 75.55 99.91069ZM86.09688 101.020065L87.19063 101.145065Q86.94063 102.09819 86.2375 102.62944Q85.53438 103.16069 84.45625 103.16069Q83.09688 103.16069 82.28438 102.31694Q81.4875 101.47319 81.4875 99.957565Q81.4875 98.395065 82.3 97.53569Q83.1125 96.66069 84.39375 96.66069Q85.64375 96.66069 86.425 97.50444Q87.22188 98.34819 87.22188 99.895065Q87.22188 99.988815 87.22188 100.176315L82.58125 100.176315Q82.64375 101.207565 83.15938 101.75444Q83.675 102.28569 84.45625 102.28569Q85.03438 102.28569 85.44063 101.988815Q85.8625 101.676315 86.09688 101.020065ZM82.64375 99.31694L86.1125 99.31694Q86.05 98.520065 85.72188 98.12944Q85.20625 97.520065 84.40938 97.520065Q83.675 97.520065 83.175 98.00444Q82.69063 98.488815 82.64375 99.31694ZM95.90938 100.738815L96.94063 100.87944Q96.76875 101.94194 96.06563 102.551315Q95.3625 103.16069 94.34688 103.16069Q93.06563 103.16069 92.28438 102.332565Q91.51875 101.488815 91.51875 99.926315Q91.51875 98.926315 91.84688 98.176315Q92.19063 97.41069 92.8625 97.03569Q93.55 96.66069 94.3625 96.66069Q95.3625 96.66069 96.00313 97.176315Q96.65938 97.676315 96.84688 98.62944L95.81563 98.78569Q95.675 98.16069 95.3 97.84819Q94.925 97.520065 94.39375 97.520065Q93.59688 97.520065 93.09688 98.09819Q92.59688 98.66069 92.59688 99.895065Q92.59688 101.16069 93.08125 101.72319Q93.56563 102.28569 94.33125 102.28569Q94.95625 102.28569 95.3625 101.91069Q95.78438 101.53569 95.90938 100.738815ZM101.90938 102.25444Q101.31563 102.75444 100.76875 102.957565Q100.2375 103.16069 99.6125 103.16069Q98.58125 103.16069 98.03438 102.66069Q97.4875 102.16069 97.4875 101.37944Q97.4875 100.926315 97.69063 100.551315Q97.89375 100.16069 98.2375 99.94194Q98.58125 99.707565 99.00313 99.59819Q99.3 99.50444 99.94063 99.426315Q101.20625 99.28569 101.81563 99.06694Q101.81563 98.84819 101.81563 98.801315Q101.81563 98.145065 101.51875 97.87944Q101.1125 97.53569 100.31563 97.53569Q99.58125 97.53569 99.22188 97.801315Q98.8625 98.051315 98.69063 98.707565L97.65938 98.56694Q97.8 97.91069 98.12813 97.50444Q98.45625 97.09819 99.06563 96.87944Q99.675 96.66069 100.47188 96.66069Q101.26875 96.66069 101.76875 96.84819Q102.26875 97.03569 102.50313 97.31694Q102.7375 97.59819 102.83125 98.03569Q102.87813 98.301315 102.87813 99.00444L102.87813 100.41069Q102.87813 101.87944 102.94063 102.270065Q103.01875 102.66069 103.22188 103.020065L102.1125 103.020065Q101.95625 102.69194 101.90938 102.25444ZM101.81563 99.895065Q101.2375 100.12944 100.09688 100.301315Q99.44063 100.395065 99.175 100.520065Q98.90938 100.62944 98.75313 100.84819Q98.6125 101.06694 98.6125 101.34819Q98.6125 101.770065 98.925 102.051315Q99.25313 102.332565 99.8625 102.332565Q100.47188 102.332565 100.94063 102.06694Q101.425 101.801315 101.64375 101.332565Q101.81563 100.97319 101.81563 100.28569L101.81563 99.895065ZM104.84688 103.020065L104.84688 96.801315L105.78438 96.801315L105.78438 97.676315Q106.47188 96.66069 107.76875 96.66069Q108.33125 96.66069 108.8 96.863815Q109.28438 97.06694 109.51875 97.395065Q109.75313 97.72319 109.84688 98.16069Q109.89375 98.457565 109.89375 99.19194L109.89375 103.020065L108.84688 103.020065L108.84688 99.238815Q108.84688 98.582565 108.72188 98.270065Q108.59688 97.957565 108.28438 97.770065Q107.97188 97.56694 107.55 97.56694Q106.87813 97.56694 106.37813 98.00444Q105.89375 98.426315 105.89375 99.613815L105.89375 103.020065L104.84688 103.020065ZM115.90938 102.25444Q115.31563 102.75444 114.76875 102.957565Q114.2375 103.16069 113.6125 103.16069Q112.58125 103.16069 112.03438 102.66069Q111.4875 102.16069 111.4875 101.37944Q111.4875 100.926315 111.69063 100.551315Q111.89375 100.16069 112.2375 99.94194Q112.58125 99.707565 113.00313 99.59819Q113.3 99.50444 113.94063 99.426315Q115.20625 99.28569 115.81563 99.06694Q115.81563 98.84819 115.81563 98.801315Q115.81563 98.145065 115.51875 97.87944Q115.1125 97.53569 114.31563 97.53569Q113.58125 97.53569 113.22188 97.801315Q112.8625 98.051315 112.69063 98.707565L111.65938 98.56694Q111.8 97.91069 112.12813 97.50444Q112.45625 97.09819 113.06563 96.87944Q113.675 96.66069 114.47188 96.66069Q115.26875 96.66069 115.76875 96.84819Q116.26875 97.03569 116.50313 97.31694Q116.7375 97.59819 116.83125 98.03569Q116.87813 98.301315 116.87813 99.00444L116.87813 100.41069Q116.87813 101.87944 116.94063 102.270065Q117.01875 102.66069 117.22188 103.020065L116.1125 103.020065Q115.95625 102.69194 115.90938 102.25444ZM115.81563 99.895065Q115.2375 100.12944 114.09688 100.301315Q113.44063 100.395065 113.175 100.520065Q112.90938 100.62944 112.75313 100.84819Q112.6125 101.06694 112.6125 101.34819Q112.6125 101.770065 112.925 102.051315Q113.25313 102.332565 113.8625 102.332565Q114.47188 102.332565 114.94063 102.06694Q115.425 101.801315 115.64375 101.332565Q115.81563 100.97319 115.81563 100.28569L115.81563 99.895065Z" fill-rule="nonzero"/><path fill="#000000" d="M42.034374 162.18561L45.33125 153.59186L46.55 153.59186L50.065624 162.18561L48.784374 162.18561L47.76875 159.57623L44.190624 159.57623L43.2375 162.18561L42.034374 162.18561ZM44.51875 158.65436L47.425 158.65436L46.534374 156.27936Q46.1125 155.20123 45.925 154.49811Q45.753124 155.32623 45.45625 156.13873L44.51875 158.65436ZM53.909374 159.90436L54.940624 160.04498Q54.76875 161.10748 54.065624 161.71686Q53.3625 162.32623 52.346874 162.32623Q51.065624 162.32623 50.284374 161.49811Q49.51875 160.65436 49.51875 159.09186Q49.51875 158.09186 49.846874 157.34186Q50.190624 156.57623 50.8625 156.20123Q51.55 155.82623 52.3625 155.82623Q53.3625 155.82623 54.003124 156.34186Q54.659374 156.84186 54.846874 157.79498L53.815624 157.95123Q53.675 157.32623 53.3 157.01373Q52.925 156.68561 52.39375 156.68561Q51.596874 156.68561 51.096874 157.26373Q50.596874 157.82623 50.596874 159.06061Q50.596874 160.32623 51.08125 160.88873Q51.565624 161.45123 52.33125 161.45123Q52.95625 161.45123 53.3625 161.07623Q53.784374 160.70123 53.909374 159.90436ZM51.45625 162.96686L51.76875 161.91998L52.55 161.91998L52.346874 162.56061Q52.846874 162.60748 53.096874 162.85748Q53.3625 163.10748 53.3625 163.41998Q53.3625 163.85748 52.940624 164.18561Q52.51875 164.52936 51.659374 164.52936Q51.175 164.52936 50.815624 164.45123L50.878124 163.77936Q51.253124 163.79498 51.440624 163.79498Q51.9875 163.79498 52.20625 163.63873Q52.378124 163.52936 52.378124 163.35748Q52.378124 163.24811 52.3 163.16998Q52.2375 163.09186 52.05 163.02936Q51.878124 162.96686 51.45625 162.96686ZM59.925 162.18561L59.925 161.26373Q59.190624 162.32623 57.940624 162.32623Q57.39375 162.32623 56.909374 162.12311Q56.440624 161.90436 56.20625 161.59186Q55.971874 161.26373 55.878124 160.79498Q55.815624 160.49811 55.815624 159.81061L55.815624 155.96686L56.878124 155.96686L56.878124 159.41998Q56.878124 160.23248 56.940624 160.52936Q57.034374 160.93561 57.346874 161.18561Q57.675 161.41998 58.159374 161.41998Q58.628124 161.41998 59.034374 161.18561Q59.45625 160.93561 59.628124 160.51373Q59.815624 160.09186 59.815624 159.29498L59.815624 155.96686L60.8625 155.96686L60.8625 162.18561L59.925 162.18561ZM57.70625 155.18561L58.4875 153.54498L59.878124 153.54498L58.58125 155.18561L57.70625 155.18561ZM66.90938 159.90436L67.94063 160.04498Q67.76875 161.10748 67.06563 161.71686Q66.3625 162.32623 65.34688 162.32623Q64.06563 162.32623 63.284374 161.49811Q62.51875 160.65436 62.51875 159.09186Q62.51875 158.09186 62.846874 157.34186Q63.190624 156.57623 63.8625 156.20123Q64.55 155.82623 65.3625 155.82623Q66.3625 155.82623 67.00313 156.34186Q67.65938 156.84186 67.84688 157.79498L66.81563 157.95123Q66.675 157.32623 66.3 157.01373Q65.925 156.68561 65.39375 156.68561Q64.59688 156.68561 64.09688 157.26373Q63.596874 157.82623 63.596874 159.06061Q63.596874 160.32623 64.08125 160.88873Q64.56563 161.45123 65.33125 161.45123Q65.95625 161.45123 66.3625 161.07623Q66.78438 160.70123 66.90938 159.90436ZM72.90938 161.41998Q72.31563 161.91998 71.76875 162.12311Q71.2375 162.32623 70.6125 162.32623Q69.58125 162.32623 69.03438 161.82623Q68.4875 161.32623 68.4875 160.54498Q68.4875 160.09186 68.69063 159.71686Q68.89375 159.32623 69.2375 159.10748Q69.58125 158.87311 70.00313 158.76373Q70.3 158.66998 70.94063 158.59186Q72.20625 158.45123 72.81563 158.23248Q72.81563 158.01373 72.81563 157.96686Q72.81563 157.31061 72.51875 157.04498Q72.1125 156.70123 71.31563 156.70123Q70.58125 156.70123 70.22188 156.96686Q69.8625 157.21686 69.69063 157.87311L68.65938 157.73248Q68.8 157.07623 69.12813 156.66998Q69.45625 156.26373 70.06563 156.04498Q70.675 155.82623 71.47188 155.82623Q72.26875 155.82623 72.76875 156.01373Q73.26875 156.20123 73.50313 156.48248Q73.7375 156.76373 73.83125 157.20123Q73.87813 157.46686 73.87813 158.16998L73.87813 159.57623Q73.87813 161.04498 73.94063 161.43561Q74.01875 161.82623 74.22188 162.18561L73.1125 162.18561Q72.95625 161.85748 72.90938 161.41998ZM72.81563 159.06061Q72.2375 159.29498 71.09688 159.46686Q70.44063 159.56061 70.175 159.68561Q69.90938 159.79498 69.75313 160.01373Q69.6125 160.23248 69.6125 160.51373Q69.6125 160.93561 69.925 161.21686Q70.25313 161.49811 70.8625 161.49811Q71.47188 161.49811 71.94063 161.23248Q72.425 160.96686 72.64375 160.49811Q72.81563 160.13873 72.81563 159.45123L72.81563 159.06061ZM75.83125 162.18561L75.83125 155.96686L76.78438 155.96686L76.78438 156.90436Q77.14375 156.24811 77.44063 156.04498Q77.75313 155.82623 78.12813 155.82623Q78.65938 155.82623 79.20625 156.15436L78.84688 157.13873Q78.45625 156.90436 78.08125 156.90436Q77.72188 156.90436 77.44063 157.12311Q77.175 157.32623 77.06563 157.70123Q76.87813 158.26373 76.87813 158.91998L76.87813 162.18561L75.83125 162.18561ZM86.87813 162.18561L86.87813 161.40436Q86.28438 162.32623 85.14375 162.32623Q84.39375 162.32623 83.76875 161.91998Q83.14375 161.49811 82.8 160.76373Q82.45625 160.02936 82.45625 159.07623Q82.45625 158.15436 82.76875 157.38873Q83.08125 156.62311 83.70625 156.23248Q84.33125 155.82623 85.09688 155.82623Q85.65938 155.82623 86.09688 156.06061Q86.53438 156.29498 86.81563 156.66998L86.81563 153.59186L87.8625 153.59186L87.8625 162.18561L86.87813 162.18561ZM83.55 159.07623Q83.55 160.27936 84.05 160.87311Q84.55 161.45123 85.2375 161.45123Q85.925 161.45123 86.40938 160.88873Q86.89375 160.32623 86.89375 159.16998Q86.89375 157.88873 86.39375 157.29498Q85.90938 156.70123 85.19063 156.70123Q84.4875 156.70123 84.01875 157.27936Q83.55 157.84186 83.55 159.07623ZM94.09688 160.18561L95.19063 160.31061Q94.94063 161.26373 94.2375 161.79498Q93.53438 162.32623 92.45625 162.32623Q91.09688 162.32623 90.28438 161.48248Q89.4875 160.63873 89.4875 159.12311Q89.4875 157.56061 90.3 156.70123Q91.1125 155.82623 92.39375 155.82623Q93.64375 155.82623 94.425 156.66998Q95.22188 157.51373 95.22188 159.06061Q95.22188 159.15436 95.22188 159.34186L90.58125 159.34186Q90.64375 160.37311 91.15938 160.91998Q91.675 161.45123 92.45625 161.45123Q93.03438 161.45123 93.44063 161.15436Q93.8625 160.84186 94.09688 160.18561ZM90.64375 158.48248L94.1125 158.48248Q94.05 157.68561 93.72188 157.29498Q93.20625 156.68561 92.40938 156.68561Q91.675 156.68561 91.175 157.16998Q90.69063 157.65436 90.64375 158.48248ZM103.925 162.18561L103.925 161.26373Q103.19063 162.32623 101.94063 162.32623Q101.39375 162.32623 100.90938 162.12311Q100.44063 161.90436 100.20625 161.59186Q99.97188 161.26373 99.87813 160.79498Q99.81563 160.49811 99.81563 159.81061L99.81563 155.96686L100.87813 155.96686L100.87813 159.41998Q100.87813 160.23248 100.94063 160.52936Q101.03438 160.93561 101.34688 161.18561Q101.675 161.41998 102.15938 161.41998Q102.62813 161.41998 103.03438 161.18561Q103.45625 160.93561 103.62813 160.51373Q103.81563 160.09186 103.81563 159.29498L103.81563 155.96686L104.8625 155.96686L104.8625 162.18561L103.925 162.18561ZM108.56563 162.18561L106.20625 155.96686L107.31563 155.96686L108.65938 159.68561Q108.8625 160.29498 109.05 160.93561Q109.19063 160.45123 109.44063 159.76373L110.83125 155.96686L111.90938 155.96686L109.55 162.18561L108.56563 162.18561ZM115.90938 161.41998Q115.31563 161.91998 114.76875 162.12311Q114.2375 162.32623 113.6125 162.32623Q112.58125 162.32623 112.03438 161.82623Q111.4875 161.32623 111.4875 160.54498Q111.4875 160.09186 111.69063 159.71686Q111.89375 159.32623 112.2375 159.10748Q112.58125 158.87311 113.00313 158.76373Q113.3 158.66998 113.94063 158.59186Q115.20625 158.45123 115.81563 158.23248Q115.81563 158.01373 115.81563 157.96686Q115.81563 157.31061 115.51875 157.04498Q115.1125 156.70123 114.31563 156.70123Q113.58125 156.70123 113.22188 156.96686Q112.8625 157.21686 112.69063 157.87311L111.65938 157.73248Q111.8 157.07623 112.12813 156.66998Q112.45625 156.26373 113.06563 156.04498Q113.675 155.82623 114.47188 155.82623Q115.26875 155.82623 115.76875 156.01373Q116.26875 156.20123 116.50313 156.48248Q116.7375 156.76373 116.83125 157.20123Q116.87813 157.46686 116.87813 158.16998L116.87813 159.57623Q116.87813 161.04498 116.94063 161.43561Q117.01875 161.82623 117.22188 162.18561L116.1125 162.18561Q115.95625 161.85748 115.90938 161.41998ZM115.81563 159.06061Q115.2375 159.29498 114.09688 159.46686Q113.44063 159.56061 113.175 159.68561Q112.90938 159.79498 112.75313 160.01373Q112.6125 160.23248 112.6125 160.51373Q112.6125 160.93561 112.925 161.21686Q113.25313 161.49811 113.8625 161.49811Q114.47188 161.49811 114.94063 161.23248Q115.425 160.96686 115.64375 160.49811Q115.81563 160.13873 115.81563 159.45123L115.81563 159.06061Z" fill-rule="nonzero"/><path fill="#000000" d="M85.03438 221.35114L88.33125 212.75739L89.55 212.75739L93.06563 221.35114L91.78438 221.35114L90.76875 218.74176L87.19063 218.74176L86.2375 221.35114L85.03438 221.35114ZM87.51875 217.81989L90.425 217.81989L89.53438 215.44489Q89.1125 214.36676 88.925 213.66364Q88.75313 214.49176 88.45625 215.30426L87.51875 217.81989ZM88.22188 212.22614L89.00313 210.58551L90.39375 210.58551L89.09688 212.22614L88.22188 212.22614ZM92.81563 221.35114L92.81563 212.75739L93.87813 212.75739L93.87813 221.35114L92.81563 221.35114ZM99.90938 219.06989L100.94063 219.21051Q100.76875 220.27301 100.06563 220.88239Q99.3625 221.49176 98.34688 221.49176Q97.06563 221.49176 96.28438 220.66364Q95.51875 219.81989 95.51875 218.25739Q95.51875 217.25739 95.84688 216.50739Q96.19063 215.74176 96.8625 215.36676Q97.55 214.99176 98.3625 214.99176Q99.3625 214.99176 100.00313 215.50739Q100.65938 216.00739 100.84688 216.96051L99.81563 217.11676Q99.675 216.49176 99.3 216.17926Q98.925 215.85114 98.39375 215.85114Q97.59688 215.85114 97.09688 216.42926Q96.59688 216.99176 96.59688 218.22614Q96.59688 219.49176 97.08125 220.05426Q97.56563 220.61676 98.33125 220.61676Q98.95625 220.61676 99.3625 220.24176Q99.78438 219.86676 99.90938 219.06989ZM101.45625 218.24176Q101.45625 216.50739 102.40938 215.67926Q103.20625 214.99176 104.3625 214.99176Q105.64375 214.99176 106.45625 215.83551Q107.28438 216.66364 107.28438 218.14801Q107.28438 219.35114 106.925 220.03864Q106.56563 220.72614 105.8625 221.11676Q105.175 221.49176 104.3625 221.49176Q103.06563 221.49176 102.25313 220.66364Q101.45625 219.81989 101.45625 218.24176ZM102.53438 218.24176Q102.53438 219.42926 103.05 220.02301Q103.58125 220.61676 104.3625 220.61676Q105.15938 220.61676 105.675 220.02301Q106.19063 219.42926 106.19063 218.21051Q106.19063 217.05426 105.65938 216.46051Q105.14375 215.86676 104.3625 215.86676Q103.58125 215.86676 103.05 216.46051Q102.53438 217.03864 102.53438 218.24176ZM108.45625 218.24176Q108.45625 216.50739 109.40938 215.67926Q110.20625 214.99176 111.3625 214.99176Q112.64375 214.99176 113.45625 215.83551Q114.28438 216.66364 114.28438 218.14801Q114.28438 219.35114 113.925 220.03864Q113.56563 220.72614 112.8625 221.11676Q112.175 221.49176 111.3625 221.49176Q110.06563 221.49176 109.25313 220.66364Q108.45625 219.81989 108.45625 218.24176ZM109.53438 218.24176Q109.53438 219.42926 110.05 220.02301Q110.58125 220.61676 111.3625 220.61676Q112.15938 220.61676 112.675 220.02301Q113.19063 219.42926 113.19063 218.21051Q113.19063 217.05426 112.65938 216.46051Q112.14375 215.86676 111.3625 215.86676Q110.58125 215.86676 110.05 216.46051Q109.53438 217.03864 109.53438 218.24176ZM115.81563 221.35114L115.81563 212.75739L116.87813 212.75739L116.87813 221.35114L115.81563 221.35114Z" fill-rule="nonzero"/><path fill="#000000" d="M27.034374 280.51666L30.33125 271.9229L31.55 271.9229L35.065624 280.51666L33.784374 280.51666L32.76875 277.9073L29.190624 277.9073L28.2375 280.51666L27.034374 280.51666ZM29.51875 276.9854L32.425 276.9854L31.534374 274.6104Q31.1125 273.5323 30.925 272.82916Q30.753124 273.6573 30.45625 274.4698L29.51875 276.9854ZM34.284374 280.51666L34.284374 279.6573L38.253124 275.1104Q37.565624 275.14166 37.05 275.14166L34.51875 275.14166L34.51875 274.2979L39.6125 274.2979L39.6125 274.9854L36.2375 278.93854L35.58125 279.6573Q36.3 279.6104 36.909374 279.6104L39.8 279.6104L39.8 280.51666L34.284374 280.51666ZM44.096874 278.51666L45.190624 278.64166Q44.940624 279.5948 44.2375 280.12604Q43.534374 280.6573 42.45625 280.6573Q41.096874 280.6573 40.284374 279.81354Q39.4875 278.9698 39.4875 277.45416Q39.4875 275.89166 40.3 275.0323Q41.1125 274.1573 42.39375 274.1573Q43.64375 274.1573 44.425 275.00104Q45.221874 275.8448 45.221874 277.39166Q45.221874 277.4854 45.221874 277.6729L40.58125 277.6729Q40.64375 278.70416 41.159374 279.25104Q41.675 279.7823 42.45625 279.7823Q43.034374 279.7823 43.440624 279.4854Q43.8625 279.1729 44.096874 278.51666ZM40.64375 276.81354L44.1125 276.81354Q44.05 276.01666 43.721874 275.62604Q43.20625 275.01666 42.409374 275.01666Q41.675 275.01666 41.175 275.50104Q40.690624 275.9854 40.64375 276.81354ZM46.846874 273.14166L46.846874 271.9229L47.909374 271.9229L47.909374 273.14166L46.846874 273.14166ZM46.846874 280.51666L46.846874 274.2979L47.909374 274.2979L47.909374 280.51666L46.846874 280.51666ZM52.14375 279.57916L52.3 280.50104Q51.846874 280.5948 51.503124 280.5948Q50.925 280.5948 50.6125 280.4229Q50.3 280.2354 50.159374 279.93854Q50.034374 279.64166 50.034374 278.68854L50.034374 275.1104L49.26875 275.1104L49.26875 274.2979L50.034374 274.2979L50.034374 272.75104L51.08125 272.12604L51.08125 274.2979L52.14375 274.2979L52.14375 275.1104L51.08125 275.1104L51.08125 278.75104Q51.08125 279.20416 51.128124 279.32916Q51.190624 279.45416 51.315624 279.5323Q51.440624 279.6104 51.675 279.6104Q51.8625 279.6104 52.14375 279.57916ZM57.096874 278.51666L58.190624 278.64166Q57.940624 279.5948 57.2375 280.12604Q56.534374 280.6573 55.45625 280.6573Q54.096874 280.6573 53.284374 279.81354Q52.4875 278.9698 52.4875 277.45416Q52.4875 275.89166 53.3 275.0323Q54.1125 274.1573 55.39375 274.1573Q56.64375 274.1573 57.425 275.00104Q58.221874 275.8448 58.221874 277.39166Q58.221874 277.4854 58.221874 277.6729L53.58125 277.6729Q53.64375 278.70416 54.159374 279.25104Q54.675 279.7823 55.45625 279.7823Q56.034374 279.7823 56.440624 279.4854Q56.8625 279.1729 57.096874 278.51666ZM53.64375 276.81354L57.1125 276.81354Q57.05 276.01666 56.721874 275.62604Q56.20625 275.01666 55.409374 275.01666Q54.675 275.01666 54.175 275.50104Q53.690624 275.9854 53.64375 276.81354ZM66.87813 280.51666L66.87813 279.7354Q66.28438 280.6573 65.14375 280.6573Q64.39375 280.6573 63.76875 280.25104Q63.14375 279.82916 62.8 279.0948Q62.45625 278.3604 62.45625 277.4073Q62.45625 276.4854 62.76875 275.7198Q63.08125 274.95416 63.70625 274.56354Q64.33125 274.1573 65.09688 274.1573Q65.65938 274.1573 66.09688 274.39166Q66.53438 274.62604 66.81563 275.00104L66.81563 271.9229L67.8625 271.9229L67.8625 280.51666L66.87813 280.51666ZM63.55 277.4073Q63.55 278.6104 64.05 279.20416Q64.55 279.7823 65.2375 279.7823Q65.925 279.7823 66.40938 279.2198Q66.89375 278.6573 66.89375 277.50104Q66.89375 276.2198 66.39375 275.62604Q65.90938 275.0323 65.19063 275.0323Q64.4875 275.0323 64.01875 275.6104Q63.55 276.1729 63.55 277.4073ZM74.09688 278.51666L75.19063 278.64166Q74.94063 279.5948 74.2375 280.12604Q73.53438 280.6573 72.45625 280.6573Q71.09688 280.6573 70.28438 279.81354Q69.4875 278.9698 69.4875 277.45416Q69.4875 275.89166 70.3 275.0323Q71.1125 274.1573 72.39375 274.1573Q73.64375 274.1573 74.425 275.00104Q75.22188 275.8448 75.22188 277.39166Q75.22188 277.4854 75.22188 277.6729L70.58125 277.6729Q70.64375 278.70416 71.15938 279.25104Q71.675 279.7823 72.45625 279.7823Q73.03438 279.7823 73.44063 279.4854Q73.8625 279.1729 74.09688 278.51666ZM70.64375 276.81354L74.1125 276.81354Q74.05 276.01666 73.72188 275.62604Q73.20625 275.01666 72.40938 275.01666Q71.675 275.01666 71.175 275.50104Q70.69063 275.9854 70.64375 276.81354ZM79.45625 277.4073Q79.45625 275.6729 80.40938 274.8448Q81.20625 274.1573 82.3625 274.1573Q83.64375 274.1573 84.45625 275.00104Q85.28438 275.82916 85.28438 277.31354Q85.28438 278.51666 84.925 279.20416Q84.56563 279.89166 83.8625 280.2823Q83.175 280.6573 82.3625 280.6573Q81.06563 280.6573 80.25313 279.82916Q79.45625 278.9854 79.45625 277.4073ZM80.53438 277.4073Q80.53438 278.5948 81.05 279.18854Q81.58125 279.7823 82.3625 279.7823Q83.15938 279.7823 83.675 279.18854Q84.19063 278.5948 84.19063 277.37604Q84.19063 276.2198 83.65938 275.62604Q83.14375 275.0323 82.3625 275.0323Q81.58125 275.0323 81.05 275.62604Q80.53438 276.20416 80.53438 277.4073ZM86.81563 280.51666L86.81563 271.9229L87.87813 271.9229L87.87813 280.51666L86.81563 280.51666ZM89.84688 273.14166L89.84688 271.9229L90.90938 271.9229L90.90938 273.14166L89.84688 273.14166ZM89.84688 280.51666L89.84688 274.2979L90.90938 274.2979L90.90938 280.51666L89.84688 280.51666ZM94.56563 280.51666L92.20625 274.2979L93.31563 274.2979L94.65938 278.01666Q94.8625 278.62604 95.05 279.26666Q95.19063 278.7823 95.44063 278.0948L96.83125 274.2979L97.90938 274.2979L95.55 280.51666L94.56563 280.51666ZM102.09688 278.51666L103.19063 278.64166Q102.94063 279.5948 102.2375 280.12604Q101.53438 280.6573 100.45625 280.6573Q99.09688 280.6573 98.28438 279.81354Q97.4875 278.9698 97.4875 277.45416Q97.4875 275.89166 98.3 275.0323Q99.1125 274.1573 100.39375 274.1573Q101.64375 274.1573 102.425 275.00104Q103.22188 275.8448 103.22188 277.39166Q103.22188 277.4854 103.22188 277.6729L98.58125 277.6729Q98.64375 278.70416 99.15938 279.25104Q99.675 279.7823 100.45625 279.7823Q101.03438 279.7823 101.44063 279.4854Q101.8625 279.1729 102.09688 278.51666ZM98.64375 276.81354L102.1125 276.81354Q102.05 276.01666 101.72188 275.62604Q101.20625 275.01666 100.40938 275.01666Q99.675 275.01666 99.175 275.50104Q98.69063 275.9854 98.64375 276.81354ZM104.84688 273.14166L104.84688 271.9229L105.90938 271.9229L105.90938 273.14166L104.84688 273.14166ZM104.84688 280.51666L104.84688 274.2979L105.90938 274.2979L105.90938 280.51666L104.84688 280.51666ZM107.83125 280.51666L107.83125 274.2979L108.78438 274.2979L108.78438 275.2354Q109.14375 274.57916 109.44063 274.37604Q109.75313 274.1573 110.12813 274.1573Q110.65938 274.1573 111.20625 274.4854L110.84688 275.4698Q110.45625 275.2354 110.08125 275.2354Q109.72188 275.2354 109.44063 275.45416Q109.175 275.6573 109.06563 276.0323Q108.87813 276.5948 108.87813 277.25104L108.87813 280.51666L107.83125 280.51666ZM115.90938 279.75104Q115.31563 280.25104 114.76875 280.45416Q114.2375 280.6573 113.6125 280.6573Q112.58125 280.6573 112.03438 280.1573Q111.4875 279.6573 111.4875 278.87604Q111.4875 278.4229 111.69063 278.0479Q111.89375 277.6573 112.2375 277.43854Q112.58125 277.20416 113.00313 277.0948Q113.3 277.00104 113.94063 276.9229Q115.20625 276.7823 115.81563 276.56354Q115.81563 276.3448 115.81563 276.2979Q115.81563 275.64166 115.51875 275.37604Q115.1125 275.0323 114.31563 275.0323Q113.58125 275.0323 113.22188 275.2979Q112.8625 275.5479 112.69063 276.20416L111.65938 276.06354Q111.8 275.4073 112.12813 275.00104Q112.45625 274.5948 113.06563 274.37604Q113.675 274.1573 114.47188 274.1573Q115.26875 274.1573 115.76875 274.3448Q116.26875 274.5323 116.50313 274.81354Q116.7375 275.0948 116.83125 275.5323Q116.87813 275.7979 116.87813 276.50104L116.87813 277.9073Q116.87813 279.37604 116.94063 279.76666Q117.01875 280.1573 117.22188 280.51666L116.1125 280.51666Q115.95625 280.18854 115.90938 279.75104ZM115.81563 277.39166Q115.2375 277.62604 114.09688 277.7979Q113.44063 277.89166 113.175 278.01666Q112.90938 278.12604 112.75313 278.3448Q112.6125 278.56354 112.6125 278.8448Q112.6125 279.26666 112.925 279.5479Q113.25313 279.82916 113.8625 279.82916Q114.47188 279.82916 114.94063 279.56354Q115.425 279.2979 115.64375 278.82916Q115.81563 278.4698 115.81563 277.7823L115.81563 277.39166Z" fill-rule="nonzero"/><path fill="#000000" d="M39.628124 335.4947Q39.628124 333.35406 40.76875 332.15094Q41.925 330.9322 43.7375 330.9322Q44.940624 330.9322 45.89375 331.5103Q46.846874 332.0728 47.346874 333.08844Q47.846874 334.10406 47.846874 335.40094Q47.846874 336.6978 47.315624 337.72906Q46.784374 338.7603 45.815624 339.29156Q44.8625 339.8228 43.7375 339.8228Q42.51875 339.8228 41.565624 339.2447Q40.6125 338.65094 40.1125 337.65094Q39.628124 336.6353 39.628124 335.4947ZM40.8 335.5103Q40.8 337.0728 41.628124 337.96344Q42.471874 338.85406 43.7375 338.85406Q45.01875 338.85406 45.846874 337.96344Q46.675 337.0572 46.675 335.3853Q46.675 334.33844 46.315624 333.5572Q45.971874 332.77594 45.284374 332.35406Q44.596874 331.91656 43.753124 331.91656Q42.55 331.91656 41.675 332.7447Q40.8 333.5728 40.8 335.5103ZM43.01875 330.5572L43.8 328.91656L45.190624 328.91656L43.89375 330.5572L43.01875 330.5572ZM48.815624 339.6822L48.815624 331.08844L49.878124 331.08844L49.878124 339.6822L48.815624 339.6822ZM56.096874 337.6822L57.190624 337.8072Q56.940624 338.7603 56.2375 339.29156Q55.534374 339.8228 54.45625 339.8228Q53.096874 339.8228 52.284374 338.97906Q51.4875 338.1353 51.4875 336.6197Q51.4875 335.0572 52.3 334.1978Q53.1125 333.3228 54.39375 333.3228Q55.64375 333.3228 56.425 334.16656Q57.221874 335.0103 57.221874 336.5572Q57.221874 336.65094 57.221874 336.83844L52.58125 336.83844Q52.64375 337.8697 53.159374 338.41656Q53.675 338.9478 54.45625 338.9478Q55.034374 338.9478 55.440624 338.65094Q55.8625 338.33844 56.096874 337.6822ZM52.64375 335.97906L56.1125 335.97906Q56.05 335.1822 55.721874 334.79156Q55.20625 334.1822 54.409374 334.1822Q53.675 334.1822 53.175 334.66656Q52.690624 335.15094 52.64375 335.97906ZM58.45625 336.5728Q58.45625 334.83844 59.409374 334.0103Q60.20625 333.3228 61.3625 333.3228Q62.64375 333.3228 63.45625 334.16656Q64.28438 334.9947 64.28438 336.47906Q64.28438 337.6822 63.925 338.3697Q63.565624 339.0572 62.8625 339.4478Q62.175 339.8228 61.3625 339.8228Q60.065624 339.8228 59.253124 338.9947Q58.45625 338.15094 58.45625 336.5728ZM59.534374 336.5728Q59.534374 337.7603 60.05 338.35406Q60.58125 338.9478 61.3625 338.9478Q62.159374 338.9478 62.675 338.35406Q63.190624 337.7603 63.190624 336.54156Q63.190624 335.3853 62.659374 334.79156Q62.14375 334.1978 61.3625 334.1978Q60.58125 334.1978 60.05 334.79156Q59.534374 335.3697 59.534374 336.5728ZM72.87813 339.6822L72.87813 338.90094Q72.28438 339.8228 71.14375 339.8228Q70.39375 339.8228 69.76875 339.41656Q69.14375 338.9947 68.8 338.2603Q68.45625 337.52594 68.45625 336.5728Q68.45625 335.65094 68.76875 334.8853Q69.08125 334.1197 69.70625 333.72906Q70.33125 333.3228 71.09688 333.3228Q71.65938 333.3228 72.09688 333.5572Q72.53438 333.79156 72.81563 334.16656L72.81563 331.08844L73.8625 331.08844L73.8625 339.6822L72.87813 339.6822ZM69.55 336.5728Q69.55 337.77594 70.05 338.3697Q70.55 338.9478 71.2375 338.9478Q71.925 338.9478 72.40938 338.3853Q72.89375 337.8228 72.89375 336.66656Q72.89375 335.3853 72.39375 334.79156Q71.90938 334.1978 71.19063 334.1978Q70.4875 334.1978 70.01875 334.77594Q69.55 335.33844 69.55 336.5728ZM80.09688 337.6822L81.19063 337.8072Q80.94063 338.7603 80.2375 339.29156Q79.53438 339.8228 78.45625 339.8228Q77.09688 339.8228 76.28438 338.97906Q75.4875 338.1353 75.4875 336.6197Q75.4875 335.0572 76.3 334.1978Q77.1125 333.3228 78.39375 333.3228Q79.64375 333.3228 80.425 334.16656Q81.22188 335.0103 81.22188 336.5572Q81.22188 336.65094 81.22188 336.83844L76.58125 336.83844Q76.64375 337.8697 77.15938 338.41656Q77.675 338.9478 78.45625 338.9478Q79.03438 338.9478 79.44063 338.65094Q79.8625 338.33844 80.09688 337.6822ZM76.64375 335.97906L80.1125 335.97906Q80.05 335.1822 79.72188 334.79156Q79.20625 334.1822 78.40938 334.1822Q77.675 334.1822 77.175 334.66656Q76.69063 335.15094 76.64375 335.97906ZM85.84688 339.6822L85.84688 333.46344L86.78438 333.46344L86.78438 334.33844Q87.47188 333.3228 88.76875 333.3228Q89.33125 333.3228 89.8 333.52594Q90.28438 333.72906 90.51875 334.0572Q90.75313 334.3853 90.84688 334.8228Q90.89375 335.1197 90.89375 335.85406L90.89375 339.6822L89.84688 339.6822L89.84688 335.90094Q89.84688 335.2447 89.72188 334.9322Q89.59688 334.6197 89.28438 334.4322Q88.97188 334.22906 88.55 334.22906Q87.87813 334.22906 87.37813 334.66656Q86.89375 335.08844 86.89375 336.27594L86.89375 339.6822L85.84688 339.6822ZM92.45625 336.5728Q92.45625 334.83844 93.40938 334.0103Q94.20625 333.3228 95.3625 333.3228Q96.64375 333.3228 97.45625 334.16656Q98.28438 334.9947 98.28438 336.47906Q98.28438 337.6822 97.925 338.3697Q97.56563 339.0572 96.8625 339.4478Q96.175 339.8228 95.3625 339.8228Q94.06563 339.8228 93.25313 338.9947Q92.45625 338.15094 92.45625 336.5728ZM93.53438 336.5728Q93.53438 337.7603 94.05 338.35406Q94.58125 338.9478 95.3625 338.9478Q96.15938 338.9478 96.675 338.35406Q97.19063 337.7603 97.19063 336.54156Q97.19063 335.3853 96.65938 334.79156Q96.14375 334.1978 95.3625 334.1978Q94.58125 334.1978 94.05 334.79156Q93.53438 335.3697 93.53438 336.5728ZM99.28438 339.6822L99.28438 338.8228L103.25313 334.27594Q102.56563 334.3072 102.05 334.3072L99.51875 334.3072L99.51875 333.46344L104.6125 333.46344L104.6125 334.15094L101.2375 338.10406L100.58125 338.8228Q101.3 338.77594 101.90938 338.77594L104.8 338.77594L104.8 339.6822L99.28438 339.6822ZM109.09688 337.6822L110.19063 337.8072Q109.94063 338.7603 109.2375 339.29156Q108.53438 339.8228 107.45625 339.8228Q106.09688 339.8228 105.28438 338.97906Q104.4875 338.1353 104.4875 336.6197Q104.4875 335.0572 105.3 334.1978Q106.1125 333.3228 107.39375 333.3228Q108.64375 333.3228 109.425 334.16656Q110.22188 335.0103 110.22188 336.5572Q110.22188 336.65094 110.22188 336.83844L105.58125 336.83844Q105.64375 337.8697 106.15938 338.41656Q106.675 338.9478 107.45625 338.9478Q108.03438 338.9478 108.44063 338.65094Q108.8625 338.33844 109.09688 337.6822ZM105.64375 335.97906L109.1125 335.97906Q109.05 335.1822 108.72188 334.79156Q108.20625 334.1822 107.40938 334.1822Q106.675 334.1822 106.175 334.66656Q105.69063 335.15094 105.64375 335.97906ZM111.425 337.8228L112.45625 337.66656Q112.55 338.29156 112.94063 338.6197Q113.34688 338.9478 114.08125 338.9478Q114.8 338.9478 115.14375 338.66656Q115.50313 338.3697 115.50313 337.96344Q115.50313 337.60406 115.19063 337.40094Q114.97188 337.2603 114.1125 337.04156Q112.95625 336.7447 112.50313 336.54156Q112.06563 336.3228 111.83125 335.9478Q111.59688 335.5728 111.59688 335.10406Q111.59688 334.6978 111.78438 334.33844Q111.97188 333.97906 112.3 333.7447Q112.55 333.5728 112.97188 333.4478Q113.39375 333.3228 113.89375 333.3228Q114.6125 333.3228 115.15938 333.54156Q115.72188 333.7447 115.9875 334.10406Q116.25313 334.46344 116.34688 335.0572L115.31563 335.1978Q115.25313 334.72906 114.90938 334.46344Q114.58125 334.1822 113.95625 334.1822Q113.2375 334.1822 112.925 334.4322Q112.6125 334.66656 112.6125 334.9947Q112.6125 335.1978 112.7375 335.35406Q112.87813 335.52594 113.14375 335.6353Q113.3 335.6978 114.08125 335.90094Q115.20625 336.21344 115.64375 336.40094Q116.08125 336.58844 116.33125 336.9478Q116.58125 337.3072 116.58125 337.85406Q116.58125 338.3853 116.26875 338.85406Q115.97188 339.3072 115.39375 339.5728Q114.81563 339.8228 114.08125 339.8228Q112.8625 339.8228 112.22188 339.3228Q111.59688 338.8072 111.425 337.8228Z" fill-rule="nonzero"/><path fill="#000000" d="M78.00313 395.47272L78.00313 394.47272L81.62813 394.4571L81.62813 397.6446Q80.8 398.31647 79.90938 398.66022Q79.01875 398.98834 78.08125 398.98834Q76.81563 398.98834 75.76875 398.4571Q74.7375 397.91022 74.20625 396.8946Q73.69063 395.86334 73.69063 394.59772Q73.69063 393.3321 74.20625 392.25397Q74.7375 391.16022 75.72188 390.6446Q76.70625 390.11334 77.9875 390.11334Q78.925 390.11334 79.675 390.41022Q80.425 390.7071 80.84688 391.25397Q81.28438 391.78522 81.50313 392.66022L80.4875 392.94147Q80.28438 392.28522 79.9875 391.91022Q79.70625 391.53522 79.175 391.31647Q78.64375 391.0821 78.00313 391.0821Q77.22188 391.0821 76.64375 391.31647Q76.08125 391.55084 75.72188 391.94147Q75.37813 392.3321 75.19063 392.80084Q74.8625 393.59772 74.8625 394.5196Q74.8625 395.67584 75.25313 396.4571Q75.65938 397.22272 76.40938 397.59772Q77.15938 397.97272 78.01875 397.97272Q78.75313 397.97272 79.45625 397.69147Q80.15938 397.3946 80.51875 397.0821L80.51875 395.47272L78.00313 395.47272ZM82.45625 395.73834Q82.45625 394.00397 83.40938 393.17584Q84.20625 392.48834 85.3625 392.48834Q86.64375 392.48834 87.45625 393.3321Q88.28438 394.16022 88.28438 395.6446Q88.28438 396.84772 87.925 397.53522Q87.56563 398.22272 86.8625 398.61334Q86.175 398.98834 85.3625 398.98834Q84.06563 398.98834 83.25313 398.16022Q82.45625 397.31647 82.45625 395.73834ZM83.53438 395.73834Q83.53438 396.92584 84.05 397.5196Q84.58125 398.11334 85.3625 398.11334Q86.15938 398.11334 86.675 397.5196Q87.19063 396.92584 87.19063 395.7071Q87.19063 394.55084 86.65938 393.9571Q86.14375 393.36334 85.3625 393.36334Q84.58125 393.36334 84.05 393.9571Q83.53438 394.53522 83.53438 395.73834ZM89.83125 398.84772L89.83125 392.62897L90.78438 392.62897L90.78438 393.56647Q91.14375 392.91022 91.44063 392.7071Q91.75313 392.48834 92.12813 392.48834Q92.65938 392.48834 93.20625 392.81647L92.84688 393.80084Q92.45625 393.56647 92.08125 393.56647Q91.72188 393.56647 91.44063 393.78522Q91.175 393.98834 91.06563 394.36334Q90.87813 394.92584 90.87813 395.5821L90.87813 398.84772L89.83125 398.84772ZM97.87813 398.84772L97.87813 398.06647Q97.28438 398.98834 96.14375 398.98834Q95.39375 398.98834 94.76875 398.5821Q94.14375 398.16022 93.8 397.42584Q93.45625 396.69147 93.45625 395.73834Q93.45625 394.81647 93.76875 394.05084Q94.08125 393.28522 94.70625 392.8946Q95.33125 392.48834 96.09688 392.48834Q96.65938 392.48834 97.09688 392.72272Q97.53438 392.9571 97.81563 393.3321L97.81563 390.25397L98.8625 390.25397L98.8625 398.84772L97.87813 398.84772ZM94.55 395.73834Q94.55 396.94147 95.05 397.53522Q95.55 398.11334 96.2375 398.11334Q96.925 398.11334 97.40938 397.55084Q97.89375 396.98834 97.89375 395.8321Q97.89375 394.55084 97.39375 393.9571Q96.90938 393.36334 96.19063 393.36334Q95.4875 393.36334 95.01875 393.94147Q94.55 394.50397 94.55 395.73834ZM104.925 398.84772L104.925 397.92584Q104.19063 398.98834 102.94063 398.98834Q102.39375 398.98834 101.90938 398.78522Q101.44063 398.56647 101.20625 398.25397Q100.97188 397.92584 100.87813 397.4571Q100.81563 397.16022 100.81563 396.47272L100.81563 392.62897L101.87813 392.62897L101.87813 396.0821Q101.87813 396.8946 101.94063 397.19147Q102.03438 397.59772 102.34688 397.84772Q102.675 398.0821 103.15938 398.0821Q103.62813 398.0821 104.03438 397.84772Q104.45625 397.59772 104.62813 397.17584Q104.81563 396.75397 104.81563 395.9571L104.81563 392.62897L105.8625 392.62897L105.8625 398.84772L104.925 398.84772ZM107.83125 398.84772L107.83125 392.62897L108.78438 392.62897L108.78438 393.56647Q109.14375 392.91022 109.44063 392.7071Q109.75313 392.48834 110.12813 392.48834Q110.65938 392.48834 111.20625 392.81647L110.84688 393.80084Q110.45625 393.56647 110.08125 393.56647Q109.72188 393.56647 109.44063 393.78522Q109.175 393.98834 109.06563 394.36334Q108.87813 394.92584 108.87813 395.5821L108.87813 398.84772L107.83125 398.84772ZM115.90938 398.0821Q115.31563 398.5821 114.76875 398.78522Q114.2375 398.98834 113.6125 398.98834Q112.58125 398.98834 112.03438 398.48834Q111.4875 397.98834 111.4875 397.2071Q111.4875 396.75397 111.69063 396.37897Q111.89375 395.98834 112.2375 395.7696Q112.58125 395.53522 113.00313 395.42584Q113.3 395.3321 113.94063 395.25397Q115.20625 395.11334 115.81563 394.8946Q115.81563 394.67584 115.81563 394.62897Q115.81563 393.97272 115.51875 393.7071Q115.1125 393.36334 114.31563 393.36334Q113.58125 393.36334 113.22188 393.62897Q112.8625 393.87897 112.69063 394.53522L111.65938 394.3946Q111.8 393.73834 112.12813 393.3321Q112.45625 392.92584 113.06563 392.7071Q113.675 392.48834 114.47188 392.48834Q115.26875 392.48834 115.76875 392.67584Q116.26875 392.86334 116.50313 393.1446Q116.7375 393.42584 116.83125 393.86334Q116.87813 394.12897 116.87813 394.8321L116.87813 396.23834Q116.87813 397.7071 116.94063 398.09772Q117.01875 398.48834 117.22188 398.84772L116.1125 398.84772Q115.95625 398.5196 115.90938 398.0821ZM115.81563 395.72272Q115.2375 395.9571 114.09688 396.12897Q113.44063 396.22272 113.175 396.34772Q112.90938 396.4571 112.75313 396.67584Q112.6125 396.8946 112.6125 397.17584Q112.6125 397.59772 112.925 397.87897Q113.25313 398.16022 113.8625 398.16022Q114.47188 398.16022 114.94063 397.8946Q115.425 397.62897 115.64375 397.16022Q115.81563 396.80084 115.81563 396.11334L115.81563 395.72272Z" fill-rule="nonzero"/><path fill="#000000" d="M81.03438 458.01328L81.03438 449.41953L86.83125 449.41953L86.83125 450.43515L82.175 450.43515L82.175 453.0914L86.20625 453.0914L86.20625 454.10703L82.175 454.10703L82.175 458.01328L81.03438 458.01328ZM87.84688 450.63828L87.84688 449.41953L88.90938 449.41953L88.90938 450.63828L87.84688 450.63828ZM87.84688 458.01328L87.84688 451.79453L88.90938 451.79453L88.90938 458.01328L87.84688 458.01328ZM91.81563 458.01328L90.83125 458.01328L90.83125 449.41953L91.89375 449.41953L91.89375 452.48203Q92.56563 451.6539 93.59688 451.6539Q94.175 451.6539 94.675 451.88828Q95.19063 452.10703 95.51875 452.5289Q95.8625 452.95078 96.05 453.54453Q96.2375 454.13828 96.2375 454.81015Q96.2375 456.4039 95.44063 457.2789Q94.64375 458.1539 93.55 458.1539Q92.44063 458.1539 91.81563 457.23203L91.81563 458.01328ZM91.8 454.85703Q91.8 455.9664 92.1125 456.4664Q92.6125 457.2789 93.45625 457.2789Q94.14375 457.2789 94.64375 456.68515Q95.15938 456.0914 95.15938 454.88828Q95.15938 453.66953 94.675 453.0914Q94.19063 452.51328 93.50313 452.51328Q92.81563 452.51328 92.3 453.12265Q91.8 453.7164 91.8 454.85703ZM97.83125 458.01328L97.83125 451.79453L98.78438 451.79453L98.78438 452.73203Q99.14375 452.07578 99.44063 451.87265Q99.75313 451.6539 100.12813 451.6539Q100.65938 451.6539 101.20625 451.98203L100.84688 452.9664Q100.45625 452.73203 100.08125 452.73203Q99.72188 452.73203 99.44063 452.95078Q99.175 453.1539 99.06563 453.5289Q98.87813 454.0914 98.87813 454.74765L98.87813 458.01328L97.83125 458.01328ZM101.84688 450.63828L101.84688 449.41953L102.90938 449.41953L102.90938 450.63828L101.84688 450.63828ZM101.84688 458.01328L101.84688 451.79453L102.90938 451.79453L102.90938 458.01328L101.84688 458.01328ZM104.84688 458.01328L104.84688 451.79453L105.78438 451.79453L105.78438 452.66953Q106.47188 451.6539 107.76875 451.6539Q108.33125 451.6539 108.8 451.85703Q109.28438 452.06015 109.51875 452.38828Q109.75313 452.7164 109.84688 453.1539Q109.89375 453.45078 109.89375 454.18515L109.89375 458.01328L108.84688 458.01328L108.84688 454.23203Q108.84688 453.57578 108.72188 453.26328Q108.59688 452.95078 108.28438 452.76328Q107.97188 452.56015 107.55 452.56015Q106.87813 452.56015 106.37813 452.99765Q105.89375 453.41953 105.89375 454.60703L105.89375 458.01328L104.84688 458.01328ZM115.90938 457.24765Q115.31563 457.74765 114.76875 457.95078Q114.2375 458.1539 113.6125 458.1539Q112.58125 458.1539 112.03438 457.6539Q111.4875 457.1539 111.4875 456.37265Q111.4875 455.91953 111.69063 455.54453Q111.89375 455.1539 112.2375 454.93515Q112.58125 454.70078 113.00313 454.5914Q113.3 454.49765 113.94063 454.41953Q115.20625 454.2789 115.81563 454.06015Q115.81563 453.8414 115.81563 453.79453Q115.81563 453.13828 115.51875 452.87265Q115.1125 452.5289 114.31563 452.5289Q113.58125 452.5289 113.22188 452.79453Q112.8625 453.04453 112.69063 453.70078L111.65938 453.56015Q111.8 452.9039 112.12813 452.49765Q112.45625 452.0914 113.06563 451.87265Q113.675 451.6539 114.47188 451.6539Q115.26875 451.6539 115.76875 451.8414Q116.26875 452.0289 116.50313 452.31015Q116.7375 452.5914 116.83125 453.0289Q116.87813 453.29453 116.87813 453.99765L116.87813 455.4039Q116.87813 456.87265 116.94063 457.26328Q117.01875 457.6539 117.22188 458.01328L116.1125 458.01328Q115.95625 457.68515 115.90938 457.24765ZM115.81563 454.88828Q115.2375 455.12265 114.09688 455.29453Q113.44063 455.38828 113.175 455.51328Q112.90938 455.62265 112.75313 455.8414Q112.6125 456.06015 112.6125 456.3414Q112.6125 456.76328 112.925 457.04453Q113.25313 457.32578 113.8625 457.32578Q114.47188 457.32578 114.94063 457.06015Q115.425 456.79453 115.64375 456.32578Q115.81563 455.9664 115.81563 455.2789L115.81563 454.88828Z" fill-rule="nonzero"/><path fill="#000000" d="M115.55 506.71564Q115.55 505.1844 115.8625 504.2625Q116.175 503.325 116.78438 502.825Q117.40938 502.325 118.34688 502.325Q119.03438 502.325 119.55 502.60626Q120.08125 502.8875 120.425 503.41876Q120.76875 503.9344 120.95625 504.6844Q121.14375 505.4344 121.14375 506.71564Q121.14375 508.23126 120.83125 509.15314Q120.53438 510.075 119.90938 510.59064Q119.3 511.09064 118.34688 511.09064Q117.1125 511.09064 116.39375 510.2Q115.55 509.1375 115.55 506.71564ZM116.62813 506.71564Q116.62813 508.825 117.12813 509.52814Q117.62813 510.23126 118.34688 510.23126Q119.08125 510.23126 119.56563 509.52814Q120.06563 508.825 120.06563 506.71564Q120.06563 504.59064 119.56563 503.90314Q119.08125 503.2 118.33125 503.2Q117.6125 503.2 117.175 503.8094Q116.62813 504.59064 116.62813 506.71564ZM122.75313 504.41876Q122.75313 503.4969 123.20625 502.85626Q123.675 502.21564 124.55 502.21564Q125.3625 502.21564 125.89375 502.79376Q126.425 503.3719 126.425 504.48126Q126.425 505.575 125.87813 506.16876Q125.34688 506.7469 124.56563 506.7469Q123.78438 506.7469 123.26875 506.16876Q122.75313 505.59064 122.75313 504.41876ZM124.58125 502.9344Q124.19063 502.9344 123.925 503.27814Q123.675 503.6219 123.675 504.52814Q123.675 505.35626 123.925 505.7Q124.19063 506.02814 124.58125 506.02814Q124.9875 506.02814 125.2375 505.6844Q125.50313 505.34064 125.50313 504.45Q125.50313 503.60626 125.2375 503.27814Q124.97188 502.9344 124.58125 502.9344ZM124.58125 511.2625L129.28438 502.21564L130.14375 502.21564L125.45625 511.2625L124.58125 511.2625ZM128.3 508.9344Q128.3 508.0125 128.75313 507.3719Q129.22188 506.73126 130.1125 506.73126Q130.925 506.73126 131.45625 507.3094Q131.9875 507.8719 131.9875 508.9969Q131.9875 510.09064 131.44063 510.6844Q130.90938 511.2625 130.1125 511.2625Q129.34688 511.2625 128.81563 510.6844Q128.3 510.10626 128.3 508.9344ZM130.14375 507.45Q129.7375 507.45 129.47188 507.79376Q129.22188 508.1375 129.22188 509.04376Q129.22188 509.85626 129.4875 510.2Q129.75313 510.54376 130.14375 510.54376Q130.53438 510.54376 130.8 510.2Q131.06563 509.85626 131.06563 508.95Q131.06563 508.1219 130.8 507.79376Q130.53438 507.45 130.14375 507.45Z" fill-rule="nonzero"/><path fill="#000000" d="M298.57187 509.9344L298.57187 510.95L292.88437 510.95Q292.88437 510.575 293.00937 510.21564Q293.22812 509.6375 293.69687 509.075Q294.18124 508.5125 295.0875 507.77814Q296.49374 506.6219 296.97812 505.95Q297.47812 505.27814 297.47812 504.6844Q297.47812 504.0594 297.025 503.6375Q296.57187 503.2 295.85312 503.2Q295.0875 503.2 294.63437 503.65314Q294.18124 504.10626 294.16562 504.91876L293.0875 504.8094Q293.19687 503.59064 293.91562 502.96564Q294.65 502.325 295.88437 502.325Q297.11874 502.325 297.8375 503.0125Q298.55624 503.7 298.55624 504.71564Q298.55624 505.23126 298.3375 505.73126Q298.13437 506.21564 297.63437 506.77814Q297.15 507.325 296.025 508.27814Q295.07187 509.075 294.79062 509.3719Q294.525 509.65314 294.35312 509.9344L298.57187 509.9344ZM300.025 508.7L301.13437 508.60626Q301.25937 509.41876 301.69687 509.825Q302.15 510.23126 302.79062 510.23126Q303.54062 510.23126 304.07187 509.65314Q304.60312 509.075 304.60312 508.1375Q304.60312 507.23126 304.0875 506.71564Q303.5875 506.1844 302.75937 506.1844Q302.25937 506.1844 301.8375 506.41876Q301.43124 506.65314 301.19687 507.0125L300.2125 506.8875L301.04062 502.48126L305.32187 502.48126L305.32187 503.48126L301.88437 503.48126L301.43124 505.79376Q302.19687 505.2469 303.04062 505.2469Q304.16562 505.2469 304.93124 506.02814Q305.7125 506.8094 305.7125 508.04376Q305.7125 509.2 305.04062 510.0594Q304.2125 511.09064 302.79062 511.09064Q301.61874 511.09064 300.86874 510.4344Q300.13437 509.77814 300.025 508.7ZM307.22812 504.41876Q307.22812 503.4969 307.68124 502.85626Q308.15 502.21564 309.025 502.21564Q309.8375 502.21564 310.36874 502.79376Q310.9 503.3719 310.9 504.48126Q310.9 505.575 310.35312 506.16876Q309.82187 506.7469 309.04062 506.7469Q308.25937 506.7469 307.74374 506.16876Q307.22812 505.59064 307.22812 504.41876ZM309.05624 502.9344Q308.66562 502.9344 308.4 503.27814Q308.15 503.6219 308.15 504.52814Q308.15 505.35626 308.4 505.7Q308.66562 506.02814 309.05624 506.02814Q309.4625 506.02814 309.7125 505.6844Q309.97812 505.34064 309.97812 504.45Q309.97812 503.60626 309.7125 503.27814Q309.44687 502.9344 309.05624 502.9344ZM309.05624 511.2625L313.75937 502.21564L314.61874 502.21564L309.93124 511.2625L309.05624 511.2625ZM312.775 508.9344Q312.775 508.0125 313.22812 507.3719Q313.69687 506.73126 314.5875 506.73126Q315.4 506.73126 315.93124 507.3094Q316.4625 507.8719 316.4625 508.9969Q316.4625 510.09064 315.91562 510.6844Q315.38437 511.2625 314.5875 511.2625Q313.82187 511.2625 313.29062 510.6844Q312.775 510.10626 312.775 508.9344ZM314.61874 507.45Q314.2125 507.45 313.94687 507.79376Q313.69687 508.1375 313.69687 509.04376Q313.69687 509.85626 313.9625 510.2Q314.22812 510.54376 314.61874 510.54376Q315.00937 510.54376 315.275 510.2Q315.54062 509.85626 315.54062 508.95Q315.54062 508.1219 315.275 507.79376Q315.00937 507.45 314.61874 507.45Z" fill-rule="nonzero"/><path fill="#000000" d="M474.0 508.7L475.10938 508.60626Q475.23438 509.41876 475.67188 509.825Q476.125 510.23126 476.76562 510.23126Q477.51562 510.23126 478.04688 509.65314Q478.57812 509.075 478.57812 508.1375Q478.57812 507.23126 478.0625 506.71564Q477.5625 506.1844 476.73438 506.1844Q476.23438 506.1844 475.8125 506.41876Q475.40625 506.65314 475.17188 507.0125L474.1875 506.8875L475.01562 502.48126L479.29688 502.48126L479.29688 503.48126L475.85938 503.48126L475.40625 505.79376Q476.17188 505.2469 477.01562 505.2469Q478.14062 505.2469 478.90625 506.02814Q479.6875 506.8094 479.6875 508.04376Q479.6875 509.2 479.01562 510.0594Q478.1875 511.09064 476.76562 511.09064Q475.59375 511.09064 474.84375 510.4344Q474.10938 509.77814 474.0 508.7ZM481.0 506.71564Q481.0 505.1844 481.3125 504.2625Q481.625 503.325 482.23438 502.825Q482.85938 502.325 483.79688 502.325Q484.48438 502.325 485.0 502.60626Q485.53125 502.8875 485.875 503.41876Q486.21875 503.9344 486.40625 504.6844Q486.59375 505.4344 486.59375 506.71564Q486.59375 508.23126 486.28125 509.15314Q485.98438 510.075 485.35938 510.59064Q484.75 511.09064 483.79688 511.09064Q482.5625 511.09064 481.84375 510.2Q481.0 509.1375 481.0 506.71564ZM482.07812 506.71564Q482.07812 508.825 482.57812 509.52814Q483.07812 510.23126 483.79688 510.23126Q484.53125 510.23126 485.01562 509.52814Q485.51562 508.825 485.51562 506.71564Q485.51562 504.59064 485.01562 503.90314Q484.53125 503.2 483.78125 503.2Q483.0625 503.2 482.625 503.8094Q482.07812 504.59064 482.07812 506.71564ZM488.20312 504.41876Q488.20312 503.4969 488.65625 502.85626Q489.125 502.21564 490.0 502.21564Q490.8125 502.21564 491.34375 502.79376Q491.875 503.3719 491.875 504.48126Q491.875 505.575 491.32812 506.16876Q490.79688 506.7469 490.01562 506.7469Q489.23438 506.7469 488.71875 506.16876Q488.20312 505.59064 488.20312 504.41876ZM490.03125 502.9344Q489.64062 502.9344 489.375 503.27814Q489.125 503.6219 489.125 504.52814Q489.125 505.35626 489.375 505.7Q489.64062 506.02814 490.03125 506.02814Q490.4375 506.02814 490.6875 505.6844Q490.95312 505.34064 490.95312 504.45Q490.95312 503.60626 490.6875 503.27814Q490.42188 502.9344 490.03125 502.9344ZM490.03125 511.2625L494.73438 502.21564L495.59375 502.21564L490.90625 511.2625L490.03125 511.2625ZM493.75 508.9344Q493.75 508.0125 494.20312 507.3719Q494.67188 506.73126 495.5625 506.73126Q496.375 506.73126 496.90625 507.3094Q497.4375 507.8719 497.4375 508.9969Q497.4375 510.09064 496.89062 510.6844Q496.35938 511.2625 495.5625 511.2625Q494.79688 511.2625 494.26562 510.6844Q493.75 510.10626 493.75 508.9344ZM495.59375 507.45Q495.1875 507.45 494.92188 507.79376Q494.67188 508.1375 494.67188 509.04376Q494.67188 509.85626 494.9375 510.2Q495.20312 510.54376 495.59375 510.54376Q495.98438 510.54376 496.25 510.2Q496.51562 509.85626 496.51562 508.95Q496.51562 508.1219 496.25 507.79376Q495.98438 507.45 495.59375 507.45Z" fill-rule="nonzero"/><path fill="#000000" d="M655.0375 503.48126L655.0375 502.46564L660.6 502.46564L660.6 503.29376Q659.7875 504.16876 658.975 505.6219Q658.1781 507.0594 657.7406 508.59064Q657.4125 509.66876 657.33435 510.95L656.2406 510.95Q656.2562 509.9344 656.6312 508.4969Q657.02185 507.0594 657.725 505.73126Q658.4437 504.40314 659.2562 503.48126L655.0375 503.48126ZM661.975 508.7L663.08435 508.60626Q663.20935 509.41876 663.64685 509.825Q664.1 510.23126 664.7406 510.23126Q665.4906 510.23126 666.02185 509.65314Q666.5531 509.075 666.5531 508.1375Q666.5531 507.23126 666.0375 506.71564Q665.5375 506.1844 664.70935 506.1844Q664.20935 506.1844 663.7875 506.41876Q663.3812 506.65314 663.14685 507.0125L662.1625 506.8875L662.9906 502.48126L667.27185 502.48126L667.27185 503.48126L663.83435 503.48126L663.3812 505.79376Q664.14685 505.2469 664.9906 505.2469Q666.1156 505.2469 666.8812 506.02814Q667.6625 506.8094 667.6625 508.04376Q667.6625 509.2 666.9906 510.0594Q666.1625 511.09064 664.7406 511.09064Q663.5687 511.09064 662.8187 510.4344Q662.08435 509.77814 661.975 508.7ZM669.1781 504.41876Q669.1781 503.4969 669.6312 502.85626Q670.1 502.21564 670.975 502.21564Q671.7875 502.21564 672.3187 502.79376Q672.85 503.3719 672.85 504.48126Q672.85 505.575 672.3031 506.16876Q671.77185 506.7469 670.9906 506.7469Q670.20935 506.7469 669.6937 506.16876Q669.1781 505.59064 669.1781 504.41876ZM671.0062 502.9344Q670.6156 502.9344 670.35 503.27814Q670.1 503.6219 670.1 504.52814Q670.1 505.35626 670.35 505.7Q670.6156 506.02814 671.0062 506.02814Q671.4125 506.02814 671.6625 505.6844Q671.9281 505.34064 671.9281 504.45Q671.9281 503.60626 671.6625 503.27814Q671.39685 502.9344 671.0062 502.9344ZM671.0062 511.2625L675.70935 502.21564L676.5687 502.21564L671.8812 511.2625L671.0062 511.2625ZM674.725 508.9344Q674.725 508.0125 675.1781 507.3719Q675.64685 506.73126 676.5375 506.73126Q677.35 506.73126 677.8812 507.3094Q678.4125 507.8719 678.4125 508.9969Q678.4125 510.09064 677.8656 510.6844Q677.33435 511.2625 676.5375 511.2625Q675.77185 511.2625 675.2406 510.6844Q674.725 510.10626 674.725 508.9344ZM676.5687 507.45Q676.1625 507.45 675.89685 507.79376Q675.64685 508.1375 675.64685 509.04376Q675.64685 509.85626 675.9125 510.2Q676.1781 510.54376 676.5687 510.54376Q676.95935 510.54376 677.225 510.2Q677.4906 509.85626 677.4906 508.95Q677.4906 508.1219 677.225 507.79376Q676.95935 507.45 676.5687 507.45Z" fill-rule="nonzero"/><path fill="#000000" d="M836.41876 510.95L835.3719 510.95L835.3719 504.23126Q834.98126 504.59064 834.35626 504.96564Q833.7469 505.325 833.2625 505.4969L833.2625 504.48126Q834.1375 504.0594 834.79376 503.48126Q835.46564 502.8875 835.7469 502.325L836.41876 502.325L836.41876 510.95ZM839.45 506.71564Q839.45 505.1844 839.7625 504.2625Q840.075 503.325 840.6844 502.825Q841.3094 502.325 842.2469 502.325Q842.9344 502.325 843.45 502.60626Q843.98126 502.8875 844.325 503.41876Q844.66876 503.9344 844.85626 504.6844Q845.04376 505.4344 845.04376 506.71564Q845.04376 508.23126 844.73126 509.15314Q844.4344 510.075 843.8094 510.59064Q843.2 511.09064 842.2469 511.09064Q841.0125 511.09064 840.29376 510.2Q839.45 509.1375 839.45 506.71564ZM840.52814 506.71564Q840.52814 508.825 841.02814 509.52814Q841.52814 510.23126 842.2469 510.23126Q842.98126 510.23126 843.46564 509.52814Q843.96564 508.825 843.96564 506.71564Q843.96564 504.59064 843.46564 503.90314Q842.98126 503.2 842.23126 503.2Q841.5125 503.2 841.075 503.8094Q840.52814 504.59064 840.52814 506.71564ZM846.45 506.71564Q846.45 505.1844 846.7625 504.2625Q847.075 503.325 847.6844 502.825Q848.3094 502.325 849.2469 502.325Q849.9344 502.325 850.45 502.60626Q850.98126 502.8875 851.325 503.41876Q851.66876 503.9344 851.85626 504.6844Q852.04376 505.4344 852.04376 506.71564Q852.04376 508.23126 851.73126 509.15314Q851.4344 510.075 850.8094 510.59064Q850.2 511.09064 849.2469 511.09064Q848.0125 511.09064 847.29376 510.2Q846.45 509.1375 846.45 506.71564ZM847.52814 506.71564Q847.52814 508.825 848.02814 509.52814Q848.52814 510.23126 849.2469 510.23126Q849.98126 510.23126 850.46564 509.52814Q850.96564 508.825 850.96564 506.71564Q850.96564 504.59064 850.46564 503.90314Q849.98126 503.2 849.23126 503.2Q848.5125 503.2 848.075 503.8094Q847.52814 504.59064 847.52814 506.71564ZM853.65314 504.41876Q853.65314 503.4969 854.10626 502.85626Q854.575 502.21564 855.45 502.21564Q856.2625 502.21564 856.79376 502.79376Q857.325 503.3719 857.325 504.48126Q857.325 505.575 856.77814 506.16876Q856.2469 506.7469 855.46564 506.7469Q854.6844 506.7469 854.16876 506.16876Q853.65314 505.59064 853.65314 504.41876ZM855.48126 502.9344Q855.09064 502.9344 854.825 503.27814Q854.575 503.6219 854.575 504.52814Q854.575 505.35626 854.825 505.7Q855.09064 506.02814 855.48126 506.02814Q855.8875 506.02814 856.1375 505.6844Q856.40314 505.34064 856.40314 504.45Q856.40314 503.60626 856.1375 503.27814Q855.8719 502.9344 855.48126 502.9344ZM855.48126 511.2625L860.1844 502.21564L861.04376 502.21564L856.35626 511.2625L855.48126 511.2625ZM859.2 508.9344Q859.2 508.0125 859.65314 507.3719Q860.1219 506.73126 861.0125 506.73126Q861.825 506.73126 862.35626 507.3094Q862.8875 507.8719 862.8875 508.9969Q862.8875 510.09064 862.34064 510.6844Q861.8094 511.2625 861.0125 511.2625Q860.2469 511.2625 859.71564 510.6844Q859.2 510.10626 859.2 508.9344ZM861.04376 507.45Q860.6375 507.45 860.3719 507.79376Q860.1219 508.1375 860.1219 509.04376Q860.1219 509.85626 860.3875 510.2Q860.65314 510.54376 861.04376 510.54376Q861.4344 510.54376 861.7 510.2Q861.96564 509.85626 861.96564 508.95Q861.96564 508.1219 861.7 507.79376Q861.4344 507.45 861.04376 507.45Z" fill-rule="nonzero"/><path fill="#4285f4" d="M266.5 29.05C266.5 28.497715 266.94772 28.05 267.5 28.05L277.5 28.05C278.05228 28.05 278.5 28.497715 278.5 29.05L278.5 39.05C278.5 39.602283 278.05228 40.05 277.5 40.05L267.5 40.05C266.94772 40.05 266.5 39.602283 266.5 39.05Z" fill-rule="nonzero"/><path fill="#1a1a1a" d="M293.5625 35.034374L294.6875 35.33125Q294.32812 36.721874 293.40625 37.45625Q292.48438 38.190624 291.14062 38.190624Q289.75 38.190624 288.875 37.628124Q288.0 37.065624 287.54688 36.003124Q287.09375 34.925 287.09375 33.690624Q287.09375 32.346874 287.60938 31.346874Q288.125 30.346874 289.0625 29.83125Q290.01562 29.315624 291.15625 29.315624Q292.4375 29.315624 293.3125 29.971874Q294.20312 30.628124 294.54688 31.815624L293.42188 32.08125Q293.125 31.14375 292.54688 30.721874Q291.98438 30.284374 291.125 30.284374Q290.14062 30.284374 289.46875 30.76875Q288.8125 31.2375 288.53125 32.034374Q288.26562 32.83125 288.26562 33.690624Q288.26562 34.784374 288.57812 35.596874Q288.90625 36.409374 289.57812 36.815624Q290.25 37.221874 291.04688 37.221874Q292.0 37.221874 292.65625 36.675Q293.32812 36.128124 293.5625 35.034374ZM300.35938 37.284374Q299.76562 37.784374 299.21875 37.9875Q298.6875 38.190624 298.0625 38.190624Q297.03125 38.190624 296.48438 37.690624Q295.9375 37.190624 295.9375 36.409374Q295.9375 35.95625 296.14062 35.58125Q296.34375 35.190624 296.6875 34.971874Q297.03125 34.7375 297.45312 34.628124Q297.75 34.534374 298.39062 34.45625Q299.65625 34.315624 300.26562 34.096874Q300.26562 33.878124 300.26562 33.83125Q300.26562 33.175 299.96875 32.909374Q299.5625 32.565624 298.76562 32.565624Q298.03125 32.565624 297.67188 32.83125Q297.3125 33.08125 297.14062 33.7375L296.10938 33.596874Q296.25 32.940624 296.57812 32.534374Q296.90625 32.128124 297.51562 31.909374Q298.125 31.690624 298.92188 31.690624Q299.71875 31.690624 300.21875 31.878124Q300.71875 32.065624 300.95312 32.346874Q301.1875 32.628124 301.28125 33.065624Q301.32812 33.33125 301.32812 34.034374L301.32812 35.440624Q301.32812 36.909374 301.39062 37.3Q301.46875 37.690624 301.67188 38.05L300.5625 38.05Q300.40625 37.721874 300.35938 37.284374ZM300.26562 34.925Q299.6875 35.159374 298.54688 35.33125Q297.89062 35.425 297.625 35.55Q297.35938 35.659374 297.20312 35.878124Q297.0625 36.096874 297.0625 36.378124Q297.0625 36.8 297.375 37.08125Q297.70312 37.3625 298.3125 37.3625Q298.92188 37.3625 299.39062 37.096874Q299.875 36.83125 300.09375 36.3625Q300.26562 36.003124 300.26562 35.315624L300.26562 34.925ZM303.28125 38.05L303.28125 31.83125L304.23438 31.83125L304.23438 32.76875Q304.59375 32.1125 304.89062 31.909374Q305.20312 31.690624 305.57812 31.690624Q306.10938 31.690624 306.65625 32.01875L306.29688 33.003124Q305.90625 32.76875 305.53125 32.76875Q305.17188 32.76875 304.89062 32.9875Q304.625 33.190624 304.51562 33.565624Q304.32812 34.128124 304.32812 34.784374L304.32812 38.05L303.28125 38.05ZM308.26562 38.05L307.28125 38.05L307.28125 29.45625L308.34375 29.45625L308.34375 32.51875Q309.01562 31.690624 310.04688 31.690624Q310.625 31.690624 311.125 31.925Q311.64062 32.14375 311.96875 32.565624Q312.3125 32.9875 312.5 33.58125Q312.6875 34.175 312.6875 34.846874Q312.6875 36.440624 311.89062 37.315624Q311.09375 38.190624 310.0 38.190624Q308.89062 38.190624 308.26562 37.26875L308.26562 38.05ZM308.25 34.89375Q308.25 36.003124 308.5625 36.503124Q309.0625 37.315624 309.90625 37.315624Q310.59375 37.315624 311.09375 36.721874Q311.60938 36.128124 311.60938 34.925Q311.60938 33.70625 311.125 33.128124Q310.64062 32.55 309.95312 32.55Q309.26562 32.55 308.75 33.159374Q308.25 33.753124 308.25 34.89375ZM313.90625 34.940624Q313.90625 33.20625 314.85938 32.378124Q315.65625 31.690624 316.8125 31.690624Q318.09375 31.690624 318.90625 32.534374Q319.73438 33.3625 319.73438 34.846874Q319.73438 36.05 319.375 36.7375Q319.01562 37.425 318.3125 37.815624Q317.625 38.190624 316.8125 38.190624Q315.51562 38.190624 314.70312 37.3625Q313.90625 36.51875 313.90625 34.940624ZM314.98438 34.940624Q314.98438 36.128124 315.5 36.721874Q316.03125 37.315624 316.8125 37.315624Q317.60938 37.315624 318.125 36.721874Q318.64062 36.128124 318.64062 34.909374Q318.64062 33.753124 318.10938 33.159374Q317.59375 32.565624 316.8125 32.565624Q316.03125 32.565624 315.5 33.159374Q314.98438 33.7375 314.98438 34.940624ZM321.29688 38.05L321.29688 31.83125L322.23438 31.83125L322.23438 32.70625Q322.92188 31.690624 324.21875 31.690624Q324.78125 31.690624 325.25 31.89375Q325.73438 32.096874 325.96875 32.425Q326.20312 32.753124 326.29688 33.190624Q326.34375 33.4875 326.34375 34.221874L326.34375 38.05L325.29688 38.05L325.29688 34.26875Q325.29688 33.6125 325.17188 33.3Q325.04688 32.9875 324.73438 32.8Q324.42188 32.596874 324.0 32.596874Q323.32812 32.596874 322.82812 33.034374Q322.34375 33.45625 322.34375 34.64375L322.34375 38.05L321.29688 38.05ZM327.90625 34.940624Q327.90625 33.20625 328.85938 32.378124Q329.65625 31.690624 330.8125 31.690624Q332.09375 31.690624 332.90625 32.534374Q333.73438 33.3625 333.73438 34.846874Q333.73438 36.05 333.375 36.7375Q333.01562 37.425 332.3125 37.815624Q331.625 38.190624 330.8125 38.190624Q329.51562 38.190624 328.70312 37.3625Q327.90625 36.51875 327.90625 34.940624ZM328.98438 34.940624Q328.98438 36.128124 329.5 36.721874Q330.03125 37.315624 330.8125 37.315624Q331.60938 37.315624 332.125 36.721874Q332.64062 36.128124 332.64062 34.909374Q332.64062 33.753124 332.10938 33.159374Q331.59375 32.565624 330.8125 32.565624Q330.03125 32.565624 329.5 33.159374Q328.98438 33.7375 328.98438 34.940624Z" fill-rule="nonzero"/><path fill="#ea4335" d="M350.5 29.05C350.5 28.497715 350.94772 28.05 351.5 28.05L361.5 28.05C362.05228 28.05 362.5 28.497715 362.5 29.05L362.5 39.05C362.5 39.602283 362.05228 40.05 361.5 40.05L351.5 40.05C350.94772 40.05 350.5 39.602283 350.5 39.05Z" fill-rule="nonzero"/><path fill="#1a1a1a" d="M371.46875 38.05L371.46875 29.45625L372.59375 29.45625L372.59375 32.9875L377.0625 32.9875L377.0625 29.45625L378.20312 29.45625L378.20312 38.05L377.0625 38.05L377.0625 34.003124L372.59375 34.003124L372.59375 38.05L371.46875 38.05ZM380.29688 30.675L380.29688 29.45625L381.35938 29.45625L381.35938 30.675L380.29688 30.675ZM380.29688 38.05L380.29688 31.83125L381.35938 31.83125L381.35938 38.05L380.29688 38.05ZM387.32812 38.05L387.32812 37.26875Q386.73438 38.190624 385.59375 38.190624Q384.84375 38.190624 384.21875 37.784374Q383.59375 37.3625 383.25 36.628124Q382.90625 35.89375 382.90625 34.940624Q382.90625 34.01875 383.21875 33.253124Q383.53125 32.4875 384.15625 32.096874Q384.78125 31.690624 385.54688 31.690624Q386.10938 31.690624 386.54688 31.925Q386.98438 32.159374 387.26562 32.534374L387.26562 29.45625L388.3125 29.45625L388.3125 38.05L387.32812 38.05ZM384.0 34.940624Q384.0 36.14375 384.5 36.7375Q385.0 37.315624 385.6875 37.315624Q386.375 37.315624 386.85938 36.753124Q387.34375 36.190624 387.34375 35.034374Q387.34375 33.753124 386.84375 33.159374Q386.35938 32.565624 385.64062 32.565624Q384.9375 32.565624 384.46875 33.14375Q384.0 33.70625 384.0 34.940624ZM390.28125 38.05L390.28125 31.83125L391.23438 31.83125L391.23438 32.76875Q391.59375 32.1125 391.89062 31.909374Q392.20312 31.690624 392.57812 31.690624Q393.10938 31.690624 393.65625 32.01875L393.29688 33.003124Q392.90625 32.76875 392.53125 32.76875Q392.17188 32.76875 391.89062 32.9875Q391.625 33.190624 391.51562 33.565624Q391.32812 34.128124 391.32812 34.784374L391.32812 38.05L390.28125 38.05ZM393.90625 34.940624Q393.90625 33.20625 394.85938 32.378124Q395.65625 31.690624 396.8125 31.690624Q398.09375 31.690624 398.90625 32.534374Q399.73438 33.3625 399.73438 34.846874Q399.73438 36.05 399.375 36.7375Q399.01562 37.425 398.3125 37.815624Q397.625 38.190624 396.8125 38.190624Q395.51562 38.190624 394.70312 37.3625Q393.90625 36.51875 393.90625 34.940624ZM394.98438 34.940624Q394.98438 36.128124 395.5 36.721874Q396.03125 37.315624 396.8125 37.315624Q397.60938 37.315624 398.125 36.721874Q398.64062 36.128124 398.64062 34.909374Q398.64062 33.753124 398.10938 33.159374Q397.59375 32.565624 396.8125 32.565624Q396.03125 32.565624 395.5 33.159374Q394.98438 33.7375 394.98438 34.940624ZM401.09375 38.565624L402.125 38.721874Q402.1875 39.190624 402.48438 39.409374Q402.875 39.70625 403.54688 39.70625Q404.28125 39.70625 404.67188 39.409374Q405.07812 39.1125 405.21875 38.596874Q405.3125 38.26875 405.29688 37.2375Q404.60938 38.05 403.57812 38.05Q402.29688 38.05 401.59375 37.128124Q400.89062 36.190624 400.89062 34.909374Q400.89062 34.01875 401.20312 33.26875Q401.53125 32.503124 402.14062 32.096874Q402.75 31.690624 403.57812 31.690624Q404.6875 31.690624 405.40625 32.58125L405.40625 31.83125L406.375 31.83125L406.375 37.20625Q406.375 38.659374 406.07812 39.26875Q405.78125 39.878124 405.14062 40.221874Q404.5 40.58125 403.5625 40.58125Q402.45312 40.58125 401.76562 40.08125Q401.07812 39.58125 401.09375 38.565624ZM401.96875 34.83125Q401.96875 36.05 402.45312 36.6125Q402.9375 37.175 403.67188 37.175Q404.40625 37.175 404.89062 36.6125Q405.39062 36.05 405.39062 34.8625Q405.39062 33.721874 404.875 33.14375Q404.375 32.565624 403.65625 32.565624Q402.95312 32.565624 402.45312 33.14375Q401.96875 33.70625 401.96875 34.83125ZM412.54688 36.05L413.64062 36.175Q413.39062 37.128124 412.6875 37.659374Q411.98438 38.190624 410.90625 38.190624Q409.54688 38.190624 408.73438 37.346874Q407.9375 36.503124 407.9375 34.9875Q407.9375 33.425 408.75 32.565624Q409.5625 31.690624 410.84375 31.690624Q412.09375 31.690624 412.875 32.534374Q413.67188 33.378124 413.67188 34.925Q413.67188 35.01875 413.67188 35.20625L409.03125 35.20625Q409.09375 36.2375 409.60938 36.784374Q410.125 37.315624 410.90625 37.315624Q411.48438 37.315624 411.89062 37.01875Q412.3125 36.70625 412.54688 36.05ZM409.09375 34.346874L412.5625 34.346874Q412.5 33.55 412.17188 33.159374Q411.65625 32.55 410.85938 32.55Q410.125 32.55 409.625 33.034374Q409.14062 33.51875 409.09375 34.346874ZM410.82812 30.05L410.17188 31.05L408.95312 31.05L410.21875 29.409374L411.34375 29.409374L412.67188 31.05L411.46875 31.05L410.82812 30.05ZM415.29688 38.05L415.29688 31.83125L416.23438 31.83125L416.23438 32.70625Q416.92188 31.690624 418.21875 31.690624Q418.78125 31.690624 419.25 31.89375Q419.73438 32.096874 419.96875 32.425Q420.20312 32.753124 420.29688 33.190624Q420.34375 33.4875 420.34375 34.221874L420.34375 38.05L419.29688 38.05L419.29688 34.26875Q419.29688 33.6125 419.17188 33.3Q419.04688 32.9875 418.73438 32.8Q418.42188 32.596874 418.0 32.596874Q417.32812 32.596874 416.82812 33.034374Q416.34375 33.45625 416.34375 34.64375L416.34375 38.05L415.29688 38.05ZM422.29688 30.675L422.29688 29.45625L423.35938 29.45625L423.35938 30.675L422.29688 30.675ZM422.29688 38.05L422.29688 31.83125L423.35938 31.83125L423.35938 38.05L422.29688 38.05ZM424.90625 34.940624Q424.90625 33.20625 425.85938 32.378124Q426.65625 31.690624 427.8125 31.690624Q429.09375 31.690624 429.90625 32.534374Q430.73438 33.3625 430.73438 34.846874Q430.73438 36.05 430.375 36.7375Q430.01562 37.425 429.3125 37.815624Q428.625 38.190624 427.8125 38.190624Q426.51562 38.190624 425.70312 37.3625Q424.90625 36.51875 424.90625 34.940624ZM425.98438 34.940624Q425.98438 36.128124 426.5 36.721874Q427.03125 37.315624 427.8125 37.315624Q428.60938 37.315624 429.125 36.721874Q429.64062 36.128124 429.64062 34.909374Q429.64062 33.753124 429.10938 33.159374Q428.59375 32.565624 427.8125 32.565624Q427.03125 32.565624 426.5 33.159374Q425.98438 33.7375 425.98438 34.940624Z" fill-rule="nonzero"/><path fill="#fbbc04" d="M447.5 29.05C447.5 28.497715 447.94772 28.05 448.5 28.05L458.5 28.05C459.05228 28.05 459.5 28.497715 459.5 29.05L459.5 39.05C459.5 39.602283 459.05228 40.05 458.5 40.05L448.5 40.05C447.94772 40.05 447.5 39.602283 447.5 39.05Z" fill-rule="nonzero"/><path fill="#1a1a1a" d="M468.07812 33.8625Q468.07812 31.721874 469.21875 30.51875Q470.375 29.3 472.1875 29.3Q473.39062 29.3 474.34375 29.878124Q475.29688 30.440624 475.79688 31.45625Q476.29688 32.471874 476.29688 33.76875Q476.29688 35.065624 475.76562 36.096874Q475.23438 37.128124 474.26562 37.659374Q473.3125 38.190624 472.1875 38.190624Q470.96875 38.190624 470.01562 37.6125Q469.0625 37.01875 468.5625 36.01875Q468.07812 35.003124 468.07812 33.8625ZM469.25 33.878124Q469.25 35.440624 470.07812 36.33125Q470.92188 37.221874 472.1875 37.221874Q473.46875 37.221874 474.29688 36.33125Q475.125 35.425 475.125 33.753124Q475.125 32.70625 474.76562 31.925Q474.42188 31.14375 473.73438 30.721874Q473.04688 30.284374 472.20312 30.284374Q471.0 30.284374 470.125 31.1125Q469.25 31.940624 469.25 33.878124ZM476.59375 38.05L478.85938 34.815624L476.76562 31.83125L478.07812 31.83125L479.03125 33.284374Q479.29688 33.70625 479.46875 33.9875Q479.71875 33.596874 479.9375 33.3L480.98438 31.83125L482.25 31.83125L480.09375 34.753124L482.40625 38.05L481.125 38.05L479.84375 36.1125L479.5 35.596874L477.85938 38.05L476.59375 38.05ZM482.29688 30.675L482.29688 29.45625L483.35938 29.45625L483.35938 30.675L482.29688 30.675ZM482.29688 38.05L482.29688 31.83125L483.35938 31.83125L483.35938 38.05L482.29688 38.05ZM485.09375 38.565624L486.125 38.721874Q486.1875 39.190624 486.48438 39.409374Q486.875 39.70625 487.54688 39.70625Q488.28125 39.70625 488.67188 39.409374Q489.07812 39.1125 489.21875 38.596874Q489.3125 38.26875 489.29688 37.2375Q488.60938 38.05 487.57812 38.05Q486.29688 38.05 485.59375 37.128124Q484.89062 36.190624 484.89062 34.909374Q484.89062 34.01875 485.20312 33.26875Q485.53125 32.503124 486.14062 32.096874Q486.75 31.690624 487.57812 31.690624Q488.6875 31.690624 489.40625 32.58125L489.40625 31.83125L490.375 31.83125L490.375 37.20625Q490.375 38.659374 490.07812 39.26875Q489.78125 39.878124 489.14062 40.221874Q488.5 40.58125 487.5625 40.58125Q486.45312 40.58125 485.76562 40.08125Q485.07812 39.58125 485.09375 38.565624ZM485.96875 34.83125Q485.96875 36.05 486.45312 36.6125Q486.9375 37.175 487.67188 37.175Q488.40625 37.175 488.89062 36.6125Q489.39062 36.05 489.39062 34.8625Q489.39062 33.721874 488.875 33.14375Q488.375 32.565624 487.65625 32.565624Q486.95312 32.565624 486.45312 33.14375Q485.96875 33.70625 485.96875 34.83125ZM496.54688 36.05L497.64062 36.175Q497.39062 37.128124 496.6875 37.659374Q495.98438 38.190624 494.90625 38.190624Q493.54688 38.190624 492.73438 37.346874Q491.9375 36.503124 491.9375 34.9875Q491.9375 33.425 492.75 32.565624Q493.5625 31.690624 494.84375 31.690624Q496.09375 31.690624 496.875 32.534374Q497.67188 33.378124 497.67188 34.925Q497.67188 35.01875 497.67188 35.20625L493.03125 35.20625Q493.09375 36.2375 493.60938 36.784374Q494.125 37.315624 494.90625 37.315624Q495.48438 37.315624 495.89062 37.01875Q496.3125 36.70625 496.54688 36.05ZM493.09375 34.346874L496.5625 34.346874Q496.5 33.55 496.17188 33.159374Q495.65625 32.55 494.85938 32.55Q494.125 32.55 493.625 33.034374Q493.14062 33.51875 493.09375 34.346874ZM494.82812 30.05L494.17188 31.05L492.95312 31.05L494.21875 29.409374L495.34375 29.409374L496.67188 31.05L495.46875 31.05L494.82812 30.05ZM499.29688 38.05L499.29688 31.83125L500.23438 31.83125L500.23438 32.70625Q500.92188 31.690624 502.21875 31.690624Q502.78125 31.690624 503.25 31.89375Q503.73438 32.096874 503.96875 32.425Q504.20312 32.753124 504.29688 33.190624Q504.34375 33.4875 504.34375 34.221874L504.34375 38.05L503.29688 38.05L503.29688 34.26875Q503.29688 33.6125 503.17188 33.3Q503.04688 32.9875 502.73438 32.8Q502.42188 32.596874 502.0 32.596874Q501.32812 32.596874 500.82812 33.034374Q500.34375 33.45625 500.34375 34.64375L500.34375 38.05L499.29688 38.05ZM506.29688 30.675L506.29688 29.45625L507.35938 29.45625L507.35938 30.675L506.29688 30.675ZM506.29688 38.05L506.29688 31.83125L507.35938 31.83125L507.35938 38.05L506.29688 38.05ZM508.90625 34.940624Q508.90625 33.20625 509.85938 32.378124Q510.65625 31.690624 511.8125 31.690624Q513.09375 31.690624 513.90625 32.534374Q514.7344 33.3625 514.7344 34.846874Q514.7344 36.05 514.375 36.7375Q514.0156 37.425 513.3125 37.815624Q512.625 38.190624 511.8125 38.190624Q510.51562 38.190624 509.70312 37.3625Q508.90625 36.51875 508.90625 34.940624ZM509.98438 34.940624Q509.98438 36.128124 510.5 36.721874Q511.03125 37.315624 511.8125 37.315624Q512.6094 37.315624 513.125 36.721874Q513.6406 36.128124 513.6406 34.909374Q513.6406 33.753124 513.1094 33.159374Q512.59375 32.565624 511.8125 32.565624Q511.03125 32.565624 510.5 33.159374Q509.98438 33.7375 509.98438 34.940624Z" fill-rule="nonzero"/><path fill="#34a853" d="M531.5 29.05C531.5 28.497715 531.9477 28.05 532.5 28.05L542.5 28.05C543.0523 28.05 543.5 28.497715 543.5 29.05L543.5 39.05C543.5 39.602283 543.0523 40.05 542.5 40.05L532.5 40.05C531.9477 40.05 531.5 39.602283 531.5 39.05Z" fill-rule="nonzero"/><path fill="#1a1a1a" d="M552.4219 38.05L552.4219 29.45625L553.5781 29.45625L558.09375 36.20625L558.09375 29.45625L559.1875 29.45625L559.1875 38.05L558.0156 38.05L553.5 31.3L553.5 38.05L552.4219 38.05ZM561.2969 30.675L561.2969 29.45625L562.3594 29.45625L562.3594 30.675L561.2969 30.675ZM561.2969 38.05L561.2969 31.83125L562.3594 31.83125L562.3594 38.05L561.2969 38.05ZM566.59375 37.1125L566.75 38.034374Q566.2969 38.128124 565.9531 38.128124Q565.375 38.128124 565.0625 37.95625Q564.75 37.76875 564.6094 37.471874Q564.4844 37.175 564.4844 36.221874L564.4844 32.64375L563.71875 32.64375L563.71875 31.83125L564.4844 31.83125L564.4844 30.284374L565.53125 29.659374L565.53125 31.83125L566.59375 31.83125L566.59375 32.64375L565.53125 32.64375L565.53125 36.284374Q565.53125 36.7375 565.5781 36.8625Q565.6406 36.9875 565.7656 37.065624Q565.8906 37.14375 566.125 37.14375Q566.3125 37.14375 566.59375 37.1125ZM567.28125 38.05L567.28125 31.83125L568.2344 31.83125L568.2344 32.76875Q568.59375 32.1125 568.8906 31.909374Q569.2031 31.690624 569.5781 31.690624Q570.1094 31.690624 570.65625 32.01875L570.2969 33.003124Q569.90625 32.76875 569.53125 32.76875Q569.1719 32.76875 568.8906 32.9875Q568.625 33.190624 568.5156 33.565624Q568.3281 34.128124 568.3281 34.784374L568.3281 38.05L567.28125 38.05ZM570.90625 34.940624Q570.90625 33.20625 571.8594 32.378124Q572.65625 31.690624 573.8125 31.690624Q575.09375 31.690624 575.90625 32.534374Q576.7344 33.3625 576.7344 34.846874Q576.7344 36.05 576.375 36.7375Q576.0156 37.425 575.3125 37.815624Q574.625 38.190624 573.8125 38.190624Q572.5156 38.190624 571.7031 37.3625Q570.90625 36.51875 570.90625 34.940624ZM571.9844 34.940624Q571.9844 36.128124 572.5 36.721874Q573.03125 37.315624 573.8125 37.315624Q574.6094 37.315624 575.125 36.721874Q575.6406 36.128124 575.6406 34.909374Q575.6406 33.753124 575.1094 33.159374Q574.59375 32.565624 573.8125 32.565624Q573.03125 32.565624 572.5 33.159374Q571.9844 33.7375 571.9844 34.940624ZM578.09375 38.565624L579.125 38.721874Q579.1875 39.190624 579.4844 39.409374Q579.875 39.70625 580.5469 39.70625Q581.28125 39.70625 581.6719 39.409374Q582.0781 39.1125 582.21875 38.596874Q582.3125 38.26875 582.2969 37.2375Q581.6094 38.05 580.5781 38.05Q579.2969 38.05 578.59375 37.128124Q577.8906 36.190624 577.8906 34.909374Q577.8906 34.01875 578.2031 33.26875Q578.53125 32.503124 579.1406 32.096874Q579.75 31.690624 580.5781 31.690624Q581.6875 31.690624 582.40625 32.58125L582.40625 31.83125L583.375 31.83125L583.375 37.20625Q583.375 38.659374 583.0781 39.26875Q582.78125 39.878124 582.1406 40.221874Q581.5 40.58125 580.5625 40.58125Q579.4531 40.58125 578.7656 40.08125Q578.0781 39.58125 578.09375 38.565624ZM578.96875 34.83125Q578.96875 36.05 579.4531 36.6125Q579.9375 37.175 580.6719 37.175Q581.40625 37.175 581.8906 36.6125Q582.3906 36.05 582.3906 34.8625Q582.3906 33.721874 581.875 33.14375Q581.375 32.565624 580.65625 32.565624Q579.9531 32.565624 579.4531 33.14375Q578.96875 33.70625 578.96875 34.83125ZM589.5469 36.05L590.6406 36.175Q590.3906 37.128124 589.6875 37.659374Q588.9844 38.190624 587.90625 38.190624Q586.5469 38.190624 585.7344 37.346874Q584.9375 36.503124 584.9375 34.9875Q584.9375 33.425 585.75 32.565624Q586.5625 31.690624 587.84375 31.690624Q589.09375 31.690624 589.875 32.534374Q590.6719 33.378124 590.6719 34.925Q590.6719 35.01875 590.6719 35.20625L586.03125 35.20625Q586.09375 36.2375 586.6094 36.784374Q587.125 37.315624 587.90625 37.315624Q588.4844 37.315624 588.8906 37.01875Q589.3125 36.70625 589.5469 36.05ZM586.09375 34.346874L589.5625 34.346874Q589.5 33.55 589.1719 33.159374Q588.65625 32.55 587.8594 32.55Q587.125 32.55 586.625 33.034374Q586.1406 33.51875 586.09375 34.346874ZM587.8281 30.05L587.1719 31.05L585.9531 31.05L587.21875 29.409374L588.34375 29.409374L589.6719 31.05L588.46875 31.05L587.8281 30.05ZM592.2969 38.05L592.2969 31.83125L593.2344 31.83125L593.2344 32.70625Q593.9219 31.690624 595.21875 31.690624Q595.78125 31.690624 596.25 31.89375Q596.7344 32.096874 596.96875 32.425Q597.2031 32.753124 597.2969 33.190624Q597.34375 33.4875 597.34375 34.221874L597.34375 38.05L596.2969 38.05L596.2969 34.26875Q596.2969 33.6125 596.1719 33.3Q596.0469 32.9875 595.7344 32.8Q595.4219 32.596874 595.0 32.596874Q594.3281 32.596874 593.8281 33.034374Q593.34375 33.45625 593.34375 34.64375L593.34375 38.05L592.2969 38.05ZM599.2969 30.675L599.2969 29.45625L600.3594 29.45625L600.3594 30.675L599.2969 30.675ZM599.2969 38.05L599.2969 31.83125L600.3594 31.83125L600.3594 38.05L599.2969 38.05ZM601.90625 34.940624Q601.90625 33.20625 602.8594 32.378124Q603.65625 31.690624 604.8125 31.690624Q606.09375 31.690624 606.90625 32.534374Q607.7344 33.3625 607.7344 34.846874Q607.7344 36.05 607.375 36.7375Q607.0156 37.425 606.3125 37.815624Q605.625 38.190624 604.8125 38.190624Q603.5156 38.190624 602.7031 37.3625Q601.90625 36.51875 601.90625 34.940624ZM602.9844 34.940624Q602.9844 36.128124 603.5 36.721874Q604.03125 37.315624 604.8125 37.315624Q605.6094 37.315624 606.125 36.721874Q606.6406 36.128124 606.6406 34.909374Q606.6406 33.753124 606.1094 33.159374Q605.59375 32.565624 604.8125 32.565624Q604.03125 32.565624 603.5 33.159374Q602.9844 33.7375 602.9844 34.940624Z" fill-rule="nonzero"/></svg>