<svg version="1.1" viewBox="0.0 0.0 576.0 288.0" fill="none" stroke="none" stroke-linecap="square" stroke-miterlimit="10" xmlns:xlink="http://www.w3.org/1999/xlink" xmlns="http://www.w3.org/2000/svg"><clipPath id="p.0"><path d="m0 0l576.0 0l0 288.0l-576.0 0l0 -288.0z" clip-rule="nonzero"/></clipPath><g clip-path="url(#p.0)"><path fill="#000000" fill-opacity="0.0" d="m0 0l576.0 0l0 288.0l-576.0 0z" fill-rule="evenodd"/><path fill="#ffffff" d="m24.699713 7.511559l131.83539 0l0 36.484726l-131.83539 0z" fill-rule="evenodd"/><path stroke="#999999" stroke-width="1.0" stroke-linejoin="round" stroke-linecap="butt" d="m24.699713 7.511559l131.83539 0l0 36.484726l-131.83539 0z" fill-rule="evenodd"/><path fill="#ffffff" d="m24.699713 43.996284l131.83539 0l0 236.4928l-131.83539 0z" fill-rule="evenodd"/><path stroke="#999999" stroke-width="1.0" stroke-linejoin="round" stroke-linecap="butt" d="m24.699713 43.996284l131.83539 0l0 236.4928l-131.83539 0z" fill-rule="evenodd"/><path fill="#000000" d="m92.45642 133.60017l0 13.5625l-1.640625 0l0 -11.84375l-0.078125 0l-3.3125 2.203125l0 -1.671875l3.390625 -2.25l1.640625 0z" fill-rule="nonzero"/><path fill="#000000" d="m67.63451 191.16267l0 -10.171875l1.5 0l0 1.578125l0.140625 0q0.3125 -0.8125 1.015625 -1.265625q0.71875 -0.453125 1.703125 -0.453125q1.015625 0 1.6875 0.453125q0.671875 0.453125 1.046875 1.265625l0.109375 0q0.390625 -0.78125 1.171875 -1.25q0.78125 -0.46875 1.875 -0.46875q1.359375 0 2.21875 0.859375q0.875 0.84375 0.875 2.640625l0 6.8125l-1.5625 0l0 -6.8125q0 -1.125 -0.625 -1.609375q-0.609375 -0.484375 -1.4375 -0.484375q-1.078125 0 -1.671875 0.65625q-0.578125 0.640625 -0.578125 1.625l0 6.625l-1.59375 0l0 -6.96875q0 -0.875 -0.5625 -1.40625q-0.5625 -0.53125 -1.453125 -0.53125q-0.609375 0 -1.140625 0.328125q-0.515625 0.328125 -0.84375 0.90625q-0.3125 0.5625 -0.3125 1.3125l0 6.359375l-1.5625 0zm20.484055 0.21875q-1.46875 0 -2.546875 -0.65625q-1.0625 -0.65625 -1.640625 -1.828125q-0.5625 -1.171875 -0.5625 -2.75q0 -1.5625 0.5625 -2.75q0.578125 -1.203125 1.609375 -1.875q1.03125 -0.671875 2.40625 -0.671875q0.796875 0 1.578125 0.265625q0.78125 0.265625 1.40625 0.859375q0.640625 0.59375 1.015625 1.578125q0.375 0.96875 0.375 2.390625l0 0.65625l-7.84375 0l0 -1.34375l6.265625 0q0 -0.859375 -0.34375 -1.53125q-0.34375 -0.6875 -0.96875 -1.078125q-0.625 -0.390625 -1.484375 -0.390625q-0.921875 0 -1.609375 0.46875q-0.671875 0.453125 -1.046875 1.1875q-0.359375 0.734375 -0.359375 1.578125l0 0.90625q0 1.140625 0.390625 1.953125q0.40625 0.796875 1.125 1.21875q0.71875 0.40625 1.671875 0.40625q0.609375 0 1.109375 -0.171875q0.5 -0.1875 0.859375 -0.53125q0.375 -0.359375 0.5625 -0.890625l1.515625 0.421875q-0.234375 0.765625 -0.796875 1.34375q-0.5625 0.578125 -1.390625 0.90625q-0.828125 0.328125 -1.859375 0.328125zm8.16217 -6.34375l0 6.125l-1.5625 0l0 -10.171875l1.5 0l0 1.578125l0.140625 0q0.359375 -0.765625 1.078125 -1.234375q0.734375 -0.484375 1.890625 -0.484375q1.03125 0 1.796875 0.421875q0.78125 0.421875 1.203125 1.28125q0.4375 0.84375 0.4375 2.140625l0 6.46875l-1.5625 0l0 -6.359375q0 -1.203125 -0.625 -1.875q-0.625 -0.671875 -1.703125 -0.671875q-0.75 0 -1.34375 0.328125q-0.578125 0.328125 -0.921875 0.953125q-0.328125 0.609375 -0.328125 1.5zm15.762039 1.96875l0 -6.015625l1.5625 0l0 10.171875l-1.5625 0l0 -1.71875l-0.109375 0q-0.359375 0.765625 -1.109375 1.3125q-0.75 0.53125 -1.90625 0.53125q-0.953125 0 -1.703125 -0.40625q-0.734375 -0.421875 -1.15625 -1.265625q-0.421875 -0.859375 -0.421875 -2.15625l0 -6.46875l1.5625 0l0 6.359375q0 1.109375 0.625 1.78125q0.625 0.65625 1.59375 0.65625q0.578125 0 1.1875 -0.296875q0.609375 -0.296875 1.015625 -0.90625q0.421875 -0.625 0.421875 -1.578125z" fill-rule="nonzero"/><path fill="#ffffff" d="m156.53711 7.511559l131.83539 0l0 36.484726l-131.83539 0z" fill-rule="evenodd"/><path stroke="#999999" stroke-width="1.0" stroke-linejoin="round" stroke-linecap="butt" d="m156.53711 7.511559l131.83539 0l0 36.484726l-131.83539 0z" fill-rule="evenodd"/><path fill="#ffffff" d="m156.53711 43.996284l131.83539 0l0 236.4928l-131.83539 0z" fill-rule="evenodd"/><path stroke="#999999" stroke-width="1.0" stroke-linejoin="round" stroke-linecap="butt" d="m156.53711 43.996284l131.83539 0l0 236.4928l-131.83539 0z" fill-rule="evenodd"/><path fill="#000000" d="m218.2164 147.16267l0 -1.1875l4.484375 -4.90625q0.78125 -0.859375 1.28125 -1.5q0.515625 -0.640625 0.765625 -1.203125q0.25 -0.578125 0.25 -1.1875q0 -0.71875 -0.34375 -1.234375q-0.34375 -0.53125 -0.9375 -0.8125q-0.578125 -0.296875 -1.3125 -0.296875q-0.78125 0 -1.359375 0.328125q-0.578125 0.3125 -0.90625 0.890625q-0.3125 0.578125 -0.3125 1.359375l-1.5625 0q0 -1.1875 0.546875 -2.09375q0.5625 -0.90625 1.5 -1.40625q0.953125 -0.5 2.140625 -0.5q1.203125 0 2.109375 0.5q0.921875 0.5 1.4375 1.359375q0.53125 0.859375 0.53125 1.90625q0 0.75 -0.265625 1.46875q-0.265625 0.703125 -0.921875 1.578125q-0.65625 0.859375 -1.828125 2.109375l-3.046875 3.265625l0 0.109375l6.3125 0l0 1.453125l-8.5625 0z" fill-rule="nonzero"/><path fill="#000000" d="m186.23897 191.38142q-1.421875 0 -2.46875 -0.671875q-1.03125 -0.6875 -1.59375 -1.875q-0.546875 -1.1875 -0.546875 -2.703125q0 -1.546875 0.5625 -2.734375q0.578125 -1.203125 1.609375 -1.875q1.03125 -0.671875 2.40625 -0.671875q1.078125 0 1.9375 0.40625q0.859375 0.390625 1.40625 1.109375q0.5625 0.71875 0.6875 1.671875l-1.5625 0q-0.171875 -0.703125 -0.796875 -1.234375q-0.609375 -0.546875 -1.640625 -0.546875q-0.90625 0 -1.59375 0.484375q-0.6875 0.46875 -1.078125 1.328125q-0.375 0.859375 -0.375 2.0q0 1.1875 0.375 2.0625q0.375 0.875 1.0625 1.359375q0.6875 0.484375 1.609375 0.484375q0.609375 0 1.109375 -0.203125q0.5 -0.21875 0.84375 -0.609375q0.34375 -0.40625 0.484375 -0.96875l1.5625 0q-0.125 0.90625 -0.65625 1.625q-0.515625 0.71875 -1.375 1.140625q-0.84375 0.421875 -1.96875 0.421875zm10.41478 0q-1.375 0 -2.421875 -0.65625q-1.03125 -0.65625 -1.609375 -1.828125q-0.578125 -1.1875 -0.578125 -2.765625q0 -1.59375 0.578125 -2.78125q0.578125 -1.1875 1.609375 -1.84375q1.046875 -0.65625 2.421875 -0.65625q1.375 0 2.40625 0.65625q1.046875 0.65625 1.625 1.84375q0.578125 1.1875 0.578125 2.78125q0 1.578125 -0.578125 2.765625q-0.578125 1.171875 -1.625 1.828125q-1.03125 0.65625 -2.40625 0.65625zm0 -1.40625q1.046875 0 1.71875 -0.53125q0.6875 -0.546875 1.0 -1.421875q0.328125 -0.875 0.328125 -1.890625q0 -1.03125 -0.328125 -1.90625q-0.3125 -0.875 -1.0 -1.421875q-0.671875 -0.546875 -1.71875 -0.546875q-1.046875 0 -1.71875 0.546875q-0.671875 0.546875 -1.0 1.421875q-0.328125 0.875 -0.328125 1.90625q0 1.015625 0.328125 1.890625q0.328125 0.875 1.0 1.421875q0.671875 0.53125 1.71875 0.53125zm8.567795 -4.9375l0 6.125l-1.5625 0l0 -10.171875l1.5 0l0 1.578125l0.140625 0q0.359375 -0.765625 1.078125 -1.234375q0.734375 -0.484375 1.890625 -0.484375q1.03125 0 1.796875 0.421875q0.78125 0.421875 1.203125 1.28125q0.4375 0.84375 0.4375 2.140625l0 6.46875l-1.5625 0l0 -6.359375q0 -1.203125 -0.625 -1.875q-0.625 -0.671875 -1.703125 -0.671875q-0.75 0 -1.34375 0.328125q-0.578125 0.328125 -0.921875 0.953125q-0.328125 0.609375 -0.328125 1.5zm13.777664 -4.046875l0 1.328125l-5.28125 0l0 -1.328125l5.28125 0zm-3.734375 -2.4375l1.5625 0l0 9.6875q0 0.671875 0.1875 1.0q0.203125 0.328125 0.5 0.4375q0.3125 0.109375 0.65625 0.109375q0.265625 0 0.421875 -0.03125q0.171875 -0.03125 0.265625 -0.046875l0.328125 1.40625q-0.15625 0.046875 -0.453125 0.109375q-0.28125 0.0625 -0.71875 0.0625q-0.65625 0 -1.296875 -0.28125q-0.625 -0.28125 -1.046875 -0.859375q-0.40625 -0.59375 -0.40625 -1.46875l0 -10.125zm10.256241 12.828125q-1.46875 0 -2.546875 -0.65625q-1.0625 -0.65625 -1.640625 -1.828125q-0.5625 -1.171875 -0.5625 -2.75q0 -1.5625 0.5625 -2.75q0.578125 -1.203125 1.609375 -1.875q1.03125 -0.671875 2.40625 -0.671875q0.796875 0 1.578125 0.265625q0.78125 0.265625 1.40625 0.859375q0.640625 0.59375 1.015625 1.578125q0.375 0.96875 0.375 2.390625l0 0.65625l-7.84375 0l0 -1.34375l6.265625 0q0 -0.859375 -0.34375 -1.53125q-0.34375 -0.6875 -0.96875 -1.078125q-0.625 -0.390625 -1.484375 -0.390625q-0.921875 0 -1.609375 0.46875q-0.671875 0.453125 -1.046875 1.1875q-0.359375 0.734375 -0.359375 1.578125l0 0.90625q0 1.140625 0.390625 1.953125q0.40625 0.796875 1.125 1.21875q0.71875 0.40625 1.671875 0.40625q0.609375 0 1.109375 -0.171875q0.5 -0.1875 0.859375 -0.53125q0.375 -0.359375 0.5625 -0.890625l1.515625 0.421875q-0.234375 0.765625 -0.796875 1.34375q-0.5625 0.578125 -1.390625 0.90625q-0.828125 0.328125 -1.859375 0.328125zm13.00592 -4.375l0 -6.015625l1.5625 0l0 10.171875l-1.5625 0l0 -1.71875l-0.109375 0q-0.359375 0.765625 -1.109375 1.3125q-0.75 0.53125 -1.90625 0.53125q-0.953125 0 -1.703125 -0.40625q-0.734375 -0.421875 -1.15625 -1.265625q-0.421875 -0.859375 -0.421875 -2.15625l0 -6.46875l1.5625 0l0 6.359375q0 1.109375 0.625 1.78125q0.625 0.65625 1.59375 0.65625q0.578125 0 1.1875 -0.296875q0.609375 -0.296875 1.015625 -0.90625q0.421875 -0.625 0.421875 -1.578125zm-3.140625 -7.390625l1.625 -3.078125l1.828125 0l-2.0625 3.078125l-1.390625 0zm11.416916 11.765625q-1.28125 0 -2.265625 -0.640625q-0.96875 -0.65625 -1.515625 -1.828125q-0.546875 -1.1875 -0.546875 -2.8125q0 -1.609375 0.546875 -2.78125q0.546875 -1.1875 1.53125 -1.828125q0.984375 -0.640625 2.265625 -0.640625q1.0 0 1.578125 0.328125q0.578125 0.328125 0.875 0.75q0.3125 0.40625 0.484375 0.671875l0.140625 0l0 -5.0l1.5625 0l0 13.5625l-1.515625 0l0 -1.5625l-0.1875 0q-0.171875 0.28125 -0.484375 0.703125q-0.3125 0.421875 -0.90625 0.75q-0.59375 0.328125 -1.5625 0.328125zm0.203125 -1.40625q0.9375 0 1.578125 -0.484375q0.65625 -0.5 1.0 -1.375q0.34375 -0.890625 0.34375 -2.046875q0 -1.140625 -0.34375 -1.984375q-0.328125 -0.859375 -0.984375 -1.34375q-0.640625 -0.484375 -1.59375 -0.484375q-1.0 0 -1.65625 0.515625q-0.65625 0.5 -0.984375 1.375q-0.328125 0.859375 -0.328125 1.921875q0 1.09375 0.328125 1.984375q0.34375 0.875 1.0 1.40625q0.65625 0.515625 1.640625 0.515625zm11.658936 1.40625q-1.375 0 -2.421875 -0.65625q-1.03125 -0.65625 -1.609375 -1.828125q-0.578125 -1.1875 -0.578125 -2.765625q0 -1.59375 0.578125 -2.78125q0.578125 -1.1875 1.609375 -1.84375q1.046875 -0.65625 2.421875 -0.65625q1.375 0 2.40625 0.65625q1.046875 0.65625 1.625 1.84375q0.578125 1.1875 0.578125 2.78125q0 1.578125 -0.578125 2.765625q-0.578125 1.171875 -1.625 1.828125q-1.03125 0.65625 -2.40625 0.65625zm0 -1.40625q1.046875 0 1.71875 -0.53125q0.6875 -0.546875 1.0 -1.421875q0.328125 -0.875 0.328125 -1.890625q0 -1.03125 -0.328125 -1.90625q-0.3125 -0.875 -1.0 -1.421875q-0.671875 -0.546875 -1.71875 -0.546875q-1.046875 0 -1.71875 0.546875q-0.671875 0.546875 -1.0 1.421875q-0.328125 0.875 -0.328125 1.90625q0 1.015625 0.328125 1.890625q0.328125 0.875 1.0 1.421875q0.671875 0.53125 1.71875 0.53125z" fill-rule="nonzero"/><path fill="#ffffff" d="m288.3745 7.511559l131.83539 0l0 36.484726l-131.83539 0z" fill-rule="evenodd"/><path stroke="#999999" stroke-width="1.0" stroke-linejoin="round" stroke-linecap="butt" d="m288.3745 7.511559l131.83539 0l0 36.484726l-131.83539 0z" fill-rule="evenodd"/><path fill="#ffffff" d="m288.3745 43.996284l131.83539 0l0 236.4928l-131.83539 0z" fill-rule="evenodd"/><path stroke="#999999" stroke-width="1.0" stroke-linejoin="round" stroke-linecap="butt" d="m288.3745 43.996284l131.83539 0l0 236.4928l-131.83539 0z" fill-rule="evenodd"/><path fill="#000000" d="m354.34042 147.35017q-1.3125 0 -2.34375 -0.453125q-1.015625 -0.453125 -1.609375 -1.25q-0.59375 -0.8125 -0.65625 -1.875l1.671875 0q0.046875 0.65625 0.4375 1.140625q0.40625 0.46875 1.046875 0.734375q0.65625 0.25 1.4375 0.25q0.875 0 1.546875 -0.296875q0.671875 -0.3125 1.046875 -0.859375q0.390625 -0.546875 0.390625 -1.265625q0 -0.75 -0.375 -1.3125q-0.359375 -0.578125 -1.078125 -0.90625q-0.71875 -0.328125 -1.75 -0.328125l-1.078125 0l0 -1.453125l1.078125 0q0.8125 0 1.421875 -0.28125q0.609375 -0.296875 0.953125 -0.828125q0.359375 -0.53125 0.359375 -1.25q0 -0.6875 -0.3125 -1.1875q-0.296875 -0.515625 -0.859375 -0.796875q-0.546875 -0.296875 -1.296875 -0.296875q-0.703125 0 -1.328125 0.265625q-0.609375 0.25 -1.0 0.734375q-0.390625 0.46875 -0.421875 1.15625l-1.59375 0q0.03125 -1.078125 0.640625 -1.875q0.609375 -0.8125 1.578125 -1.25q0.984375 -0.453125 2.15625 -0.453125q1.25 0 2.15625 0.515625q0.90625 0.5 1.375 1.328125q0.484375 0.828125 0.484375 1.78125q0 1.140625 -0.59375 1.953125q-0.59375 0.8125 -1.625 1.125l0 0.109375q1.28125 0.203125 2.0 1.09375q0.734375 0.875 0.734375 2.15625q0 1.109375 -0.609375 1.984375q-0.59375 0.875 -1.625 1.390625q-1.03125 0.5 -2.359375 0.5z" fill-rule="nonzero"/><path fill="#000000" d="m306.63742 191.16267l0 -10.171875l1.5 0l0 1.53125l0.109375 0q0.28125 -0.75 1.0 -1.21875q0.734375 -0.46875 1.65625 -0.46875q0.171875 0 0.421875 0q0.265625 0 0.390625 0.015625l0 1.59375q-0.078125 -0.015625 -0.359375 -0.0625q-0.28125 -0.046875 -0.59375 -0.046875q-0.734375 0 -1.328125 0.3125q-0.578125 0.3125 -0.90625 0.859375q-0.328125 0.53125 -0.328125 1.21875l0 6.4375l-1.5625 0zm10.890625 0.21875q-1.46875 0 -2.546875 -0.65625q-1.0625 -0.65625 -1.640625 -1.828125q-0.5625 -1.171875 -0.5625 -2.75q0 -1.5625 0.5625 -2.75q0.578125 -1.203125 1.609375 -1.875q1.03125 -0.671875 2.40625 -0.671875q0.796875 0 1.578125 0.265625q0.78125 0.265625 1.40625 0.859375q0.640625 0.59375 1.015625 1.578125q0.375 0.96875 0.375 2.390625l0 0.65625l-7.84375 0l0 -1.34375l6.265625 0q0 -0.859375 -0.34375 -1.53125q-0.34375 -0.6875 -0.96875 -1.078125q-0.625 -0.390625 -1.484375 -0.390625q-0.921875 0 -1.609375 0.46875q-0.671875 0.453125 -1.046875 1.1875q-0.359375 0.734375 -0.359375 1.578125l0 0.90625q0 1.140625 0.390625 1.953125q0.40625 0.796875 1.125 1.21875q0.71875 0.40625 1.671875 0.40625q0.609375 0 1.109375 -0.171875q0.5 -0.1875 0.859375 -0.53125q0.375 -0.359375 0.5625 -0.890625l1.515625 0.421875q-0.234375 0.765625 -0.796875 1.34375q-0.5625 0.578125 -1.390625 0.90625q-0.828125 0.328125 -1.859375 0.328125zm11.13092 -10.390625l0 1.328125l-5.484375 0l0 -1.328125l5.484375 0zm-3.84375 10.171875l0 -11.578125q0 -0.875 0.40625 -1.453125q0.40625 -0.59375 1.0625 -0.875q0.65625 -0.296875 1.390625 -0.296875q0.578125 0 0.9375 0.09375q0.359375 0.09375 0.546875 0.171875l-0.453125 1.34375q-0.125 -0.03125 -0.328125 -0.09375q-0.203125 -0.0625 -0.546875 -0.0625q-0.78125 0 -1.125 0.390625q-0.328125 0.390625 -0.328125 1.15625l0 11.203125l-1.5625 0zm9.885071 0.21875q-1.46875 0 -2.546875 -0.65625q-1.0625 -0.65625 -1.640625 -1.828125q-0.5625 -1.171875 -0.5625 -2.75q0 -1.5625 0.5625 -2.75q0.578125 -1.203125 1.609375 -1.875q1.03125 -0.671875 2.40625 -0.671875q0.796875 0 1.578125 0.265625q0.78125 0.265625 1.40625 0.859375q0.640625 0.59375 1.015625 1.578125q0.375 0.96875 0.375 2.390625l0 0.65625l-7.84375 0l0 -1.34375l6.265625 0q0 -0.859375 -0.34375 -1.53125q-0.34375 -0.6875 -0.96875 -1.078125q-0.625 -0.390625 -1.484375 -0.390625q-0.921875 0 -1.609375 0.46875q-0.671875 0.453125 -1.046875 1.1875q-0.359375 0.734375 -0.359375 1.578125l0 0.90625q0 1.140625 0.390625 1.953125q0.40625 0.796875 1.125 1.21875q0.71875 0.40625 1.671875 0.40625q0.609375 0 1.109375 -0.171875q0.5 -0.1875 0.859375 -0.53125q0.375 -0.359375 0.5625 -0.890625l1.515625 0.421875q-0.234375 0.765625 -0.796875 1.34375q-0.5625 0.578125 -1.390625 0.90625q-0.828125 0.328125 -1.859375 0.328125zm6.5996704 -0.21875l0 -10.171875l1.5 0l0 1.53125l0.109375 0q0.28125 -0.75 1.0 -1.21875q0.734375 -0.46875 1.65625 -0.46875q0.171875 0 0.421875 0q0.265625 0 0.390625 0.015625l0 1.59375q-0.078125 -0.015625 -0.359375 -0.0625q-0.28125 -0.046875 -0.59375 -0.046875q-0.734375 0 -1.328125 0.3125q-0.578125 0.3125 -0.90625 0.859375q-0.328125 0.53125 -0.328125 1.21875l0 6.4375l-1.5625 0zm10.8906555 0.21875q-1.46875 0 -2.546875 -0.65625q-1.0625 -0.65625 -1.640625 -1.828125q-0.5625 -1.171875 -0.5625 -2.75q0 -1.5625 0.5625 -2.75q0.578125 -1.203125 1.609375 -1.875q1.03125 -0.671875 2.40625 -0.671875q0.796875 0 1.578125 0.265625q0.78125 0.265625 1.40625 0.859375q0.640625 0.59375 1.015625 1.578125q0.375 0.96875 0.375 2.390625l0 0.65625l-7.84375 0l0 -1.34375l6.265625 0q0 -0.859375 -0.34375 -1.53125q-0.34375 -0.6875 -0.96875 -1.078125q-0.625 -0.390625 -1.484375 -0.390625q-0.921875 0 -1.609375 0.46875q-0.671875 0.453125 -1.046875 1.1875q-0.359375 0.734375 -0.359375 1.578125l0 0.90625q0 1.140625 0.390625 1.953125q0.40625 0.796875 1.125 1.21875q0.71875 0.40625 1.671875 0.40625q0.609375 0 1.109375 -0.171875q0.5 -0.1875 0.859375 -0.53125q0.375 -0.359375 0.5625 -0.890625l1.515625 0.421875q-0.234375 0.765625 -0.796875 1.34375q-0.5625 0.578125 -1.390625 0.90625q-0.828125 0.328125 -1.859375 0.328125zm1.140625 -11.609375l-1.390625 -1.859375l-1.375 1.859375l-1.484375 0l0 -0.109375l2.15625 -2.75l1.421875 0l2.15625 2.75l0 0.109375l-1.484375 0zm7.0215454 5.265625l0 6.125l-1.5625 0l0 -10.171875l1.5 0l0 1.578125l0.140625 0q0.359375 -0.765625 1.078125 -1.234375q0.734375 -0.484375 1.890625 -0.484375q1.03125 0 1.796875 0.421875q0.78125 0.421875 1.203125 1.28125q0.4375 0.84375 0.4375 2.140625l0 6.46875l-1.5625 0l0 -6.359375q0 -1.203125 -0.625 -1.875q-0.625 -0.671875 -1.703125 -0.671875q-0.75 0 -1.34375 0.328125q-0.578125 0.328125 -0.921875 0.953125q-0.328125 0.609375 -0.328125 1.5zm13.480774 6.34375q-1.421875 0 -2.46875 -0.671875q-1.03125 -0.6875 -1.59375 -1.875q-0.546875 -1.1875 -0.546875 -2.703125q0 -1.546875 0.5625 -2.734375q0.578125 -1.203125 1.609375 -1.875q1.03125 -0.671875 2.40625 -0.671875q1.078125 0 1.9375 0.40625q0.859375 0.390625 1.40625 1.109375q0.5625 0.71875 0.6875 1.671875l-1.5625 0q-0.171875 -0.703125 -0.796875 -1.234375q-0.609375 -0.546875 -1.640625 -0.546875q-0.90625 0 -1.59375 0.484375q-0.6875 0.46875 -1.078125 1.328125q-0.375 0.859375 -0.375 2.0q0 1.1875 0.375 2.0625q0.375 0.875 1.0625 1.359375q0.6875 0.484375 1.609375 0.484375q0.609375 0 1.109375 -0.203125q0.5 -0.21875 0.84375 -0.609375q0.34375 -0.40625 0.484375 -0.96875l1.5625 0q-0.125 0.90625 -0.65625 1.625q-0.515625 0.71875 -1.375 1.140625q-0.84375 0.421875 -1.96875 0.421875zm6.289795 -0.21875l0 -10.171875l1.5625 0l0 10.171875l-1.5625 0zm0.78125 -11.875q-0.453125 0 -0.78125 -0.3125q-0.328125 -0.3125 -0.328125 -0.75q0 -0.4375 0.328125 -0.75q0.328125 -0.3125 0.78125 -0.3125q0.46875 0 0.796875 0.3125q0.328125 0.3125 0.328125 0.75q0 0.4375 -0.328125 0.75q-0.328125 0.3125 -0.796875 0.3125zm6.628723 12.109375q-0.96875 0 -1.765625 -0.359375q-0.78125 -0.375 -1.25 -1.0625q-0.453125 -0.703125 -0.453125 -1.703125q0 -0.875 0.34375 -1.421875q0.34375 -0.546875 0.921875 -0.859375q0.578125 -0.3125 1.265625 -0.46875q0.703125 -0.15625 1.421875 -0.25q0.921875 -0.109375 1.5 -0.171875q0.578125 -0.0625 0.84375 -0.21875q0.28125 -0.15625 0.28125 -0.53125l0 -0.046875q0 -0.984375 -0.546875 -1.53125q-0.53125 -0.546875 -1.609375 -0.546875q-1.109375 0 -1.75 0.5q-0.640625 0.484375 -0.890625 1.046875l-1.484375 -0.53125q0.390625 -0.921875 1.046875 -1.4375q0.671875 -0.53125 1.46875 -0.734375q0.796875 -0.21875 1.5625 -0.21875q0.484375 0 1.125 0.125q0.640625 0.109375 1.234375 0.46875q0.609375 0.359375 1.0 1.078125q0.40625 0.71875 0.40625 1.9375l0 6.703125l-1.5625 0l0 -1.375l-0.078125 0q-0.171875 0.328125 -0.546875 0.703125q-0.359375 0.375 -0.984375 0.640625q-0.609375 0.265625 -1.5 0.265625zm0.25 -1.40625q0.921875 0 1.5625 -0.359375q0.640625 -0.359375 0.96875 -0.9375q0.328125 -0.578125 0.328125 -1.21875l0 -1.421875q-0.109375 0.109375 -0.453125 0.21875q-0.328125 0.09375 -0.765625 0.15625q-0.421875 0.0625 -0.828125 0.125q-0.40625 0.046875 -0.65625 0.078125q-0.609375 0.078125 -1.140625 0.265625q-0.53125 0.171875 -0.859375 0.515625q-0.3125 0.34375 -0.3125 0.9375q0 0.8125 0.609375 1.234375q0.609375 0.40625 1.546875 0.40625zm14.489532 -6.71875l-1.40625 0.390625q-0.125 -0.34375 -0.390625 -0.671875q-0.25 -0.34375 -0.6875 -0.5625q-0.4375 -0.21875 -1.125 -0.21875q-0.9375 0 -1.5625 0.421875q-0.609375 0.421875 -0.609375 1.078125q0 0.59375 0.421875 0.9375q0.421875 0.328125 1.328125 0.546875l1.515625 0.375q1.359375 0.328125 2.03125 1.015625q0.671875 0.671875 0.671875 1.75q0 0.859375 -0.5 1.5625q-0.5 0.6875 -1.40625 1.09375q-0.890625 0.390625 -2.078125 0.390625q-1.546875 0 -2.578125 -0.671875q-1.015625 -0.6875 -1.28125 -1.984375l1.484375 -0.375q0.203125 0.828125 0.796875 1.234375q0.59375 0.40625 1.5625 0.40625q1.09375 0 1.734375 -0.453125q0.640625 -0.46875 0.640625 -1.125q0 -0.53125 -0.375 -0.890625q-0.359375 -0.375 -1.125 -0.546875l-1.703125 -0.390625q-1.390625 -0.34375 -2.046875 -1.03125q-0.65625 -0.703125 -0.65625 -1.765625q0 -0.859375 0.484375 -1.515625q0.484375 -0.65625 1.328125 -1.03125q0.859375 -0.390625 1.921875 -0.390625q1.515625 0 2.375 0.671875q0.875 0.65625 1.234375 1.75z" fill-rule="nonzero"/><path fill="#ffffff" d="m420.2119 7.511559l131.83539 0l0 36.484726l-131.83539 0z" fill-rule="evenodd"/><path stroke="#999999" stroke-width="1.0" stroke-linejoin="round" stroke-linecap="butt" d="m420.2119 7.511559l131.83539 0l0 36.484726l-131.83539 0z" fill-rule="evenodd"/><path fill="#ffffff" d="m420.2119 43.996284l131.83539 0l0 236.4928l-131.83539 0z" fill-rule="evenodd"/><path stroke="#999999" stroke-width="1.0" stroke-linejoin="round" stroke-linecap="butt" d="m420.2119 43.996284l131.83539 0l0 236.4928l-131.83539 0z" fill-rule="evenodd"/><path fill="#000000" d="m481.2342 144.38142l0 -1.359375l5.953125 -9.421875l0.984375 0l0 2.09375l-0.65625 0l-4.515625 7.125l0 0.109375l8.03125 0l0 1.453125l-9.796875 0zm6.375 2.78125l0 -3.1875l0 -0.640625l0 -9.734375l1.5625 0l0 13.5625l-1.5625 0z" fill-rule="nonzero"/><path fill="#000000" d="m444.533 191.39705q-0.96875 0 -1.765625 -0.359375q-0.78125 -0.375 -1.25 -1.0625q-0.453125 -0.703125 -0.453125 -1.703125q0 -0.875 0.34375 -1.421875q0.34375 -0.546875 0.921875 -0.859375q0.578125 -0.3125 1.265625 -0.46875q0.703125 -0.15625 1.421875 -0.25q0.921875 -0.109375 1.5 -0.171875q0.578125 -0.0625 0.84375 -0.21875q0.28125 -0.15625 0.28125 -0.53125l0 -0.046875q0 -0.984375 -0.546875 -1.53125q-0.53125 -0.546875 -1.609375 -0.546875q-1.109375 0 -1.75 0.5q-0.640625 0.484375 -0.890625 1.046875l-1.484375 -0.53125q0.390625 -0.921875 1.046875 -1.4375q0.671875 -0.53125 1.46875 -0.734375q0.796875 -0.21875 1.5625 -0.21875q0.484375 0 1.125 0.125q0.640625 0.109375 1.234375 0.46875q0.609375 0.359375 1.0 1.078125q0.40625 0.71875 0.40625 1.9375l0 6.703125l-1.5625 0l0 -1.375l-0.078125 0q-0.171875 0.328125 -0.546875 0.703125q-0.359375 0.375 -0.984375 0.640625q-0.609375 0.265625 -1.5 0.265625zm0.25 -1.40625q0.921875 0 1.5625 -0.359375q0.640625 -0.359375 0.96875 -0.9375q0.328125 -0.578125 0.328125 -1.21875l0 -1.421875q-0.109375 0.109375 -0.453125 0.21875q-0.328125 0.09375 -0.765625 0.15625q-0.421875 0.0625 -0.828125 0.125q-0.40625 0.046875 -0.65625 0.078125q-0.609375 0.078125 -1.140625 0.265625q-0.53125 0.171875 -0.859375 0.515625q-0.3125 0.34375 -0.3125 0.9375q0 0.8125 0.609375 1.234375q0.609375 0.40625 1.546875 0.40625zm8.848907 -4.953125l0 6.125l-1.5625 0l0 -10.171875l1.5 0l0 1.578125l0.140625 0q0.359375 -0.765625 1.078125 -1.234375q0.734375 -0.484375 1.890625 -0.484375q1.03125 0 1.796875 0.421875q0.78125 0.421875 1.203125 1.28125q0.4375 0.84375 0.4375 2.140625l0 6.46875l-1.5625 0l0 -6.359375q0 -1.203125 -0.625 -1.875q-0.625 -0.671875 -1.703125 -0.671875q-0.75 0 -1.34375 0.328125q-0.578125 0.328125 -0.921875 0.953125q-0.328125 0.609375 -0.328125 1.5zm13.480804 6.34375q-1.375 0 -2.421875 -0.65625q-1.03125 -0.65625 -1.609375 -1.828125q-0.578125 -1.1875 -0.578125 -2.765625q0 -1.59375 0.578125 -2.78125q0.578125 -1.1875 1.609375 -1.84375q1.046875 -0.65625 2.421875 -0.65625q1.375 0 2.40625 0.65625q1.046875 0.65625 1.625 1.84375q0.578125 1.1875 0.578125 2.78125q0 1.578125 -0.578125 2.765625q-0.578125 1.171875 -1.625 1.828125q-1.03125 0.65625 -2.40625 0.65625zm0 -1.40625q1.046875 0 1.71875 -0.53125q0.6875 -0.546875 1.0 -1.421875q0.328125 -0.875 0.328125 -1.890625q0 -1.03125 -0.328125 -1.90625q-0.3125 -0.875 -1.0 -1.421875q-0.671875 -0.546875 -1.71875 -0.546875q-1.046875 0 -1.71875 0.546875q-0.671875 0.546875 -1.0 1.421875q-0.328125 0.875 -0.328125 1.90625q0 1.015625 0.328125 1.890625q0.328125 0.875 1.0 1.421875q0.671875 0.53125 1.71875 0.53125zm11.427155 -8.984375l0 1.328125l-5.28125 0l0 -1.328125l5.28125 0zm-3.734375 -2.4375l1.5625 0l0 9.6875q0 0.671875 0.1875 1.0q0.203125 0.328125 0.5 0.4375q0.3125 0.109375 0.65625 0.109375q0.265625 0 0.421875 -0.03125q0.171875 -0.03125 0.265625 -0.046875l0.328125 1.40625q-0.15625 0.046875 -0.453125 0.109375q-0.28125 0.0625 -0.71875 0.0625q-0.65625 0 -1.296875 -0.28125q-0.625 -0.28125 -1.046875 -0.859375q-0.40625 -0.59375 -0.40625 -1.46875l0 -10.125zm9.081055 12.84375q-0.96875 0 -1.765625 -0.359375q-0.78125 -0.375 -1.25 -1.0625q-0.453125 -0.703125 -0.453125 -1.703125q0 -0.875 0.34375 -1.421875q0.34375 -0.546875 0.921875 -0.859375q0.578125 -0.3125 1.265625 -0.46875q0.703125 -0.15625 1.421875 -0.25q0.921875 -0.109375 1.5 -0.171875q0.578125 -0.0625 0.84375 -0.21875q0.28125 -0.15625 0.28125 -0.53125l0 -0.046875q0 -0.984375 -0.546875 -1.53125q-0.53125 -0.546875 -1.609375 -0.546875q-1.109375 0 -1.75 0.5q-0.640625 0.484375 -0.890625 1.046875l-1.484375 -0.53125q0.390625 -0.921875 1.046875 -1.4375q0.671875 -0.53125 1.46875 -0.734375q0.796875 -0.21875 1.5625 -0.21875q0.484375 0 1.125 0.125q0.640625 0.109375 1.234375 0.46875q0.609375 0.359375 1.0 1.078125q0.40625 0.71875 0.40625 1.9375l0 6.703125l-1.5625 0l0 -1.375l-0.078125 0q-0.171875 0.328125 -0.546875 0.703125q-0.359375 0.375 -0.984375 0.640625q-0.609375 0.265625 -1.5 0.265625zm0.25 -1.40625q0.921875 0 1.5625 -0.359375q0.640625 -0.359375 0.96875 -0.9375q0.328125 -0.578125 0.328125 -1.21875l0 -1.421875q-0.109375 0.109375 -0.453125 0.21875q-0.328125 0.09375 -0.765625 0.15625q-0.421875 0.0625 -0.828125 0.125q-0.40625 0.046875 -0.65625 0.078125q-0.609375 0.078125 -1.140625 0.265625q-0.53125 0.171875 -0.859375 0.515625q-0.3125 0.34375 -0.3125 0.9375q0 0.8125 0.609375 1.234375q0.609375 0.40625 1.546875 0.40625zm11.411407 1.390625q-1.421875 0 -2.46875 -0.671875q-1.03125 -0.6875 -1.59375 -1.875q-0.546875 -1.1875 -0.546875 -2.703125q0 -1.546875 0.5625 -2.734375q0.578125 -1.203125 1.609375 -1.875q1.03125 -0.671875 2.40625 -0.671875q1.078125 0 1.9375 0.40625q0.859375 0.390625 1.40625 1.109375q0.5625 0.71875 0.6875 1.671875l-1.5625 0q-0.171875 -0.703125 -0.796875 -1.234375q-0.609375 -0.546875 -1.640625 -0.546875q-0.90625 0 -1.59375 0.484375q-0.6875 0.46875 -1.078125 1.328125q-0.375 0.859375 -0.375 2.0q0 1.1875 0.375 2.0625q0.375 0.875 1.0625 1.359375q0.6875 0.484375 1.609375 0.484375q0.609375 0 1.109375 -0.203125q0.5 -0.21875 0.84375 -0.609375q0.34375 -0.40625 0.484375 -0.96875l1.5625 0q-0.125 0.90625 -0.65625 1.625q-0.515625 0.71875 -1.375 1.140625q-0.84375 0.421875 -1.96875 0.421875zm-0.734375 -0.265625l1.296875 0l-0.109375 0.53125q0.515625 0.078125 0.9375 0.421875q0.4375 0.359375 0.4375 1.140625q0 0.84375 -0.703125 1.375q-0.703125 0.546875 -2.078125 0.546875l-0.046875 -1.03125q0.609375 0 1.015625 -0.203125q0.40625 -0.1875 0.40625 -0.640625q0 -0.453125 -0.34375 -0.625q-0.328125 -0.15625 -1.078125 -0.21875l0.265625 -1.296875zm11.14917 0.265625q-1.375 0 -2.421875 -0.65625q-1.03125 -0.65625 -1.609375 -1.828125q-0.578125 -1.1875 -0.578125 -2.765625q0 -1.59375 0.578125 -2.78125q0.578125 -1.1875 1.609375 -1.84375q1.046875 -0.65625 2.421875 -0.65625q1.375 0 2.40625 0.65625q1.046875 0.65625 1.625 1.84375q0.578125 1.1875 0.578125 2.78125q0 1.578125 -0.578125 2.765625q-0.578125 1.171875 -1.625 1.828125q-1.03125 0.65625 -2.40625 0.65625zm0 -1.40625q1.046875 0 1.71875 -0.53125q0.6875 -0.546875 1.0 -1.421875q0.328125 -0.875 0.328125 -1.890625q0 -1.03125 -0.328125 -1.90625q-0.3125 -0.875 -1.0 -1.421875q-0.671875 -0.546875 -1.71875 -0.546875q-1.046875 0 -1.71875 0.546875q-0.671875 0.546875 -1.0 1.421875q-0.328125 0.875 -0.328125 1.90625q0 1.015625 0.328125 1.890625q0.328125 0.875 1.0 1.421875q0.671875 0.53125 1.71875 0.53125zm-2.03125 -10.203125l-1.21875 -0.0625q0 -1.015625 0.578125 -1.65625q0.578125 -0.640625 1.4375 -0.640625q0.375 0 0.65625 0.125q0.296875 0.125 0.5625 0.296875q0.265625 0.15625 0.546875 0.296875q0.28125 0.125 0.640625 0.125q0.375 0 0.640625 -0.296875q0.265625 -0.296875 0.265625 -0.703125l1.1875 0.09375q0 1.046875 -0.578125 1.65625q-0.578125 0.609375 -1.4375 0.609375q-0.453125 0 -0.75 -0.125q-0.296875 -0.140625 -0.53125 -0.296875q-0.234375 -0.171875 -0.5 -0.296875q-0.25 -0.140625 -0.625 -0.140625q-0.375 0 -0.625 0.296875q-0.25 0.296875 -0.25 0.71875zm13.302155 11.609375q-1.46875 0 -2.546875 -0.65625q-1.0625 -0.65625 -1.640625 -1.828125q-0.5625 -1.171875 -0.5625 -2.75q0 -1.5625 0.5625 -2.75q0.578125 -1.203125 1.609375 -1.875q1.03125 -0.671875 2.40625 -0.671875q0.796875 0 1.578125 0.265625q0.78125 0.265625 1.40625 0.859375q0.640625 0.59375 1.015625 1.578125q0.375 0.96875 0.375 2.390625l0 0.65625l-7.84375 0l0 -1.34375l6.265625 0q0 -0.859375 -0.34375 -1.53125q-0.34375 -0.6875 -0.96875 -1.078125q-0.625 -0.390625 -1.484375 -0.390625q-0.921875 0 -1.609375 0.46875q-0.671875 0.453125 -1.046875 1.1875q-0.359375 0.734375 -0.359375 1.578125l0 0.90625q0 1.140625 0.390625 1.953125q0.40625 0.796875 1.125 1.21875q0.71875 0.40625 1.671875 0.40625q0.609375 0 1.109375 -0.171875q0.5 -0.1875 0.859375 -0.53125q0.375 -0.359375 0.5625 -0.890625l1.515625 0.421875q-0.234375 0.765625 -0.796875 1.34375q-0.5625 0.578125 -1.390625 0.90625q-0.828125 0.328125 -1.859375 0.328125zm13.802795 -8.109375l-1.40625 0.390625q-0.125 -0.34375 -0.390625 -0.671875q-0.25 -0.34375 -0.6875 -0.5625q-0.4375 -0.21875 -1.125 -0.21875q-0.9375 0 -1.5625 0.421875q-0.609375 0.421875 -0.609375 1.078125q0 0.59375 0.421875 0.9375q0.421875 0.328125 1.328125 0.546875l1.515625 0.375q1.359375 0.328125 2.03125 1.015625q0.671875 0.671875 0.671875 1.75q0 0.859375 -0.5 1.5625q-0.5 0.6875 -1.40625 1.09375q-0.890625 0.390625 -2.078125 0.390625q-1.546875 0 -2.578125 -0.671875q-1.015625 -0.6875 -1.28125 -1.984375l1.484375 -0.375q0.203125 0.828125 0.796875 1.234375q0.59375 0.40625 1.5625 0.40625q1.09375 0 1.734375 -0.453125q0.640625 -0.46875 0.640625 -1.125q0 -0.53125 -0.375 -0.890625q-0.359375 -0.375 -1.125 -0.546875l-1.703125 -0.390625q-1.390625 -0.34375 -2.046875 -1.03125q-0.65625 -0.703125 -0.65625 -1.765625q0 -0.859375 0.484375 -1.515625q0.484375 -0.65625 1.328125 -1.03125q0.859375 -0.390625 1.921875 -0.390625q1.515625 0 2.375 0.671875q0.875 0.65625 1.234375 1.75z" fill-rule="nonzero"/></g></svg>