<svg version="1.1" viewBox="0.0 0.0 240.0 240.0" fill="none" stroke="none" stroke-linecap="square" stroke-miterlimit="10" xmlns:xlink="http://www.w3.org/1999/xlink" xmlns="http://www.w3.org/2000/svg"><clipPath id="p.0"><path d="m0 0l240.0 0l0 240.0l-240.0 0l0 -240.0z" clip-rule="nonzero"/></clipPath><g clip-path="url(#p.0)"><path fill="#000000" fill-opacity="0.0" d="m0 0l240.0 0l0 240.0l-240.0 0z" fill-rule="evenodd"/><path fill="#ffffff" d="m8.125984 33.648922l0 0c0 -14.09593 11.427008 -25.522938 25.522938 -25.522938l172.70215 0c6.769104 0 13.260971 2.6890163 18.04744 7.4754953c4.786484 4.786479 7.4754944 11.278338 7.4754944 18.047443l0 172.70215c0 14.095932 -11.427002 25.522934 -25.522934 25.522934l-172.70215 0c-14.09593 0 -25.522938 -11.427002 -25.522938 -25.522934z" fill-rule="evenodd"/><path stroke="#cccccc" stroke-width="8.0" stroke-linejoin="round" stroke-linecap="butt" d="m8.125984 33.648922l0 0c0 -14.09593 11.427008 -25.522938 25.522938 -25.522938l172.70215 0c6.769104 0 13.260971 2.6890163 18.04744 7.4754953c4.786484 4.786479 7.4754944 11.278338 7.4754944 18.047443l0 172.70215c0 14.095932 -11.427002 25.522934 -25.522934 25.522934l-172.70215 0c-14.09593 0 -25.522938 -11.427002 -25.522938 -25.522934z" fill-rule="evenodd"/><path fill="#ffffff" d="m65.40059 120.0l0 0c0 -22.3871 24.35289 -40.53543 54.3937 -40.53543l0 0c30.04081 0 54.3937 18.14833 54.3937 40.53543l0 0c0 22.3871 -24.35289 40.53543 -54.3937 40.53543l0 0c-30.04081 0 -54.3937 -18.14833 -54.3937 -40.53543z" fill-rule="evenodd"/><path stroke="#666666" stroke-width="8.0" stroke-linejoin="round" stroke-linecap="butt" d="m65.40059 120.0l0 0c0 -22.3871 24.35289 -40.53543 54.3937 -40.53543l0 0c30.04081 0 54.3937 18.14833 54.3937 40.53543l0 0c0 22.3871 -24.35289 40.53543 -54.3937 40.53543l0 0c-30.04081 0 -54.3937 -18.14833 -54.3937 -40.53543z" fill-rule="evenodd"/><path fill="#666666" d="m108.42421 120.0l0 0c0 -6.279518 5.090561 -11.370079 11.370079 -11.370079l0 0c3.0155334 0 5.9075623 1.1979141 8.039864 3.3302155c2.132309 2.132309 3.3302155 5.02433 3.3302155 8.039864l0 0c0 6.279518 -5.0905533 11.370071 -11.370079 11.370071l0 0c-6.279518 0 -11.370079 -5.0905533 -11.370079 -11.370071z" fill-rule="evenodd"/><path stroke="#666666" stroke-width="8.0" stroke-linejoin="round" stroke-linecap="butt" d="m108.42421 120.0l0 0c0 -6.279518 5.090561 -11.370079 11.370079 -11.370079l0 0c3.0155334 0 5.9075623 1.1979141 8.039864 3.3302155c2.132309 2.132309 3.3302155 5.02433 3.3302155 8.039864l0 0c0 6.279518 -5.0905533 11.370071 -11.370079 11.370071l0 0c-6.279518 0 -11.370079 -5.0905533 -11.370079 -11.370071z" fill-rule="evenodd"/></g></svg>