<svg version="1.1" viewBox="0.0 0.0 240.0 240.0" fill="none" stroke="none" stroke-linecap="square" stroke-miterlimit="10" xmlns:xlink="http://www.w3.org/1999/xlink" xmlns="http://www.w3.org/2000/svg"><clipPath id="p.0"><path d="m0 0l240.0 0l0 240.0l-240.0 0l0 -240.0z" clip-rule="nonzero"/></clipPath><g clip-path="url(#p.0)"><path fill="#000000" fill-opacity="0.0" d="m0 0l240.0 0l0 240.0l-240.0 0z" fill-rule="evenodd"/><path fill="#ffffff" d="m8.125984 33.648922l0 0c0 -14.09593 11.427008 -25.522938 25.522938 -25.522938l172.70215 0c6.769104 0 13.260971 2.6890163 18.04744 7.4754953c4.786484 4.786479 7.4754944 11.278338 7.4754944 18.047443l0 172.70215c0 14.095932 -11.427002 25.522934 -25.522934 25.522934l-172.70215 0c-14.09593 0 -25.522938 -11.427002 -25.522938 -25.522934z" fill-rule="evenodd"/><path stroke="#cccccc" stroke-width="8.0" stroke-linejoin="round" stroke-linecap="butt" d="m8.125984 33.648922l0 0c0 -14.09593 11.427008 -25.522938 25.522938 -25.522938l172.70215 0c6.769104 0 13.260971 2.6890163 18.04744 7.4754953c4.786484 4.786479 7.4754944 11.278338 7.4754944 18.047443l0 172.70215c0 14.095932 -11.427002 25.522934 -25.522934 25.522934l-172.70215 0c-14.09593 0 -25.522938 -11.427002 -25.522938 -25.522934z" fill-rule="evenodd"/><path fill="#ffffff" d="m64.00527 77.22044l0 0c0 -6.4143143 5.199829 -11.614143 11.614143 -11.614143l89.08667 0c3.0802612 0 6.034363 1.2236252 8.212448 3.401703c2.17807 2.1780777 3.401703 5.1321793 3.401703 8.2124405l0 85.55911c0 6.414322 -5.199829 11.614151 -11.614151 11.614151l-89.08667 0c-6.4143143 0 -11.614143 -5.199829 -11.614143 -11.614151z" fill-rule="evenodd"/><path stroke="#666666" stroke-width="8.0" stroke-linejoin="round" stroke-linecap="butt" d="m64.00527 77.22044l0 0c0 -6.4143143 5.199829 -11.614143 11.614143 -11.614143l89.08667 0c3.0802612 0 6.034363 1.2236252 8.212448 3.401703c2.17807 2.1780777 3.401703 5.1321793 3.401703 8.2124405l0 85.55911c0 6.414322 -5.199829 11.614151 -11.614151 11.614151l-89.08667 0c-6.4143143 0 -11.614143 -5.199829 -11.614143 -11.614151z" fill-rule="evenodd"/><path fill="#ffffff" d="m115.01543 125.732285l70.23622 0l0 54.92914l-70.23622 0z" fill-rule="evenodd"/><path fill="#ffffff" d="m115.016495 125.732285l61.16536 0l-61.16536 48.629913z" fill-rule="evenodd"/><path stroke="#666666" stroke-width="8.0" stroke-linejoin="round" stroke-linecap="butt" d="m115.016495 125.732285l61.16536 0l-61.16536 48.629913z" fill-rule="evenodd"/></g></svg>