<svg version="1.1" viewBox="0.0 0.0 512.0 512.0" fill="none" stroke="none" stroke-linecap="square" stroke-miterlimit="10" xmlns:xlink="http://www.w3.org/1999/xlink" xmlns="http://www.w3.org/2000/svg"><clipPath id="p.0"><path d="m0 0l512.0 0l0 512.0l-512.0 0l0 -512.0z" clip-rule="nonzero"/></clipPath><g clip-path="url(#p.0)"><path fill="#000000" fill-opacity="0.0" d="m0 0l512.0 0l0 512.0l-512.0 0z" fill-rule="evenodd"/><path fill="#ffffff" d="m-543.8425 0.164042l511.68506 0l0 511.68506l-511.68506 0z" fill-rule="evenodd"/><path fill="#4ec1f5" d="m169.66594 317.3849l0 0c0 -57.628906 41.119843 -104.34639 91.843735 -104.34639l0 0c24.35846 0 47.71927 10.993607 64.9433 30.562363c17.22406 19.568726 26.900421 46.10965 26.900421 73.78403l0 0c0 57.628937 -41.119843 104.346405 -91.84372 104.346405l0 0c-50.723892 0 -91.843735 -46.71747 -91.843735 -104.346405z" fill-rule="evenodd"/><path fill="#4ec1f5" d="m247.00977 106.76844l0 0c0 -9.106384 6.4918213 -16.488564 14.499908 -16.488564l0 0c3.8456116 0 7.533722 1.7371826 10.25296 4.829384c2.7192688 3.0922089 4.2469482 7.2861404 4.2469482 11.65918l0 0c0 9.106384 -6.491852 16.488564 -14.499908 16.488564l0 0c-8.008087 0 -14.499908 -7.3821793 -14.499908 -16.488564z" fill-rule="evenodd"/><path fill="#4ec1f5" d="m180.54362 269.06216l67.5397 -168.7455l26.577866 0l-67.53972 168.7455z" fill-rule="evenodd"/><path fill="#4ec1f5" d="m342.39523 269.06216l-67.5397 -168.7455l-26.57785 0l67.5397 168.7455z" fill-rule="evenodd"/><path fill="#4ec1f5" d="m221.70354 224.53677l39.133286 -94.35956l39.13327 94.35956z" fill-rule="evenodd"/><path fill="#b3e2fb" d="m235.48466 332.44797l0 0c-13.886734 2.87677 -27.41629 -9.119263 -30.219116 -26.793945c-2.802826 -17.674652 6.1824493 -34.3349 20.069183 -37.2117l0 0c-0.95513916 21.874298 2.53862 43.905975 10.149933 64.005646z" fill-rule="evenodd"/><path fill="#b3e2fb" d="m204.31741 346.80356l0 0c0 -11.382965 8.114792 -20.610718 18.124893 -20.610718l0 0c4.807007 0 9.417145 2.1715088 12.816223 6.036743c3.3990784 3.865265 5.308655 9.107666 5.308655 14.573975l0 0c0 11.382996 -8.114792 20.610718 -18.124878 20.610718l0 0c-10.010101 0 -18.124893 -9.227722 -18.124893 -20.610718z" fill-rule="evenodd"/><path fill="#b3e2fb" d="m213.75128 265.4294l0 0c0 -3.8495178 2.744278 -6.970154 6.1295166 -6.970154l0 0c1.6256409 0 3.1847076 0.7343445 4.3342133 2.041504c1.1495056 1.3071594 1.7952881 3.0800476 1.7952881 4.92865l0 0c0 3.8495178 -2.744278 6.970154 -6.1295013 6.970154l0 0c-3.3852386 0 -6.1295166 -3.120636 -6.1295166 -6.970154z" fill-rule="evenodd"/><path fill="#b3e2fb" d="m208.80197 360.80984l0 0c-11.824219 -11.387848 -17.900726 -28.60083 -16.760162 -47.476746c1.140564 -18.875916 9.394363 -37.69626 22.765549 -51.910095l8.517349 9.924255l0 0c-10.92337 11.521851 -17.795197 26.649475 -18.938843 41.691864c-1.143631 15.042389 3.5460968 28.61621 12.924942 37.409607z" fill-rule="evenodd"/><path fill="#b3e2fb" d="m200.1899 304.08475l21.38736 0l0 33.57672l-21.38736 0z" fill-rule="evenodd"/></g></svg>